
<svg width="49" height="49" viewBox="0 0 49 49" fill="none" xmlns="http://www.w3.org/2000/svg">
<circle cx="24.5003" cy="24.4994" r="24.5003" fill="#787878"/>
<path d="M22.3864 9.25C21.2288 9.25 20.1622 9.87759 19.6 10.8895L18.6359 12.625H15.8125C13.4308 12.625 11.5 14.5558 11.5 16.9375V29.6875C11.5 32.0692 13.4308 34 15.8125 34H24.2472C23.9981 33.4028 23.8068 32.7754 23.6802 32.125H15.8125C14.4663 32.125 13.375 31.0337 13.375 29.6875V16.9375C13.375 15.5913 14.4663 14.5 15.8125 14.5H19.7391L21.239 11.8001C21.4706 11.3834 21.9098 11.125 22.3864 11.125H27.6136C28.0902 11.125 28.5294 11.3834 28.761 11.8001L30.2609 14.5H34.1875C35.5337 14.5 36.625 15.5913 36.625 16.9375V21.0999C37.2867 21.3441 37.9147 21.658 38.5 22.0327V16.9375C38.5 14.5558 36.5692 12.625 34.1875 12.625H31.3641L30.4 10.8895C29.8378 9.87759 28.7712 9.25 27.6136 9.25H22.3864Z" fill="white"/>
<path d="M25 16.75C27.6459 16.75 29.8917 18.4625 30.6895 20.8397C30.0783 21.0056 29.491 21.2294 28.9338 21.505C28.4058 19.8353 26.8443 18.625 25 18.625C22.7218 18.625 20.875 20.4718 20.875 22.75C20.875 24.7311 22.2717 26.3861 24.1341 26.7839C23.9137 27.3632 23.7469 27.969 23.6399 28.5952C20.9814 27.979 19 25.5959 19 22.75C19 19.4363 21.6863 16.75 25 16.75Z" fill="white"/>
<path d="M41.5 30.25C41.5 34.8063 37.8063 38.5 33.25 38.5C28.6937 38.5 25 34.8063 25 30.25C25 25.6937 28.6937 22 33.25 22C37.8063 22 41.5 25.6937 41.5 30.25ZM34 25.75C34 25.3358 33.6642 25 33.25 25C32.8358 25 32.5 25.3358 32.5 25.75V29.5H28.75C28.3358 29.5 28 29.8358 28 30.25C28 30.6642 28.3358 31 28.75 31H32.5V34.75C32.5 35.1642 32.8358 35.5 33.25 35.5C33.6642 35.5 34 35.1642 34 34.75V31H37.75C38.1642 31 38.5 30.6642 38.5 30.25C38.5 29.8358 38.1642 29.5 37.75 29.5H34V25.75Z" fill="white"/>
</svg>
