
<svg width="36" height="33" viewBox="0 0 36 33" fill="none" xmlns="http://www.w3.org/2000/svg">
<path fill-rule="evenodd" clip-rule="evenodd" d="M35.0238 2.10618H29.8092L27.0835 10.3932L24.2392 2.10618H18.9063V15.0097L13.4546 2.10618H9.06991L3.61828 15.2898H7.41051L8.47709 12.6532H14.1658L15.2324 15.2898H22.3431V6.12392L25.5428 15.2898H28.5055L31.7053 6.12392V15.2898H35.0238V17.2986H30.6387L27.0835 21.4421L23.4097 17.2986H8.35874V30.4822H23.2913L26.9648 26.2133L30.6387 30.4822H35.0238V32.1142H29.8092L26.9648 28.8499L24.1205 32.1142H6.46263V17.0475H0.773926L7.88462 0.0969391H14.7583L17.2468 5.87276V0.0969391H25.7799L27.2019 4.49159L28.6242 0.0969391H35.0238V2.10618ZM35.0238 20.1864L31.824 23.8276L35.0238 27.4688V30.4822L29.2167 23.8276L35.0238 17.2986V20.1864ZM18.9063 30.4822V27.3434H11.7956V25.3345H18.7875V22.321H11.7956V20.3121H18.9063V17.2986L24.8317 23.8276L18.9063 30.4822ZM9.54368 9.76511L11.2031 5.49621L12.8622 9.76511H9.54368Z" fill="#006FCF"/>
</svg>



