<svg xmlns="http://www.w3.org/2000/svg" width="30" height="30" viewBox="0 0 30 30" fill="none">
  <g clip-path="url(#clip0_73_1772)">
    <path d="M27.6562 15.4688V11.25C27.6562 9.95766 26.6048 8.90625 25.3125 8.90625H13.125C12.758 8.90625 12.4153 8.99859 12.1059 9.14953C11.3995 8.32922 10.5136 7.72125 9.51891 7.37438C10.5581 6.70641 11.25 5.54297 11.25 4.21875C11.25 2.15109 9.56766 0.46875 7.5 0.46875C5.43234 0.46875 3.75 2.15109 3.75 4.21875C3.75 5.54672 4.44563 6.7125 5.48953 7.37906C3.11578 8.21203 1.40625 10.47 1.40625 13.125V15.4688H0.46875V29.5312H29.5312V15.4688H27.6562ZM15.9375 22.9688V21.0938H22.5V22.9688H15.9375ZM13.125 20.1562C12.3497 20.1562 11.7188 19.5253 11.7188 18.75V18.2812H26.7188V18.75C26.7188 19.5253 26.0878 20.1562 25.3125 20.1562H13.125ZM25.3125 9.84375C26.0878 9.84375 26.7188 10.4747 26.7188 11.25V17.3438H11.7188V11.25C11.7188 10.4747 12.3497 9.84375 13.125 9.84375H25.3125ZM4.6875 4.21875C4.6875 2.66766 5.94891 1.40625 7.5 1.40625C9.05109 1.40625 10.3125 2.66766 10.3125 4.21875C10.3125 5.76984 9.05109 7.03125 7.5 7.03125C5.94891 7.03125 4.6875 5.76984 4.6875 4.21875ZM2.34375 13.125C2.34375 10.282 4.65703 7.96875 7.5 7.96875C9.00047 7.96875 10.3837 8.60625 11.3634 9.72094C11.0058 10.1325 10.7812 10.6631 10.7812 11.25V15.4688H4.6875V11.25H3.75V15.4688H2.34375V13.125ZM10.7812 16.4062V18.75C10.7812 20.0423 11.8327 21.0938 13.125 21.0938H15V22.9688H13.125V23.9062H25.3125V22.9688H23.4375V21.0938H25.3125C26.6048 21.0938 27.6562 20.0423 27.6562 18.75V16.4062H28.5938V25.7812H1.40625V16.4062H10.7812ZM1.40625 28.5938V26.7188H28.5938V28.5938H1.40625Z" fill="#005097"/>
    <path d="M6.5625 24.8438C7.9875 24.8438 10.7812 24.2775 10.7812 22.9688V19.2188C10.7812 17.91 7.9875 17.3438 6.5625 17.3438C5.1375 17.3438 2.34375 17.91 2.34375 19.2188V22.9688C2.34375 24.2775 5.1375 24.8438 6.5625 24.8438ZM6.5625 23.9062C4.95094 23.9062 3.37266 23.2706 3.28125 22.9688V22.2497C4.22484 22.7433 5.66484 22.9688 6.5625 22.9688C7.46063 22.9688 8.90109 22.7433 9.84469 22.2492V22.958C9.75234 23.2706 8.17406 23.9062 6.5625 23.9062ZM6.5625 18.2812C8.15578 18.2812 9.71625 18.9028 9.84141 19.2188C9.71625 19.5347 8.15578 20.1562 6.5625 20.1562C4.95422 20.1562 3.38016 19.523 3.28125 19.2319V19.2277C3.38016 18.9145 4.95422 18.2812 6.5625 18.2812ZM3.28125 20.3747C4.22484 20.8683 5.66484 21.0938 6.5625 21.0938C7.46063 21.0938 8.90062 20.8683 9.84422 20.3747V21.0839C9.74859 21.397 8.17266 22.0312 6.5625 22.0312C4.95094 22.0312 3.37266 21.3956 3.28125 21.0938V20.3747Z" fill="#005097"/>
    <path d="M13.5938 5.15625C13.8816 5.15625 14.1492 5.06859 14.3723 4.91953L16.0078 6.14625C15.9661 6.27844 15.9375 6.41672 15.9375 6.5625C15.9375 7.33781 16.5684 7.96875 17.3438 7.96875C18.1191 7.96875 18.75 7.33781 18.75 6.5625C18.75 6.34594 18.697 6.14344 18.6089 5.96016L20.4909 4.07812C20.6747 4.16578 20.8772 4.21875 21.0938 4.21875C21.3103 4.21875 21.5128 4.16578 21.6961 4.07766L22.6406 5.02219C22.553 5.20594 22.5 5.40844 22.5 5.625C22.5 6.40031 23.1309 7.03125 23.9062 7.03125C24.6816 7.03125 25.3125 6.40031 25.3125 5.625C25.3125 5.40844 25.2595 5.20594 25.1714 5.02266L27.0534 3.14062C27.2372 3.22828 27.4397 3.28125 27.6562 3.28125C28.4316 3.28125 29.0625 2.65031 29.0625 1.875C29.0625 1.09969 28.4316 0.46875 27.6562 0.46875C26.8809 0.46875 26.25 1.09969 26.25 1.875C26.25 2.09156 26.303 2.29406 26.3911 2.47734L24.5091 4.35938C24.3253 4.27172 24.1228 4.21875 23.9062 4.21875C23.6897 4.21875 23.4872 4.27172 23.3039 4.35984L22.3594 3.41531C22.447 3.23156 22.5 3.02906 22.5 2.8125C22.5 2.03719 21.8691 1.40625 21.0938 1.40625C20.3184 1.40625 19.6875 2.03719 19.6875 2.8125C19.6875 3.02906 19.7405 3.23156 19.8286 3.41484L17.9466 5.29688C17.7628 5.20922 17.5603 5.15625 17.3438 5.15625C17.0559 5.15625 16.7883 5.24391 16.5652 5.39297L14.9297 4.16625C14.9714 4.03406 15 3.89578 15 3.75C15 2.97469 14.3691 2.34375 13.5938 2.34375C12.8184 2.34375 12.1875 2.97469 12.1875 3.75C12.1875 4.52531 12.8184 5.15625 13.5938 5.15625ZM27.6562 1.40625C27.9145 1.40625 28.125 1.61672 28.125 1.875C28.125 2.13328 27.9145 2.34375 27.6562 2.34375C27.398 2.34375 27.1875 2.13328 27.1875 1.875C27.1875 1.61672 27.398 1.40625 27.6562 1.40625ZM24.375 5.625C24.375 5.88328 24.1645 6.09375 23.9062 6.09375C23.648 6.09375 23.4375 5.88328 23.4375 5.625C23.4375 5.36672 23.648 5.15625 23.9062 5.15625C24.1645 5.15625 24.375 5.36672 24.375 5.625ZM21.0938 2.34375C21.352 2.34375 21.5625 2.55422 21.5625 2.8125C21.5625 3.07078 21.352 3.28125 21.0938 3.28125C20.8355 3.28125 20.625 3.07078 20.625 2.8125C20.625 2.55422 20.8355 2.34375 21.0938 2.34375ZM17.3438 6.09375C17.602 6.09375 17.8125 6.30422 17.8125 6.5625C17.8125 6.82078 17.602 7.03125 17.3438 7.03125C17.0855 7.03125 16.875 6.82078 16.875 6.5625C16.875 6.30422 17.0855 6.09375 17.3438 6.09375ZM13.5938 3.28125C13.852 3.28125 14.0625 3.49172 14.0625 3.75C14.0625 4.00828 13.852 4.21875 13.5938 4.21875C13.3355 4.21875 13.125 4.00828 13.125 3.75C13.125 3.49172 13.3355 3.28125 13.5938 3.28125Z" fill="#005097"/>
    <path d="M25.3125 15.4688H24.375V10.7812H21.5625V15.4688H20.625V12.6562H17.8125V15.4688H16.875V11.7188H14.0625V15.4688H13.125V16.4062H25.3125V15.4688ZM22.5 11.7188H23.4375V15.4688H22.5V11.7188ZM18.75 13.5938H19.6875V15.4688H18.75V13.5938ZM15 12.6562H15.9375V15.4688H15V12.6562Z" fill="#005097"/>
  </g>
  <defs>
    <clipPath id="clip0_73_1772">
      <rect width="30" height="30" fill="white"/>
    </clipPath>
  </defs>
</svg>