<svg xmlns="http://www.w3.org/2000/svg" width="26" height="31" viewBox="0 0 26 31" fill="none">
<path d="M18.0542 5.4357H17.7806H16.5497C16.1394 5.4357 15.8658 5.70749 15.8658 6.11516C15.8658 6.52284 16.1394 6.79463 16.5497 6.79463H17.9174H18.0542C21.8839 6.79463 23.9355 8.83302 23.9355 12.638V23.1018C23.9355 26.9068 21.8839 28.9452 18.0542 28.9452H7.38581C3.55613 28.9452 1.50452 26.9068 1.50452 23.1018V12.7739C1.50452 8.96891 3.55613 6.93052 7.38581 6.93052H7.65935H8.89032C9.30064 6.93052 9.57419 6.65874 9.57419 6.25106C9.57419 5.84338 9.30064 5.4357 8.89032 5.4357H7.79613H7.38581H7.24903C7.24903 5.4357 7.24903 5.4357 7.11226 5.4357C2.73548 5.57159 0 8.28945 0 12.7739V23.1018C0 27.7221 2.73548 30.44 7.38581 30.44H18.0542C22.7045 30.44 25.44 27.7221 25.44 23.1018V12.7739C25.3032 8.28945 22.5677 5.4357 18.0542 5.4357Z" fill="white"/>
<path d="M10.2584 14.2688C10.2584 13.997 10.2584 13.8611 10.2584 13.5893V12.5022V11.9586C10.2584 11.8227 10.2584 11.6868 10.2584 11.5509C10.1217 11.0073 9.84811 10.7356 9.30101 10.4638C9.16424 10.3279 8.89069 10.3279 8.61714 10.3279C8.48037 10.3279 8.34359 10.3279 8.07005 10.3279H6.83908H6.15521C6.01843 10.3279 5.88166 10.3279 5.74488 10.3279C5.47134 10.4638 5.06101 10.5997 4.92424 11.0073C4.65069 11.2791 4.51392 11.5509 4.51392 11.9586C4.51392 12.2304 4.51392 12.5022 4.51392 12.774V13.0457V13.8611V14.2688V14.4047C4.51392 14.5406 4.51392 14.6765 4.51392 14.8123C4.51392 15.0841 4.78746 15.3559 4.92424 15.6277C5.06101 15.7636 5.19779 15.8995 5.33456 15.8995C5.47134 16.0354 5.74488 16.0354 5.88166 16.0354C6.01843 16.0354 6.01843 16.0354 6.15521 16.0354H6.29198H6.7023V17.2584H7.7965V16.0354H8.48037C8.61714 16.0354 8.75392 16.0354 8.89069 16.0354C9.16424 15.8995 9.43779 15.7636 9.71134 15.6277C10.1217 15.0841 10.2584 14.6765 10.2584 14.2688ZM9.16424 14.1329C9.16424 14.2688 9.16424 14.2688 9.16424 14.4047C9.02746 14.6765 8.89069 14.8123 8.75392 14.8123C8.75392 14.8123 8.61714 14.8123 8.48037 14.8123H7.52295H6.29198C6.15521 14.8123 6.15521 14.8123 6.01843 14.8123C5.74488 14.8123 5.60811 14.5406 5.60811 14.4047C5.60811 14.4047 5.60811 14.2688 5.60811 14.1329V13.0457V12.3663V11.9586C5.60811 11.8227 5.60811 11.8227 5.60811 11.6868C5.74488 11.5509 5.88166 11.415 6.01843 11.2791H6.15521H7.2494H7.38617H8.34359C8.48037 11.2791 8.48037 11.2791 8.61714 11.2791C8.89069 11.2791 9.02746 11.415 9.02746 11.6868C9.02746 11.8227 9.02746 11.8227 9.02746 11.9586V14.1329H9.16424Z" fill="white"/>
<path d="M20.6532 14.5411C20.6532 14.4052 20.6532 14.2693 20.6532 14.1334C20.6532 13.8616 20.6532 13.5898 20.6532 13.318V11.8232C20.6532 11.6873 20.6532 11.6873 20.6532 11.5514C20.5164 11.1438 20.3796 10.7361 19.9693 10.4643C19.8325 10.3284 19.559 10.1925 19.2854 10.1925C19.1486 10.1925 19.0119 10.1925 18.8751 10.1925H18.328C18.0544 10.1925 17.9177 10.1925 17.6441 10.1925H17.5073C17.2338 10.1925 16.8235 10.1925 16.5499 10.1925C16.4132 10.1925 16.2764 10.1925 16.2764 10.1925C15.8661 10.3284 15.5925 10.4643 15.319 10.7361C15.1822 11.1438 15.0454 11.4155 15.0454 11.6873C15.0454 11.8232 15.0454 11.8232 15.0454 11.9591C15.0454 12.2309 15.0454 12.3668 15.0454 12.6386V12.9104V13.318V13.4539C15.0454 13.7257 15.0454 13.9975 15.0454 14.2693C15.0454 14.4052 15.0454 14.5411 15.0454 14.677C15.1822 15.0846 15.319 15.3564 15.5925 15.4923C15.8661 15.6282 16.1396 15.7641 16.4132 15.7641C16.5499 15.7641 16.6867 15.7641 16.6867 15.7641H16.9602H17.097H17.2338V16.9871H18.328V16.8513V16.5795V16.0359V15.9H18.8751C19.0119 15.9 19.1486 15.9 19.2854 15.9C19.6957 15.7641 19.9693 15.6282 20.2428 15.3564C20.5164 15.0846 20.6532 14.8129 20.6532 14.5411ZM19.559 14.5411C19.4222 14.677 19.2854 14.8129 19.1486 14.8129H19.0119H18.8751H18.328H17.7809H16.9602C16.8235 14.8129 16.8235 14.8129 16.6867 14.8129C16.4132 14.677 16.2764 14.5411 16.2764 14.2693V14.1334V13.0463V12.2309C16.2764 12.095 16.2764 11.9591 16.2764 11.9591C16.2764 11.8232 16.2764 11.6873 16.4132 11.5514C16.5499 11.4155 16.5499 11.4155 16.8235 11.4155H16.9602H18.0544H19.1486C19.2854 11.4155 19.4222 11.4155 19.4222 11.4155C19.559 11.5514 19.6957 11.6873 19.8325 11.8232C19.8325 11.8232 19.8325 11.9591 19.8325 12.095C19.8325 12.9104 19.8325 13.5898 19.8325 14.4052C19.6957 14.4052 19.6957 14.4052 19.559 14.5411Z" fill="white"/>
<path d="M10.2594 23.51V22.9665V22.4229C10.2594 22.287 10.2594 22.1511 10.2594 22.0152C10.1226 21.6075 9.98581 21.1998 9.71226 20.9281C9.43871 20.6563 9.16516 20.6563 8.75484 20.5204C8.61806 20.5204 8.48129 20.5204 8.20774 20.5204H7.93419H7.66064H7.52387H7.3871C7.25032 20.5204 7.11355 20.5204 7.11355 20.5204C6.97677 20.5204 6.97677 20.5204 6.84 20.5204H6.56645H6.42968C6.2929 20.5204 6.2929 20.5204 6.15613 20.5204C6.01935 20.5204 6.01935 20.5204 5.88258 20.5204C5.60903 20.6563 5.33548 20.7922 5.06193 21.064C4.78839 21.3357 4.65161 21.7434 4.65161 22.1511C4.65161 22.287 4.65161 22.4229 4.65161 22.4229V22.5588V22.9665V23.3741V24.3254C4.65161 24.4613 4.65161 24.5972 4.65161 24.7331C4.78839 25.1407 4.92516 25.4125 5.19871 25.6843C5.47226 25.9561 5.88258 26.092 6.2929 26.092H6.84H7.11355H7.3871H8.34451C8.48129 26.092 8.61806 26.092 8.75484 26.092C8.89161 26.092 9.02839 26.092 9.02839 26.092C9.43871 25.9561 9.71226 25.8202 9.98581 25.4125C10.1226 25.1407 10.2594 24.869 10.2594 24.4613C10.2594 24.3254 10.2594 24.0536 10.2594 23.9177V23.51ZM9.16516 22.6947V23.9177V24.0536V24.3254V24.4613C9.16516 24.5972 9.16516 24.5972 9.16516 24.7331C9.02839 24.869 8.89161 25.0048 8.75484 25.1407C8.61806 25.1407 8.61806 25.1407 8.48129 25.1407H8.07097H6.2929C6.15613 25.1407 6.15613 25.1407 6.01935 25.1407C5.74581 25.0048 5.60903 24.869 5.60903 24.5972V24.4613V23.3741V22.9665V22.287C5.60903 22.1511 5.60903 22.1511 5.60903 22.0152C5.7458 21.8793 5.88258 21.7434 6.15613 21.7434H6.2929H6.70322H7.11355H7.25032H7.3871H7.52387H7.93419C8.20774 21.7434 8.20774 21.7434 8.34451 21.7434H8.48129C8.61806 21.7434 8.61806 21.7434 8.75484 21.7434C8.89161 21.8793 9.02839 22.0152 9.16516 22.1511C9.16516 22.287 9.16516 22.287 9.16516 22.4229C9.16516 22.5588 9.16516 22.5588 9.16516 22.6947Z" fill="white"/>
<path d="M17.2348 19.4327H17.098H16.4142H16.2774H16.1406V20.5198H16.2774H16.4142H17.098H17.2348V19.4327Z" fill="white"/>
<path d="M19.56 19.4327H19.4232H18.7394H18.6026H18.4658V20.5198H19.56V19.4327Z" fill="white"/>
<path d="M6.01818 17.1225H5.74463V18.2096H6.83882V17.1225H6.56527C6.56527 17.1225 6.4285 17.1225 6.29173 17.1225C6.29173 17.1225 6.15495 17.1225 6.01818 17.1225Z" fill="white"/>
<path d="M8.89023 17.1225H8.20635H8.06958V18.2096H9.16377V17.1225H8.89023Z" fill="white"/>
<path d="M11.7628 12.5022H11.4893V12.7739V13.4534V13.5893H11.7628H12.3099H12.7202V14.8123H12.857H13.5409H13.8144V14.5405V11.5509V11.415H13.5409H12.857H12.7202V11.5509V11.6868V12.5022H12.4467H11.7628Z" fill="white"/>
<path d="M10.3948 16.0348V16.1707V16.8501V17.1219H13.8141V18.2091H14.9083V18.0732V17.1219V16.8501V16.0348H14.7716H10.3948Z" fill="white"/>
<path d="M14.9083 20.3834V19.9757V19.7039V19.4321H12.5832V18.345H12.4464H11.7625H11.6257H11.489V19.4321H10.3948V19.568V19.7039V20.3834V20.5193H14.9083V20.3834Z" fill="white"/>
<path d="M11.7628 21.7429H11.4893V25.1402H12.5835V21.7429H12.4467H11.7628Z" fill="white"/>
<path d="M16.1396 22.9659H15.0454V24.0531H16.1396V22.9659Z" fill="white"/>
<path d="M7.93306 12.5021H6.83887V13.5893H7.93306V12.5021Z" fill="white"/>
<path d="M7.93306 18.345H6.83887V19.4321H7.93306V18.345Z" fill="white"/>
<path d="M17.2348 25.1402V25.0043C17.2348 24.8684 17.2348 24.5966 17.2348 24.4608V24.189H16.1406V24.4608C16.1406 24.5966 16.1406 25.0043 16.1406 25.0043V25.1402H17.2348Z" fill="white"/>
<path d="M18.4633 24.0531V22.9659H18.1898H17.5059H17.3691V23.1018V23.7813V24.0531H18.4633Z" fill="white"/>
<path d="M19.56 24.0536H18.4658V25.1407H19.56V24.0536Z" fill="white"/>
<path d="M18.4633 20.6562H17.3691V21.7434H18.4633V20.6562Z" fill="white"/>
<path d="M17.9176 18.345C17.7809 18.345 17.7809 18.345 17.7809 18.345H17.5073V19.4321H18.6015V19.2963V19.1604V18.8886V18.345H17.9176Z" fill="white"/>
<path d="M19.56 17.1225H18.4658V17.6661V18.2096H18.6026H18.7394H19.2865H19.4232V17.1225H19.56Z" fill="white"/>
<path d="M18.4633 12.5021H17.3691V13.5893H18.4633V12.5021Z" fill="white"/>
<path d="M7.93306 22.9659H6.83887V24.0531H7.93306V22.9659Z" fill="white"/>
<path d="M10.8064 3.66911L11.9006 2.58196V8.01768C11.9006 8.42536 12.1742 8.69714 12.5845 8.69714C12.9948 8.69714 13.2684 8.42536 13.2684 8.01768V2.58196L14.3626 3.66911C14.4993 3.805 14.6361 3.94089 14.9097 3.94089C15.0464 3.94089 15.32 3.805 15.4568 3.66911C15.5935 3.53321 15.7303 3.39732 15.7303 3.12554C15.7303 2.85375 15.7303 2.71786 15.5935 2.58196L13.2684 0.271786C13.2684 0.271786 13.1316 0.135893 12.9948 0.135893C12.858 0 12.858 0 12.7213 0H12.5845H12.4477L12.311 0.135893L9.71224 2.58196C9.43869 2.85375 9.43869 3.39732 9.71224 3.66911C9.98579 3.94089 10.5329 3.94089 10.8064 3.66911Z" fill="white"/>
</svg>