<svg xmlns="http://www.w3.org/2000/svg" width="30" height="30" viewBox="0 0 30 30" fill="none">
  <g clip-path="url(#clip0_73_1792)">
    <path d="M8.90625 3.28125H9.84375C9.96807 3.28125 10.0873 3.23186 10.1752 3.14396C10.2631 3.05605 10.3125 2.93682 10.3125 2.8125C10.3125 2.68818 10.2631 2.56895 10.1752 2.48104C10.0873 2.39314 9.96807 2.34375 9.84375 2.34375H8.90625C8.78193 2.34375 8.6627 2.39314 8.57479 2.48104C8.48689 2.56895 8.4375 2.68818 8.4375 2.8125C8.4375 2.93682 8.48689 3.05605 8.57479 3.14396C8.6627 3.23186 8.78193 3.28125 8.90625 3.28125Z" fill="#005097"/>
    <path d="M9.84375 26.7188H8.90625C8.78193 26.7188 8.6627 26.7681 8.57479 26.856C8.48689 26.944 8.4375 27.0632 8.4375 27.1875C8.4375 27.3118 8.48689 27.431 8.57479 27.519C8.6627 27.6069 8.78193 27.6562 8.90625 27.6562H9.84375C9.96807 27.6562 10.0873 27.6069 10.1752 27.519C10.2631 27.431 10.3125 27.3118 10.3125 27.1875C10.3125 27.0632 10.2631 26.944 10.1752 26.856C10.0873 26.7681 9.96807 26.7188 9.84375 26.7188Z" fill="#005097"/>
    <path d="M3.28125 12.1875H11.7188C11.8431 12.1875 11.9623 12.1381 12.0502 12.0502C12.1381 11.9623 12.1875 11.8431 12.1875 11.7188V6.09375C12.1875 5.96943 12.1381 5.8502 12.0502 5.76229C11.9623 5.67439 11.8431 5.625 11.7188 5.625H3.28125C3.15693 5.625 3.0377 5.67439 2.94979 5.76229C2.86189 5.8502 2.8125 5.96943 2.8125 6.09375V11.7188C2.8125 11.8431 2.86189 11.9623 2.94979 12.0502C3.0377 12.1381 3.15693 12.1875 3.28125 12.1875ZM3.75 11.25V6.96984L6.98016 9.12328C7.13412 9.22587 7.31499 9.28061 7.5 9.28061C7.68501 9.28061 7.86588 9.22587 8.01984 9.12328L11.25 6.96984V11.25H3.75ZM4.82812 6.5625H10.1719L7.5 8.34375L4.82812 6.5625Z" fill="#005097"/>
    <path d="M28.5938 18.75H23.3859C22.8767 18.7487 22.3746 18.63 21.9187 18.4031L21.6281 18.2578C21.041 17.9664 20.3946 17.814 19.7391 17.8125H14.0625C13.8339 17.8115 13.6137 17.7264 13.4438 17.5734C13.4071 17.5415 13.3726 17.507 13.3406 17.4703C13.2041 17.3052 13.1281 17.0985 13.125 16.8844C13.1263 16.7675 13.151 16.6522 13.1977 16.5451C13.2444 16.438 13.3121 16.3414 13.3969 16.2609C13.4942 16.1599 13.6106 16.0793 13.7393 16.0238C13.8681 15.9682 14.0066 15.9389 14.1469 15.9375H19.2188C19.4136 15.9372 19.6063 15.8964 19.7846 15.8178C19.9629 15.7392 20.123 15.6245 20.2547 15.4809C20.3864 15.3373 20.4869 15.1679 20.5499 14.9835C20.6128 14.799 20.6368 14.6035 20.6203 14.4094C20.5928 14.136 20.4858 13.8766 20.3125 13.6634C20.1393 13.4501 19.9073 13.2923 19.6453 13.2094L21.3188 10.3125H22.1203C22.4639 10.3123 22.8033 10.3878 23.1144 10.5336C23.4255 10.6794 23.7007 10.892 23.9203 11.1562L24.5766 11.9437C24.8846 12.3135 25.2701 12.611 25.706 12.8152C26.1418 13.0193 26.6172 13.1251 27.0984 13.125H28.5938C28.7181 13.125 28.8373 13.0756 28.9252 12.9877C29.0131 12.8998 29.0625 12.7806 29.0625 12.6562C29.0625 12.5319 29.0131 12.4127 28.9252 12.3248C28.8373 12.2369 28.7181 12.1875 28.5938 12.1875H27.0984C26.7548 12.1877 26.4154 12.1122 26.1043 11.9664C25.7932 11.8206 25.5181 11.608 25.2984 11.3438L24.6422 10.5563C24.3342 10.1865 23.9486 9.88895 23.5128 9.68481C23.077 9.48068 22.6016 9.37491 22.1203 9.375H21.8625L23.4703 6.59063C23.47 6.58808 23.4703 6.5855 23.4711 6.58307C23.4719 6.58064 23.4732 6.57841 23.475 6.57656L24.6375 4.56094C24.7606 4.34764 24.8405 4.11219 24.8726 3.86801C24.9047 3.62384 24.8885 3.37573 24.8247 3.13785C24.7609 2.89998 24.6509 2.67699 24.501 2.48162C24.351 2.28625 24.1641 2.12233 23.9508 1.99922C23.52 1.75058 23.0081 1.68324 22.5277 1.81203C22.0473 1.94081 21.6377 2.25517 21.3891 2.68594L20.2172 4.71563V4.72031L17.8125 8.88281V3.28125C17.8125 2.65965 17.5656 2.06351 17.126 1.62397C16.6865 1.18443 16.0904 0.9375 15.4688 0.9375H3.28125C2.65965 0.9375 2.06351 1.18443 1.62397 1.62397C1.18443 2.06351 0.9375 2.65965 0.9375 3.28125V26.7188C0.9375 27.3404 1.18443 27.9365 1.62397 28.376C2.06351 28.8156 2.65965 29.0625 3.28125 29.0625H15.4688C16.0904 29.0625 16.6865 28.8156 17.126 28.376C17.5656 27.9365 17.8125 27.3404 17.8125 26.7188V18.75H19.7391C20.2483 18.7513 20.7504 18.87 21.2063 19.0969L21.4969 19.2422C22.084 19.5336 22.7304 19.686 23.3859 19.6875H28.5938C28.7181 19.6875 28.8373 19.6381 28.9252 19.5502C29.0131 19.4623 29.0625 19.3431 29.0625 19.2188C29.0625 19.0944 29.0131 18.9752 28.9252 18.8873C28.8373 18.7994 28.7181 18.75 28.5938 18.75ZM13.2984 18.5766C13.5379 18.688 13.7984 18.7472 14.0625 18.75H15.3656L14.7281 19.8469L12.6656 21.5437L13.1062 18.9094L13.2984 18.5766ZM19.6875 14.4891C19.6931 14.5585 19.683 14.6283 19.6578 14.6932C19.6327 14.7582 19.5931 14.8166 19.5422 14.8641C19.5007 14.9079 19.4505 14.9427 19.3948 14.9661C19.3391 14.9895 19.2791 15.001 19.2188 15H18.6094L19.1531 14.0625H19.1672C19.2908 14.0587 19.4116 14.0999 19.5073 14.1783C19.6029 14.2567 19.6669 14.3671 19.6875 14.4891ZM22.2047 3.15469C22.2644 3.04662 22.3455 2.95182 22.443 2.87607C22.5405 2.80032 22.6524 2.7452 22.7719 2.71406C22.9515 2.66533 23.1416 2.67118 23.3179 2.73084C23.4942 2.7905 23.6487 2.90129 23.7618 3.0491C23.8749 3.1969 23.9415 3.37502 23.953 3.56078C23.9646 3.74654 23.9205 3.93153 23.8266 4.09219L22.8891 5.71406L21.2672 4.77656L22.2047 3.15469ZM20.7984 5.59219L22.4203 6.52969L17.5266 15H15.3609L20.7984 5.59219ZM16.0031 12.0141C16.0031 12.0187 16.0031 12.0187 15.9984 12.0187L14.2781 15H14.1469C13.6129 15.005 13.1024 15.2207 12.7266 15.6C12.5554 15.7691 12.4195 15.9706 12.327 16.1927C12.2344 16.4148 12.187 16.6531 12.1875 16.8938C12.1892 17.1154 12.2321 17.3347 12.3141 17.5406C12.1395 17.5884 11.9572 17.601 11.7777 17.5777C11.5983 17.5544 11.4253 17.4956 11.2688 17.4047C11.215 17.374 11.1678 17.3329 11.13 17.2838C11.0922 17.2347 11.0644 17.1786 11.0484 17.1187C11.0316 17.0601 11.0271 16.9986 11.0352 16.9381C11.0432 16.8776 11.0637 16.8194 11.0953 16.7672L13.9922 11.7234C14.239 11.2951 14.5941 10.9392 15.022 10.6915C15.4498 10.4438 15.9353 10.3131 16.4297 10.3125H16.9875L16.0031 12.0141ZM1.875 3.28125C1.87611 2.90863 2.02463 2.55159 2.28811 2.28811C2.55159 2.02463 2.90863 1.87611 3.28125 1.875H15.4688C15.8414 1.87611 16.1984 2.02463 16.4619 2.28811C16.7254 2.55159 16.8739 2.90863 16.875 3.28125V3.75H1.875V3.28125ZM16.875 26.7188C16.8739 27.0914 16.7254 27.4484 16.4619 27.7119C16.1984 27.9754 15.8414 28.1239 15.4688 28.125H3.28125C2.90863 28.1239 2.55159 27.9754 2.28811 27.7119C2.02463 27.4484 1.87611 27.0914 1.875 26.7188V26.25H16.875V26.7188ZM16.875 25.3125H1.875V4.6875H16.875V9.375H16.4297C15.7704 9.37631 15.123 9.55059 14.5521 9.88043C13.9813 10.2103 13.5069 10.6841 13.1766 11.2547L10.2797 16.2984C10.1874 16.4578 10.1278 16.6341 10.1045 16.8168C10.0811 16.9995 10.0945 17.185 10.1437 17.3625C10.1913 17.5416 10.2738 17.7096 10.3864 17.8568C10.499 18.004 10.6396 18.1275 10.8 18.2203C11.1541 18.4227 11.5547 18.5293 11.9625 18.5297C12.0597 18.5305 12.1568 18.5242 12.2531 18.5109L12.2484 18.5156C12.22 18.5648 12.201 18.6189 12.1922 18.675L11.5359 22.6266C11.5217 22.7208 11.536 22.8171 11.5769 22.9031C11.6178 22.9892 11.6836 23.061 11.7656 23.1094C11.8371 23.1497 11.9179 23.1707 12 23.1703C12.1094 23.1696 12.2152 23.1315 12.3 23.0625L15.3938 20.5172C15.4369 20.4818 15.4735 20.4389 15.5016 20.3906L16.4484 18.75H16.875V25.3125Z" fill="#005097"/>
    <path d="M11.7187 23.4375H9.74105L9.68386 23.2083C9.62924 22.9896 9.52286 22.7873 9.37368 22.6183C9.22451 22.4493 9.0369 22.3187 8.82667 22.2374C8.61645 22.1561 8.38977 22.1266 8.16573 22.1512C7.94168 22.1759 7.72685 22.254 7.53933 22.3791L6.97026 22.7583C7.09571 22.3653 7.06824 21.9395 6.89333 21.566C6.71842 21.1924 6.40897 20.8987 6.02684 20.7434C5.64471 20.5881 5.21805 20.5828 4.83216 20.7285C4.44627 20.8742 4.12959 21.1601 3.94542 21.5292L2.86167 23.6967C2.83415 23.7518 2.81776 23.8118 2.81342 23.8732C2.80908 23.9346 2.81689 23.9963 2.83639 24.0547C2.87577 24.1727 2.9604 24.2702 3.07167 24.3258C3.18294 24.3814 3.31172 24.3904 3.42969 24.3511C3.54767 24.3117 3.64516 24.227 3.70073 24.1158L4.78448 21.9483C4.86379 21.7903 4.99992 21.6682 5.16555 21.6065C5.33118 21.5448 5.51403 21.548 5.67737 21.6155C5.84071 21.6831 5.97244 21.8099 6.0461 21.9706C6.11977 22.1313 6.1299 22.3139 6.07448 22.4817L5.64886 23.7581C5.61839 23.8506 5.61746 23.9502 5.64619 24.0432C5.67491 24.1362 5.73187 24.2179 5.80917 24.2771C5.88646 24.3362 5.98025 24.3699 6.07752 24.3733C6.17478 24.3767 6.27071 24.3498 6.35198 24.2963L8.05729 23.1591C8.11981 23.1174 8.19144 23.0913 8.26613 23.0831C8.34082 23.0749 8.41638 23.0848 8.48646 23.1119C8.55654 23.139 8.61907 23.1826 8.66879 23.2389C8.71851 23.2953 8.75395 23.3627 8.77214 23.4356L8.91839 24.0202C8.94386 24.1218 9.00267 24.212 9.08544 24.2764C9.1682 24.3407 9.27013 24.3754 9.37495 24.375H11.7187C11.843 24.375 11.9623 24.3256 12.0502 24.2377C12.1381 24.1498 12.1875 24.0306 12.1875 23.9063C12.1875 23.7819 12.1381 23.6627 12.0502 23.5748C11.9623 23.4869 11.843 23.4375 11.7187 23.4375Z" fill="#005097"/>
    <path d="M3.28125 14.0625H10.7812C10.9056 14.0625 11.0248 14.0131 11.1127 13.9252C11.2006 13.8373 11.25 13.7181 11.25 13.5938C11.25 13.4694 11.2006 13.3502 11.1127 13.2623C11.0248 13.1744 10.9056 13.125 10.7812 13.125H3.28125C3.15693 13.125 3.0377 13.1744 2.94979 13.2623C2.86189 13.3502 2.8125 13.4694 2.8125 13.5938C2.8125 13.7181 2.86189 13.8373 2.94979 13.9252C3.0377 14.0131 3.15693 14.0625 3.28125 14.0625Z" fill="#005097"/>
    <path d="M3.28125 15.9375H8.90625C9.03057 15.9375 9.1498 15.8881 9.23771 15.8002C9.32561 15.7123 9.375 15.5931 9.375 15.4688C9.375 15.3444 9.32561 15.2252 9.23771 15.1373C9.1498 15.0494 9.03057 15 8.90625 15H3.28125C3.15693 15 3.0377 15.0494 2.94979 15.1373C2.86189 15.2252 2.8125 15.3444 2.8125 15.4688C2.8125 15.5931 2.86189 15.7123 2.94979 15.8002C3.0377 15.8881 3.15693 15.9375 3.28125 15.9375Z" fill="#005097"/>
    <path d="M3.28125 17.8125H8.90625C9.03057 17.8125 9.1498 17.7631 9.23771 17.6752C9.32561 17.5873 9.375 17.4681 9.375 17.3438C9.375 17.2194 9.32561 17.1002 9.23771 17.0123C9.1498 16.9244 9.03057 16.875 8.90625 16.875H3.28125C3.15693 16.875 3.0377 16.9244 2.94979 17.0123C2.86189 17.1002 2.8125 17.2194 2.8125 17.3438C2.8125 17.4681 2.86189 17.5873 2.94979 17.6752C3.0377 17.7631 3.15693 17.8125 3.28125 17.8125Z" fill="#005097"/>
    <path d="M3.28125 19.6875H10.7812C10.9056 19.6875 11.0248 19.6381 11.1127 19.5502C11.2006 19.4623 11.25 19.3431 11.25 19.2188C11.25 19.0944 11.2006 18.9752 11.1127 18.8873C11.0248 18.7994 10.9056 18.75 10.7812 18.75H3.28125C3.15693 18.75 3.0377 18.7994 2.94979 18.8873C2.86189 18.9752 2.8125 19.0944 2.8125 19.2188C2.8125 19.3431 2.86189 19.4623 2.94979 19.5502C3.0377 19.6381 3.15693 19.6875 3.28125 19.6875Z" fill="#005097"/>
    <path d="M13.5938 6.5625H15.4688C15.5931 6.5625 15.7123 6.51311 15.8002 6.42521C15.8881 6.3373 15.9375 6.21807 15.9375 6.09375C15.9375 5.96943 15.8881 5.8502 15.8002 5.76229C15.7123 5.67439 15.5931 5.625 15.4688 5.625H13.5938C13.4694 5.625 13.3502 5.67439 13.2623 5.76229C13.1744 5.8502 13.125 5.96943 13.125 6.09375C13.125 6.21807 13.1744 6.3373 13.2623 6.42521C13.3502 6.51311 13.4694 6.5625 13.5938 6.5625Z" fill="#005097"/>
    <path d="M13.5938 8.4375H15.4688C15.5931 8.4375 15.7123 8.38811 15.8002 8.30021C15.8881 8.2123 15.9375 8.09307 15.9375 7.96875C15.9375 7.84443 15.8881 7.7252 15.8002 7.63729C15.7123 7.54939 15.5931 7.5 15.4688 7.5H13.5938C13.4694 7.5 13.3502 7.54939 13.2623 7.63729C13.1744 7.7252 13.125 7.84443 13.125 7.96875C13.125 8.09307 13.1744 8.2123 13.2623 8.30021C13.3502 8.38811 13.4694 8.4375 13.5938 8.4375Z" fill="#005097"/>
  </g>
  <defs>
    <clipPath id="clip0_73_1792">
      <rect width="30" height="30" fill="white"/>
    </clipPath>
  </defs>
</svg>