<svg xmlns="http://www.w3.org/2000/svg" width="22" height="22" viewBox="0 0 22 22" fill="none">
<path d="M1.5 19.252H5.00002V10.752L2.70815 6.75L0 7.00201V17.752C0 18.5808 0.671258 19.252 1.5 19.252Z" fill="#0085F7"/>
<path d="M17 19.252H20.5C21.3288 19.252 22 18.5808 22 17.752V7.00201L19.2958 6.75L17 10.752V19.252H17Z" fill="#00A94B"/>
<path d="M17 4.25201L14.9441 8.17519L17 10.752L22 7.00201V5.00203C22 3.14828 19.8838 2.08953 18.4 3.20203L17 4.25201Z" fill="#FFBC00"/>
<path fill-rule="evenodd" clip-rule="evenodd" d="M5.00009 10.752L3.04102 6.61371L5.00009 4.25201L11.0001 8.752L17.0001 4.25201V10.752L11.0001 15.252L5.00009 10.752Z" fill="#FF4131"/>
<path d="M0 5.00203V7.00201L5.00002 10.752V4.25201L3.60001 3.20203C2.11625 2.08953 0 3.14828 0 5.00203Z" fill="#E51C19"/>
</svg>