<svg xmlns="http://www.w3.org/2000/svg" width="25" height="25" viewBox="0 0 25 25" fill="none">
  <g clip-path="url(#clip0_194_1008)">
    <path d="M21.1207 5.17241C20.4065 5.17241 19.8275 4.59346 19.8275 3.8793V0H8.1896C7.47544 0 6.89648 0.578955 6.89648 1.29312V4.31035H17.6724C18.1485 4.31035 18.5344 4.69634 18.5344 5.17241V11.2069C18.5344 11.683 18.1485 12.0689 17.6724 12.0689H6.89648V23.7069C6.89648 24.421 7.47544 25 8.1896 25H23.7068C24.421 25 25 24.421 25 23.7069V5.17241H21.1207ZM13.6667 20.816C13.8351 20.9843 13.8351 21.2571 13.6667 21.4255C13.5826 21.5097 13.4723 21.5517 13.362 21.5517C13.2517 21.5517 13.1414 21.5096 13.0573 21.4254L10.471 18.8392C10.3027 18.6708 10.3027 18.398 10.471 18.2297L13.0573 15.6435C13.2256 15.4751 13.4984 15.4751 13.6668 15.6435C13.8352 15.8118 13.8352 16.0846 13.6668 16.253L11.3854 18.5344L13.6667 20.816ZM17.645 15.2377L15.0587 22.1343C14.9937 22.3072 14.8295 22.4138 14.6551 22.4138C14.6047 22.4138 14.5536 22.4049 14.5037 22.3864C14.2808 22.3026 14.1678 22.0542 14.2513 21.8312L16.8376 14.9346C16.9213 14.7119 17.1697 14.6 17.3926 14.6825C17.6155 14.7663 17.7286 15.0146 17.645 15.2377ZM21.4254 18.8392L18.8392 21.4254C18.755 21.5097 18.6447 21.5517 18.5344 21.5517C18.4241 21.5517 18.3138 21.5096 18.2297 21.4254C18.0613 21.2571 18.0613 20.9843 18.2297 20.8159L20.5111 18.5345L18.2297 16.2531C18.0613 16.0847 18.0613 15.8119 18.2297 15.6436C18.398 15.4752 18.6709 15.4752 18.8392 15.6436L21.4254 18.2298C21.5938 18.3981 21.5938 18.6708 21.4254 18.8392Z" fill="#E4EAF6"/>
    <path d="M21.1208 5.17241H25L19.8276 0V3.8793C19.8276 4.59346 20.4066 5.17241 21.1208 5.17241Z" fill="#D2DCF0"/>
    <path d="M18.5345 11.2069V5.17242C18.5345 4.69635 18.1485 4.31036 17.6724 4.31036H6.89653H0.86206C0.385937 4.31036 0 4.69635 0 5.17242V11.2069C0 11.683 0.385937 12.069 0.86206 12.069H6.89653H17.6724C18.1485 12.069 18.5345 11.683 18.5345 11.2069ZM5.17241 9.91378C5.17241 10.152 4.97939 10.3448 4.74136 10.3448C4.50332 10.3448 4.3103 10.1521 4.3103 9.91378V9.05172H2.15518V9.91378C2.15518 10.152 1.96216 10.3448 1.72412 10.3448C1.48608 10.3448 1.29307 10.1521 1.29307 9.91378V6.46549C1.29307 6.22726 1.48608 6.03444 1.72412 6.03444C1.96216 6.03444 2.15518 6.22721 2.15518 6.46549V8.18961H4.31035V6.46549C4.31035 6.22726 4.50337 6.03444 4.74141 6.03444C4.97944 6.03444 5.17246 6.22721 5.17246 6.46549L5.17241 9.91378ZM8.6207 6.89654H7.75864V9.91378C7.75864 10.152 7.56562 10.3448 7.32759 10.3448C7.08955 10.3448 6.89653 10.1521 6.89653 9.91378V6.89654H6.03447C5.79643 6.89654 5.60342 6.70377 5.60342 6.46549C5.60342 6.22726 5.79643 6.03444 6.03447 6.03444H8.6207C8.85874 6.03444 9.05176 6.22721 9.05176 6.46549C9.05171 6.70377 8.85874 6.89654 8.6207 6.89654ZM13.3621 9.91378C13.3621 10.152 13.169 10.3448 12.931 10.3448C12.693 10.3448 12.5 10.1521 12.5 9.91378V8.02169L12.0075 8.84249C11.9296 8.97213 11.7893 9.05172 11.6379 9.05172H11.2068C11.0555 9.05172 10.9151 8.97213 10.8373 8.84249L10.3447 8.02169V9.91378C10.3447 10.152 10.1517 10.3448 9.91367 10.3448C9.67563 10.3448 9.48262 10.1521 9.48262 9.91378V6.46549C9.48262 6.27184 9.61182 6.10182 9.79853 6.05001C9.98603 5.99908 10.1836 6.0778 10.2833 6.24366L11.4223 8.14205L12.5614 6.24366C12.6609 6.07697 12.8586 5.99869 13.0461 6.05001C13.2328 6.10177 13.362 6.27184 13.362 6.46549V9.91378H13.3621ZM16.8104 10.3448H14.6552C14.4171 10.3448 14.2241 10.1521 14.2241 9.91378V6.46549C14.2241 6.22726 14.4171 6.03444 14.6552 6.03444C14.8932 6.03444 15.0862 6.22721 15.0862 6.46549V9.48273H16.8104C17.0484 9.48273 17.2414 9.6755 17.2414 9.91378C17.2414 10.1521 17.0484 10.3448 16.8104 10.3448Z" fill="#FF694B"/>
    <path d="M4.74126 6.03461C4.50322 6.03461 4.3102 6.22738 4.3102 6.46566V8.18978H2.15508V6.46566C2.15508 6.22743 1.96206 6.03461 1.72402 6.03461C1.48599 6.03461 1.29297 6.22738 1.29297 6.46566V9.91395C1.29297 10.1522 1.48599 10.345 1.72402 10.345C1.96206 10.345 2.15508 10.1522 2.15508 9.91395V9.05189H4.31025V9.91395C4.31025 10.1522 4.50327 10.345 4.74131 10.345C4.97935 10.345 5.17236 10.1522 5.17236 9.91395V6.46566C5.17231 6.22738 4.9793 6.03461 4.74126 6.03461Z" fill="white"/>
    <path d="M13.0461 6.05005C12.8586 5.99868 12.661 6.077 12.5614 6.2437L11.4224 8.14209L10.2833 6.2437C10.1837 6.07788 9.98608 5.99912 9.79858 6.05005C9.61191 6.10181 9.48267 6.27188 9.48267 6.46553V9.91382C9.48267 10.1521 9.67568 10.3449 9.91372 10.3449C10.1518 10.3449 10.3448 10.1521 10.3448 9.91382V8.02173L10.8373 8.84253C10.9151 8.97217 11.0556 9.05176 11.2069 9.05176H11.6379C11.7893 9.05176 11.9296 8.97217 12.0075 8.84253L12.5 8.02173V9.91382C12.5 10.1521 12.693 10.3449 12.931 10.3449C13.169 10.3449 13.3621 10.1521 13.3621 9.91382V6.46553C13.362 6.27188 13.2328 6.10186 13.0461 6.05005Z" fill="white"/>
    <path d="M8.6208 6.03448H6.03457C5.79653 6.03448 5.60352 6.22726 5.60352 6.46554C5.60352 6.70377 5.79653 6.89659 6.03457 6.89659H6.89663V9.91383C6.89663 10.1521 7.08965 10.3449 7.32769 10.3449C7.56572 10.3449 7.75874 10.1521 7.75874 9.91383V6.89659H8.6208C8.85884 6.89659 9.05186 6.70382 9.05186 6.46554C9.05181 6.22726 8.85884 6.03448 8.6208 6.03448Z" fill="white"/>
    <path d="M16.8104 9.48278H15.0862V6.46554C15.0862 6.22731 14.8932 6.03448 14.6552 6.03448C14.4171 6.03448 14.2241 6.22726 14.2241 6.46554V9.91383C14.2241 10.1521 14.4171 10.3449 14.6552 10.3449H16.8104C17.0484 10.3449 17.2414 10.1521 17.2414 9.91383C17.2414 9.67555 17.0484 9.48278 16.8104 9.48278Z" fill="white"/>
    <path d="M17.3927 14.6825C17.1698 14.6 16.9214 14.712 16.8376 14.9347L14.2514 21.8312C14.1679 22.0543 14.2809 22.3026 14.5038 22.3864C14.5537 22.405 14.6048 22.4138 14.6552 22.4138C14.8296 22.4138 14.9938 22.3073 15.0588 22.1343L17.6451 15.2377C17.7286 15.0146 17.6155 14.7663 17.3927 14.6825Z" fill="#FF694B"/>
    <path d="M13.6667 15.6435C13.4984 15.4752 13.2256 15.4752 13.0572 15.6435L10.471 18.2298C10.3026 18.3981 10.3026 18.6709 10.471 18.8393L13.0572 21.4255C13.1415 21.5098 13.2517 21.5518 13.362 21.5518C13.4723 21.5518 13.5826 21.5097 13.6667 21.4255C13.8351 21.2572 13.8351 20.9844 13.6667 20.816L11.3854 18.5346L13.6668 16.2531C13.8352 16.0847 13.8352 15.8119 13.6667 15.6435Z" fill="#FF694B"/>
    <path d="M18.8391 15.6435C18.6707 15.4752 18.3979 15.4752 18.2295 15.6435C18.0612 15.8119 18.0612 16.0847 18.2295 16.2531L20.511 18.5345L18.2296 20.8159C18.0612 20.9843 18.0612 21.2571 18.2296 21.4254C18.3138 21.5097 18.424 21.5517 18.5343 21.5517C18.6446 21.5517 18.7549 21.5096 18.8391 21.4254L21.4253 18.8392C21.5937 18.6708 21.5937 18.398 21.4253 18.2297L18.8391 15.6435Z" fill="#FF694B"/>
  </g>
  <defs>
    <clipPath id="clip0_194_1008">
      <rect width="25" height="25" fill="white"/>
    </clipPath>
  </defs>
</svg>