<svg xmlns="http://www.w3.org/2000/svg" width="20" height="20" viewBox="0 0 20 20" fill="none">
  <path d="M1.60293 16.2551L6.03993 13.2761C6.75093 12.7991 7.77693 12.8531 8.41593 13.4021L8.71293 13.6631C9.41493 14.2661 10.5489 14.2661 11.2509 13.6631L14.9949 10.4501C15.6969 9.84705 16.8309 9.84705 17.5329 10.4501L18.9999 11.7101M7.3 19H12.7C17.2 19 19 17.2 19 12.7V7.3C19 2.8 17.2 1 12.7 1H7.3C2.8 1 1 2.8 1 7.3V12.7C1 17.2 2.8 19 7.3 19ZM9.1 6.4C9.1 7.39411 8.29411 8.2 7.3 8.2C6.30589 8.2 5.5 7.39411 5.5 6.4C5.5 5.40589 6.30589 4.6 7.3 4.6C8.29411 4.6 9.1 5.40589 9.1 6.4Z" stroke="black" stroke-width="1.5" stroke-linecap="round" stroke-linejoin="round"/>
</svg>