<svg xmlns="http://www.w3.org/2000/svg" width="24" height="24" viewBox="0 0 24 24" fill="none">
  <path d="M9.60496 20.9274C9.58651 20.909 9.56806 20.8998 9.55883 20.8721C9.55883 20.8628 9.5496 20.8536 9.5496 20.8444C9.3743 20.8444 9.19899 20.8352 9.03291 20.8352C8.8576 20.8259 8.69152 20.8259 8.51622 20.8167C7.77808 20.7798 7.03995 20.6968 6.3295 20.4384C6.06192 20.3369 5.79435 20.2354 5.54523 20.0878C5.45296 20.0324 5.36992 19.9771 5.27766 19.9217C5.26843 19.9586 5.24075 19.9678 5.20384 19.9771C5.19462 19.9771 5.18539 19.9771 5.17616 19.9863C4.35499 20.1708 3.61685 20.5584 2.97099 21.0935C2.4912 21.481 2.09445 21.9516 1.77152 22.4776C1.75307 22.5052 1.73461 22.5329 1.69771 22.5329C2.11291 22.9297 2.58347 23.2434 3.11862 23.4648C3.12784 23.3172 3.23856 23.2249 3.31238 23.1234C3.6999 22.616 4.17046 22.2192 4.74251 21.9424C5.1208 21.7579 5.51755 21.6379 5.94198 21.5918C6.68011 21.5087 7.39056 21.6195 8.05488 21.9516C8.55312 22.2007 8.97755 22.5421 9.33739 22.9666C9.55883 23.2342 9.74336 23.5202 9.90022 23.8155C9.9279 23.8708 9.94635 23.9262 9.96481 23.9815C10.5461 23.9815 11.1274 23.9815 11.7179 23.9815C11.5057 23.2342 11.1458 22.5606 10.6753 21.9516C10.3523 21.5641 10.0017 21.2227 9.60496 20.9274Z" fill="#FEB54E"/>
  <path d="M9.32816 22.9758C8.96832 22.5514 8.5439 22.21 8.04566 21.9608C7.38134 21.6287 6.67088 21.518 5.93275 21.601C5.50832 21.6471 5.11158 21.7671 4.73328 21.9516C4.16123 22.2284 3.68144 22.6252 3.30315 23.1327C3.22933 23.2342 3.11861 23.3264 3.10939 23.4741C3.13707 23.4833 3.16475 23.5017 3.1832 23.511C3.94902 23.8431 4.77019 23.9354 5.59136 23.9723C5.98811 23.9908 6.39408 23.9815 6.80006 23.9815C6.83696 23.9815 6.8831 23.9723 6.92 24C7.93494 24 8.94064 24 9.95558 24C9.94635 23.9446 9.91867 23.8893 9.89099 23.8339C9.73414 23.5202 9.5496 23.2342 9.32816 22.9758Z" fill="#FECE52"/>
  <path d="M15.1041 21.3334C15.0487 21.2042 14.9933 21.0843 14.9288 20.9643C14.9103 20.9367 14.9011 20.909 14.8918 20.8721C14.8918 20.8628 14.8918 20.8536 14.8918 20.8352C14.6058 20.8352 14.329 20.8444 14.043 20.8444C13.6093 20.8444 13.1757 20.8444 12.742 20.8536C12.742 20.8628 12.742 20.8721 12.742 20.8905C12.7513 20.9182 12.7697 20.9459 12.7882 20.9736C13.231 21.6379 13.554 22.3484 13.8031 23.105C13.8861 23.3633 13.9507 23.6309 14.0153 23.8893C14.0245 23.917 14.0245 23.9539 14.0245 23.9908C14.6427 23.9908 15.2609 23.9908 15.8883 23.9908C15.8699 23.797 15.8237 23.6125 15.7868 23.4279C15.63 22.7082 15.3901 22.0162 15.1041 21.3334Z" fill="#FE7343"/>
  <path d="M11.8286 21.0012C11.8101 20.9828 11.7917 20.9551 11.7825 20.9367C11.7732 20.9274 11.7732 20.909 11.7732 20.8998C11.7732 20.8905 11.7732 20.8721 11.7732 20.8536C11.4503 20.8536 11.1274 20.8536 10.8044 20.8444C10.3892 20.8444 9.97403 20.8444 9.55883 20.8444C9.55883 20.8536 9.55883 20.8628 9.56806 20.8721C9.57728 20.8905 9.59574 20.909 9.61419 20.9274C10.0109 21.2227 10.3616 21.5641 10.6568 21.9608C11.1274 22.5698 11.4872 23.2434 11.6994 23.9908C12.2069 23.9908 12.7144 23.9908 13.231 23.9908C13.1388 23.5848 13.0188 23.188 12.862 22.8097C12.5944 22.1546 12.253 21.5549 11.8286 21.0012Z" fill="#FE9B4A"/>
  <path d="M16.6726 23.9631C16.7095 23.9631 16.7556 23.9631 16.7925 23.9631C16.728 23.6032 16.6634 23.2434 16.5711 22.8835C16.405 22.2192 16.1836 21.5733 15.9068 20.9459C15.8976 20.9182 15.8883 20.8998 15.8791 20.8721C15.8699 20.8444 15.8606 20.8167 15.8699 20.789C15.5469 20.8075 15.224 20.8167 14.8918 20.8352C14.8918 20.8444 14.8918 20.8536 14.8918 20.8721C14.9011 20.909 14.9103 20.9367 14.9288 20.9643C14.9841 21.0843 15.0487 21.2135 15.1041 21.3334C15.3901 22.007 15.6392 22.699 15.7868 23.4279C15.8237 23.6125 15.8791 23.797 15.8883 23.9908C16.0452 23.9908 16.202 23.9908 16.3497 23.9908C16.4512 23.9446 16.5619 23.9815 16.6726 23.9631Z" fill="#FE6641"/>
  <path d="M13.8031 23.105C13.554 22.3484 13.231 21.6379 12.7882 20.9736C12.7697 20.9459 12.7513 20.9182 12.742 20.8905C12.742 20.8813 12.742 20.8721 12.742 20.8536C12.576 20.8444 12.4191 20.8444 12.253 20.8444C12.0869 20.8444 11.9301 20.8444 11.764 20.8536C11.764 20.8721 11.764 20.8813 11.764 20.8998C11.764 20.909 11.7732 20.9274 11.7732 20.9367C11.7825 20.9643 11.8009 20.9828 11.8194 21.0012C12.2438 21.5549 12.5852 22.1546 12.8528 22.8005C13.0096 23.188 13.1388 23.5756 13.2218 23.9815C13.4894 23.9815 13.757 23.9815 14.0153 23.9815C14.0153 23.9446 14.0153 23.917 14.0061 23.88C13.9507 23.6309 13.8861 23.3633 13.8031 23.105Z" fill="#FE8C47"/>
  <path d="M16.7925 23.9631C16.7556 23.9631 16.7095 23.9631 16.6726 23.9631C16.5619 23.9723 16.4512 23.9354 16.3497 23.9815C16.7925 23.9815 17.2354 23.9815 17.6783 23.9815C17.6783 23.9723 17.6783 23.9723 17.6783 23.9631C17.383 23.9723 17.0878 23.9631 16.7925 23.9631Z" fill="#FE8C47"/>
  <path d="M17.6783 23.9723C17.6783 23.9815 17.6783 23.9815 17.6783 23.9908C17.909 23.9908 18.1396 23.9908 18.3611 23.9908C18.3611 23.9815 18.3611 23.9815 18.3518 23.9723C18.3057 23.9723 18.2596 23.9723 18.2227 23.9723C18.1027 23.9723 17.992 23.9723 17.8721 23.9723C17.8075 23.9631 17.7429 23.9723 17.6783 23.9723Z" fill="#FEB54E"/>
  <path d="M3.34005 3.00873C3.72757 2.94414 4.12432 2.89801 4.51184 2.87033C4.82555 2.84265 5.13926 2.82419 5.45296 2.80574C6.01579 2.76883 6.57862 2.78729 7.14144 2.79651C7.50128 2.80574 7.86112 2.83342 8.21174 2.87033C8.59926 2.90724 8.98678 2.95337 9.36507 3.00873C9.50347 3.02719 9.6511 3.05487 9.7895 3.08255C9.80795 3.08255 9.83563 3.09177 9.85408 3.101C9.86331 3.11023 9.87254 3.11946 9.87254 3.14714C10.0755 3.14714 10.2877 3.14714 10.4907 3.14714C11.4872 3.14714 12.4837 3.14714 13.4802 3.14714C14.2829 3.14714 15.0764 3.16559 15.8791 3.21172C16.7925 3.26709 17.6783 3.46085 18.4718 3.94065C19.5882 4.61422 20.2802 5.6015 20.5847 6.85636C20.7047 7.35462 20.7692 7.8621 20.7877 8.37881C20.7877 8.48953 20.7969 8.59103 20.8061 8.70175C20.9076 8.74788 20.9907 8.83093 21.0645 8.91397C21.1383 8.99701 21.2121 9.08005 21.2952 9.15387C21.7011 9.55985 22.0794 9.99352 22.4393 10.4364C22.9467 11.0454 23.4081 11.682 23.8602 12.3279C23.8879 12.3741 23.9155 12.4202 23.9801 12.4202C23.9801 12.3741 23.9801 12.3279 23.9801 12.291C23.9801 11.1469 23.9801 9.99352 23.9709 8.84938C23.9617 7.67756 23.9893 6.51497 23.9524 5.34315C23.9432 4.99252 23.8971 4.65113 23.8417 4.30973C23.7495 3.78379 23.5741 3.29477 23.3343 2.82419C23.039 2.25212 22.6515 1.7631 22.1625 1.34789C21.738 0.978808 21.2675 0.692773 20.7508 0.480554C20.0957 0.212973 19.4037 0.102249 18.6932 0.0561148C18.4072 0.0376609 18.1212 0.0561148 17.8352 0.0376609C17.3277 -0.00847371 16.8018 0.000753219 16.2851 0.000753219C12.862 0.000753219 9.44811 0.00998015 6.02502 0.00998015C5.50832 0.00998015 5.00086 0.0376609 4.49339 0.120703C3.15552 0.332923 2.04832 0.923446 1.19947 1.98454C0.784267 2.50125 0.479787 3.07332 0.30448 3.70998C0.60896 3.62694 0.922667 3.54389 1.22715 3.46085C1.91915 3.26709 2.6296 3.11946 3.34005 3.00873Z" fill="#C737AA"/>
  <path d="M22.836 18.0948C22.5961 17.495 22.3193 16.9137 22.0241 16.3416C21.7473 15.8157 21.452 15.299 21.1199 14.8007C21.046 14.69 20.9722 14.5885 20.9076 14.4778C20.8984 14.4686 20.8892 14.4594 20.88 14.4501C20.8707 14.4409 20.8615 14.4409 20.8431 14.4409C20.8246 14.8469 20.8154 15.2529 20.7969 15.6681C20.7692 16.3509 20.6677 17.0244 20.4279 17.6796C20.4186 17.6888 20.4186 17.7072 20.4186 17.7257C20.474 17.7257 20.4832 17.7718 20.5017 17.8087C20.7969 18.4085 21.0553 19.0359 21.2859 19.6633C21.5166 20.3 21.7011 20.9367 21.858 21.5918C21.941 21.9332 22.0148 22.2838 22.0702 22.6344C22.0794 22.6621 22.0886 22.6898 22.0979 22.7175C22.43 22.4406 22.7253 22.1269 22.9744 21.7763C23.2697 21.3611 23.5003 20.9182 23.648 20.4292C23.5465 20.3369 23.5557 20.2077 23.5188 20.097C23.325 19.4234 23.1036 18.7499 22.836 18.0948Z" fill="#E34674"/>
  <path d="M3.02635 4.57731C3.52459 4.48504 4.02283 4.41123 4.52107 4.36509C4.54875 4.36509 4.58566 4.35586 4.61334 4.35586C4.7056 4.34664 4.79787 4.34664 4.89014 4.35586C5.17616 4.11596 5.48064 3.9222 5.8128 3.75611C6.13574 3.59926 6.48635 3.47008 6.84619 3.38704C7.30752 3.26709 7.77808 3.21172 8.24864 3.19327C8.79302 3.17482 9.33739 3.14714 9.88176 3.12868C9.88176 3.11023 9.87254 3.09178 9.86331 3.08255C9.84486 3.06409 9.81718 3.06409 9.79872 3.06409C9.66032 3.03641 9.52192 3.01796 9.3743 2.99028C8.98678 2.93492 8.60848 2.88878 8.22096 2.85187C7.86112 2.81497 7.50128 2.77806 7.15067 2.77806C6.58784 2.76883 6.02502 2.75038 5.46219 2.78729C5.14848 2.80574 4.83478 2.83342 4.52107 2.85187C4.12432 2.87956 3.7368 2.93492 3.34928 2.99028C2.63883 3.101 1.92837 3.24863 1.23637 3.4424C0.931894 3.52544 0.618187 3.60848 0.313707 3.69153C0.147627 4.23591 0.0738134 4.78953 0.0461334 5.35237C0.202987 5.32469 0.350613 5.2601 0.507467 5.20474C1.32864 4.94639 2.16827 4.73417 3.02635 4.57731Z" fill="#CE3A9E"/>
  <path d="M23.9063 16.9322C23.6203 16.2771 23.3066 15.6496 22.956 15.0222C22.6699 14.5239 22.3655 14.0257 22.0425 13.5459C21.7011 13.0476 21.3321 12.5586 20.963 12.088C20.9538 12.0788 20.9538 12.0696 20.9445 12.0604C20.9353 12.0419 20.9169 12.0327 20.8984 12.0234C20.8892 12.0234 20.88 12.0142 20.8707 12.0142C20.8707 12.208 20.8707 12.411 20.8615 12.6047C20.8615 13.2137 20.8523 13.8135 20.8523 14.4224C20.8707 14.4224 20.88 14.4317 20.8892 14.4317C20.8984 14.4409 20.9076 14.4501 20.9169 14.4594C20.9907 14.5701 21.0553 14.6716 21.1291 14.7823C21.4612 15.2806 21.7565 15.7973 22.0333 16.3232C22.3285 16.8953 22.6053 17.4766 22.8452 18.0763C23.1128 18.7314 23.3343 19.3958 23.5372 20.0693C23.5741 20.1801 23.5649 20.3092 23.6664 20.4015C23.7956 20.0878 23.8509 19.7556 23.9063 19.4142C24.0355 18.6115 23.9893 17.7995 23.9893 16.9875C23.934 17.0152 23.9248 16.9691 23.9063 16.9322Z" fill="#DA4186"/>
  <path d="M21.8672 21.5918C21.7104 20.9367 21.5166 20.2908 21.2952 19.6633C21.0645 19.0267 20.8061 18.4085 20.5109 17.8087C20.4924 17.7718 20.4832 17.7349 20.4279 17.7257C20.2987 18.0302 20.1603 18.3347 19.985 18.6115C19.7728 18.9436 19.5236 19.2297 19.2376 19.4973C19.2192 19.5157 19.2007 19.5434 19.173 19.5618C19.1915 19.5711 19.2007 19.5895 19.2099 19.608C19.293 19.7095 19.3207 19.8479 19.3668 19.9678C19.6344 20.6414 19.8558 21.3334 20.0219 22.0439C20.1418 22.5421 20.2433 23.0404 20.2987 23.5571C20.3079 23.6032 20.3171 23.6402 20.3171 23.6863C20.9815 23.4925 21.572 23.1788 22.0887 22.7267C22.0794 22.699 22.0702 22.6713 22.061 22.6436C22.0241 22.2838 21.9503 21.9332 21.8672 21.5918Z" fill="#EB4A64"/>
  <path d="M2.79568 19.691C3.12784 19.4604 3.48768 19.2666 3.85675 19.1097C3.9767 19.0544 4.10587 19.0082 4.23504 18.9621C4.14278 18.8421 4.05973 18.7222 3.98592 18.593C3.8752 18.4085 3.77371 18.2055 3.68144 18.0117C3.62608 17.8733 3.57072 17.7441 3.52459 17.5965C3.49691 17.5227 3.47845 17.4581 3.46 17.3843C3.46 17.3751 3.45077 17.3566 3.44155 17.3474C3.41387 17.3566 3.38619 17.3566 3.36773 17.3658C2.61115 17.6796 1.91915 18.0855 1.28251 18.6115C0.978027 18.8606 0.692 19.1282 0.4152 19.4142C0.35984 19.4788 0.30448 19.5434 0.24912 19.5988C0.22144 19.6264 0.19376 19.6541 0.147627 19.6541C0.156853 19.7187 0.16608 19.7925 0.184533 19.8571C0.322933 20.4753 0.5536 21.0566 0.904214 21.5918C1.08875 21.3057 1.31019 21.0474 1.53163 20.789C1.90992 20.3646 2.33435 20.0047 2.79568 19.691Z" fill="#FE8C47"/>
  <path d="M3.24779 6.12744C3.34005 6.10898 3.44155 6.0813 3.54304 6.0813C3.57995 6.0813 3.60763 6.0813 3.64454 6.0813C3.69067 5.9798 3.7368 5.87831 3.79216 5.78604C3.93979 5.49078 4.1151 5.21397 4.32731 4.95562C4.50261 4.7434 4.7056 4.54963 4.90859 4.36509C4.81632 4.35586 4.72406 4.35586 4.63179 4.36509C4.60411 4.36509 4.5672 4.37432 4.53952 4.37432C4.03205 4.42045 3.53381 4.49427 3.0448 4.58654C2.18672 4.7434 1.33787 4.95562 0.516694 5.23242C0.35984 5.28778 0.212213 5.34315 0.05536 5.38005C0.02768 5.93367 0.02768 6.48729 0.02768 7.0409C0.147627 7.0409 0.239893 6.98554 0.341387 6.94863C1.27328 6.57033 2.25131 6.31197 3.24779 6.12744Z" fill="#D53E90"/>
  <path d="M23.9893 14.4224C23.8602 14.3394 23.8233 14.201 23.7587 14.081C23.4173 13.4998 23.0575 12.9461 22.6699 12.4017C22.3839 11.9958 22.0794 11.6082 21.7657 11.2207C21.5812 10.99 21.3782 10.7594 21.1752 10.5379C21.1014 10.4549 21.0276 10.3718 20.9538 10.2888C20.9445 10.2703 20.9261 10.2611 20.9076 10.2519C20.8892 10.2426 20.8707 10.2334 20.8523 10.2334C20.8523 10.7501 20.8523 11.2668 20.8615 11.7835C20.8615 11.8666 20.8615 11.9404 20.8615 12.0234C20.8707 12.0234 20.88 12.0234 20.8892 12.0327C20.9076 12.0419 20.9261 12.0511 20.9353 12.0696C20.9445 12.0788 20.9445 12.088 20.9538 12.0973C21.3321 12.5678 21.7011 13.0569 22.0333 13.5551C22.3562 14.0349 22.6607 14.5239 22.9467 15.0314C23.2973 15.6496 23.6203 16.2863 23.8971 16.9414C23.9155 16.9783 23.9248 17.0244 23.9801 17.0244C23.9986 16.1479 23.9893 15.2898 23.9893 14.4224Z" fill="#D53E90"/>
  <path d="M2.15904 11.396C2.44507 11.2945 2.74032 11.2207 3.03557 11.1377C3.06325 11.1284 3.10016 11.1284 3.13707 11.1284C3.1463 10.5195 3.14629 9.90125 3.15552 9.29227C2.57424 9.42145 2.00219 9.59676 1.43936 9.79053C0.987254 9.94738 0.5536 10.1319 0.11072 10.3349C0.08304 10.3441 0.05536 10.3626 0.0184533 10.3626C0.0184533 11.0177 0.0184533 11.6728 0.0184533 12.3372C0.0922667 12.3464 0.129173 12.291 0.184533 12.2633C0.821174 11.9127 1.47627 11.6267 2.15904 11.396Z" fill="#EB4A64"/>
  <path d="M2.076 13.1399C2.41739 13.0015 2.77723 12.8908 3.12784 12.7893C3.12784 12.2357 3.12784 11.682 3.12784 11.1284C3.09093 11.1284 3.06325 11.1284 3.02635 11.1377C2.73109 11.2207 2.43584 11.3037 2.14981 11.396C1.46704 11.6267 0.811947 11.9127 0.16608 12.2449C0.11072 12.2726 0.0645867 12.3279 0 12.3187C0 12.9277 0 13.5459 0 14.1549C0.147627 14.118 0.258347 14.0257 0.38752 13.9519C0.931894 13.6289 1.49472 13.3706 2.076 13.1399Z" fill="#F24E55"/>
  <path d="M1.76229 22.4683C2.08523 21.9424 2.4912 21.481 2.96176 21.0843C3.60763 20.5491 4.34576 20.1616 5.16694 19.9771C5.17616 19.9771 5.18539 19.9771 5.19462 19.9678C5.2223 19.9586 5.2592 19.9494 5.26843 19.9125C5.15771 19.8387 5.05622 19.7556 4.9455 19.6633C4.844 19.5803 4.74251 19.488 4.64102 19.3958C4.5303 19.2943 4.43803 19.1743 4.33654 19.0636C4.29963 19.0267 4.27195 18.9713 4.22582 18.9436C4.09664 18.9898 3.96747 19.0359 3.84752 19.0913C3.47845 19.2481 3.11861 19.4511 2.78645 19.6726C2.32512 19.9863 1.89147 20.3461 1.5224 20.7706C1.30096 21.0289 1.07952 21.2873 0.894987 21.5733C1.1072 21.9239 1.37477 22.2377 1.67925 22.5052C1.72539 22.5237 1.74384 22.5052 1.76229 22.4683Z" fill="#FE9B4A"/>
  <path d="M20.0311 22.0347C19.865 21.3242 19.6436 20.6322 19.376 19.9586C19.3299 19.8387 19.3022 19.7095 19.2192 19.5988C19.2099 19.5803 19.1915 19.5711 19.1822 19.5526C19.0992 19.6264 19.0162 19.691 18.9239 19.7648C18.6563 19.9678 18.3795 20.1339 18.075 20.2815C18.1027 20.4292 18.1673 20.5676 18.2227 20.706C18.2411 20.7521 18.2596 20.7983 18.278 20.8444C18.481 21.4072 18.6563 21.9885 18.7855 22.5791C18.8778 22.9943 18.9608 23.4095 19.0069 23.8339C19.0069 23.8616 19.0254 23.8893 19.0254 23.917C19.4683 23.8893 19.9019 23.8062 20.3356 23.6678C20.3264 23.6217 20.3171 23.5848 20.3171 23.5387C20.2525 23.0312 20.1511 22.5329 20.0311 22.0347Z" fill="#F24E55"/>
  <path d="M23.8786 12.3187C23.4357 11.6636 22.9652 11.0269 22.4577 10.4272C22.0887 9.98429 21.7196 9.55063 21.3136 9.14464C21.2398 9.07083 21.1568 8.98778 21.0829 8.90474C21.0091 8.8217 20.9261 8.73866 20.8246 8.69252C20.8338 9.20923 20.8431 9.72594 20.8523 10.2426C20.88 10.2426 20.8984 10.2426 20.9076 10.2611C20.9261 10.2703 20.9353 10.2888 20.9538 10.298C21.0276 10.3811 21.1014 10.4549 21.1752 10.5471C21.369 10.7778 21.572 10.9993 21.7657 11.2299C22.0794 11.6175 22.3839 12.005 22.6699 12.411C23.0575 12.9554 23.4173 13.5182 23.7587 14.0903C23.8233 14.2102 23.8694 14.3486 23.9893 14.4317C24.0078 13.7581 23.9986 13.0845 23.9893 12.4202C23.934 12.4017 23.9063 12.3648 23.8786 12.3187Z" fill="#CE3A9E"/>
  <path d="M2.20517 7.91746C2.50043 7.83442 2.80491 7.76983 3.10016 7.70524C3.14629 7.69601 3.1832 7.69601 3.22933 7.69601C3.29392 7.24389 3.37696 6.801 3.52459 6.36734C3.56149 6.26584 3.5984 6.17357 3.63531 6.0813C3.5984 6.0813 3.57072 6.0813 3.53381 6.0813C3.43232 6.09053 3.34005 6.10898 3.23856 6.12744C2.24208 6.3212 1.26405 6.57033 0.313707 6.93018C0.212213 6.96709 0.11072 7.03167 0 7.02245C0.00922667 7.57606 0.00922667 8.12045 0.00922667 8.66484C0.35984 8.54489 0.692 8.39726 1.04261 8.27731C1.43013 8.14813 1.81765 8.02818 2.20517 7.91746Z" fill="#DA4186"/>
  <path d="M1.43013 9.7813C1.99296 9.58753 2.56501 9.41222 3.14629 9.28305C3.16475 8.93242 3.17397 8.5818 3.19243 8.23118C3.20165 8.05586 3.22011 7.87133 3.22933 7.69601C3.1832 7.69601 3.14629 7.69601 3.10016 7.70524C2.79568 7.76983 2.50043 7.83442 2.20517 7.91746C1.81765 8.02818 1.42091 8.14813 1.03339 8.27731C0.692 8.39726 0.35984 8.55412 0.00922667 8.66484C0.00922667 9.22768 0.00922667 9.79053 0.00922667 10.3441C0.0461334 10.3441 0.0738134 10.3349 0.101493 10.3165C0.544374 10.1319 0.978027 9.93816 1.43013 9.7813Z" fill="#E34674"/>
  <path d="M2.23285 15.788C2.4912 15.6589 2.768 15.5666 3.03557 15.4559C3.08171 15.4374 3.12784 15.419 3.17397 15.4282C3.13707 14.9299 3.17398 14.4409 3.13707 13.9426C3.09093 13.9426 3.05403 13.9519 3.01712 13.9611C2.95253 13.9796 2.89717 13.998 2.84181 14.0165C2.78645 14.0349 2.72187 14.0626 2.66651 14.081C2.26053 14.2287 1.86379 14.404 1.47627 14.5978C1.01493 14.8284 0.58128 15.096 0.156853 15.382C0.119947 15.4097 0.08304 15.4559 0.0184533 15.4466C0.0184533 16.0279 0.0184533 16.6092 0.0184533 17.1998C0.1384 17.1813 0.202987 17.089 0.286027 17.0244C0.88576 16.5262 1.54085 16.1202 2.23285 15.788Z" fill="#FD553F"/>
  <path d="M0.24912 19.5988C0.30448 19.5342 0.35984 19.4696 0.4152 19.4142C0.692 19.1374 0.978027 18.8606 1.28251 18.6115C1.91915 18.0948 2.61115 17.6796 3.36773 17.3658C3.38619 17.3566 3.41387 17.3566 3.44155 17.3474C3.34928 16.9968 3.28469 16.6461 3.23856 16.2863C3.06325 16.314 2.9064 16.397 2.74955 16.4708C2.2144 16.7107 1.70693 16.9968 1.22715 17.3382C0.922667 17.5504 0.627414 17.781 0.35984 18.0302C0.286027 18.104 0.202987 18.1686 0.129173 18.2424C0.101493 18.2701 0.0645867 18.2793 0.02768 18.2793C0.02768 18.4085 0.02768 18.5377 0.0369067 18.6668C0.05536 18.999 0.0922667 19.3312 0.156853 19.6633C0.19376 19.6541 0.22144 19.6264 0.24912 19.5988Z" fill="#FE7343"/>
  <path d="M18.7855 22.5791C18.6563 21.9885 18.481 21.4165 18.278 20.8444C18.2596 20.7983 18.2411 20.7521 18.2227 20.706C18.1673 20.5676 18.1027 20.4292 18.075 20.2815C17.8997 20.3554 17.7152 20.4292 17.5307 20.4845C17.3461 20.5491 17.1616 20.5953 16.9678 20.6414C17.0048 20.8075 17.0878 20.9551 17.1432 21.112C17.383 21.7579 17.5768 22.413 17.7152 23.0865C17.7798 23.3726 17.8259 23.6678 17.8628 23.9631C17.9828 23.9631 18.0935 23.9631 18.2134 23.9631C18.2596 23.9631 18.3057 23.9631 18.3518 23.9631C18.5733 23.9631 18.7947 23.9354 19.0254 23.917C19.0162 23.8893 19.0069 23.8616 19.0069 23.8339C18.9608 23.4095 18.8778 22.9943 18.7855 22.5791Z" fill="#F95149"/>
  <path d="M1.46704 14.5885C1.85456 14.3948 2.25131 14.2195 2.65728 14.0718C2.71264 14.0534 2.768 14.0257 2.83259 14.0072C2.88795 13.9888 2.95253 13.9703 3.00789 13.9519C3.0448 13.9426 3.09093 13.9334 3.12784 13.9334C3.12784 13.8411 3.13707 13.7397 3.13707 13.6474C3.13707 13.3613 3.12784 13.0753 3.12784 12.7801C2.768 12.8815 2.41739 13.0015 2.076 13.1307C1.49472 13.3613 0.931894 13.6197 0.396747 13.9426C0.2768 14.0165 0.156853 14.118 0.00922667 14.1456C0.00922667 14.5701 0.00922667 15.0037 0.00922667 15.4282C0.0645867 15.4374 0.101493 15.3913 0.147627 15.3636C0.572054 15.0868 1.01493 14.8284 1.46704 14.5885Z" fill="#F95149"/>
  <path d="M0.119947 18.2424C0.19376 18.1686 0.2768 18.0948 0.350614 18.0302C0.627414 17.781 0.91344 17.5504 1.21792 17.3382C1.69771 16.9968 2.20517 16.7107 2.74032 16.4708C2.89717 16.397 3.05403 16.314 3.22933 16.2863C3.1832 16.0003 3.20165 15.7142 3.16475 15.419C3.11861 15.4097 3.07248 15.4282 3.02635 15.4466C2.75877 15.5574 2.48197 15.6589 2.22363 15.7788C1.5224 16.111 0.876534 16.517 0.2768 17.006C0.19376 17.0706 0.129173 17.1721 0.00922667 17.1813C0 17.5411 0.00922667 17.901 0.0184533 18.2701C0.05536 18.2793 0.0922667 18.2701 0.119947 18.2424Z" fill="#FE6641"/>
  <path d="M20.8246 8.69252C20.8154 8.5818 20.8061 8.4803 20.8061 8.36958C20.7877 7.85287 20.7231 7.34539 20.6032 6.84714C20.2894 5.59227 19.5974 4.60499 18.4902 3.93143C17.6968 3.45163 16.811 3.25786 15.8976 3.2025C15.0948 3.14714 14.3013 3.13791 13.4986 3.13791C12.5021 3.13791 11.5057 3.13791 10.5092 3.13791C10.3062 3.13791 10.094 3.13791 9.89099 3.13791C9.34662 3.15636 8.80224 3.18404 8.25787 3.2025C7.78731 3.22095 7.31675 3.27631 6.85542 3.39626C6.49558 3.48853 6.15419 3.60848 5.82203 3.76534C5.4991 3.9222 5.18539 4.12519 4.89936 4.36509C4.69638 4.54963 4.50262 4.7434 4.31808 4.95562C4.10587 5.21397 3.93056 5.49078 3.78294 5.78604C3.7368 5.88754 3.68144 5.9798 3.63531 6.0813C3.5984 6.17357 3.56149 6.27507 3.52459 6.36734C3.37696 6.801 3.29392 7.24389 3.22933 7.69601C3.22011 7.87133 3.20165 8.05586 3.19243 8.23118C3.17397 8.5818 3.15552 8.93242 3.14629 9.28305C3.13707 9.89202 3.13707 10.5102 3.12784 11.1192C3.12784 11.6728 3.12784 12.2264 3.12784 12.7801C3.13707 13.0661 3.13707 13.3521 3.13707 13.6474C3.13707 13.7397 3.13707 13.8411 3.12784 13.9334C3.16475 14.4317 3.12784 14.9207 3.16475 15.419C3.20165 15.705 3.1832 16.0003 3.22933 16.2863C3.27547 16.6461 3.34005 16.9968 3.43232 17.3474C3.44155 17.3566 3.45077 17.3751 3.45077 17.3843C3.46923 17.4581 3.49691 17.5227 3.51536 17.5965C3.56149 17.7349 3.61685 17.8733 3.67221 18.0117C3.76448 18.2147 3.86597 18.4085 3.9767 18.593C4.05051 18.7222 4.13355 18.8421 4.22582 18.9621C4.28118 18.9898 4.29963 19.0359 4.33654 19.082C4.43803 19.1928 4.5303 19.3127 4.64102 19.4142C4.74251 19.5065 4.844 19.5895 4.9455 19.6818C5.04699 19.7648 5.15771 19.8479 5.26843 19.9309C5.3607 19.9863 5.44374 20.0509 5.536 20.097C5.78512 20.2446 6.04347 20.3554 6.32027 20.4476C7.03072 20.706 7.76886 20.789 8.50699 20.8259C8.6823 20.8352 8.84838 20.8444 9.02368 20.8444C9.19899 20.8536 9.3743 20.8536 9.54038 20.8536C9.95558 20.8536 10.3708 20.8536 10.786 20.8536C11.1089 20.8536 11.4318 20.8536 11.7548 20.8628C11.9209 20.8628 12.0777 20.8536 12.2438 20.8536C12.4099 20.8536 12.5667 20.8536 12.7328 20.8628C13.1665 20.8628 13.6001 20.8628 14.0338 20.8536C14.3198 20.8536 14.5966 20.8444 14.8826 20.8444C15.2056 20.8259 15.5285 20.8167 15.8606 20.7983C16.0452 20.7798 16.2297 20.7613 16.4142 20.7337C16.5988 20.706 16.7833 20.6783 16.9678 20.6414C17.1524 20.5953 17.3461 20.5399 17.5307 20.4845C17.7152 20.42 17.8997 20.3554 18.075 20.2815C18.3795 20.1431 18.6563 19.9678 18.9239 19.7648C19.0162 19.7003 19.0992 19.6264 19.1822 19.5526C19.2007 19.5342 19.2192 19.5065 19.2468 19.488C19.5236 19.2204 19.782 18.9344 19.9942 18.6022C20.1695 18.3254 20.3079 18.0209 20.4371 17.7165C20.4371 17.698 20.4463 17.6888 20.4463 17.6703C20.677 17.0244 20.7877 16.3509 20.8154 15.6589C20.8338 15.2529 20.843 14.8469 20.8615 14.4317C20.8615 13.8227 20.8707 13.2229 20.8707 12.614C20.8707 12.4202 20.8707 12.2172 20.88 12.0234C20.88 11.9404 20.88 11.8666 20.88 11.7835C20.88 11.2668 20.88 10.7501 20.8707 10.2334C20.8431 9.72594 20.8338 9.20923 20.8246 8.69252ZM19.2284 14.9299C19.2192 15.1883 19.2192 15.4466 19.1915 15.7142C19.1915 16.0095 19.1453 16.3047 19.0808 16.6C18.9885 17.0429 18.8409 17.4581 18.5825 17.8272C18.5272 17.9102 18.4718 18.0025 18.3888 18.0671C18.1489 18.3531 17.8721 18.6022 17.5307 18.7499C17.2077 18.9252 16.8664 19.0359 16.5157 19.1005C16.3497 19.1282 16.1928 19.1651 16.0267 19.1651C15.6946 19.2112 15.3624 19.2112 15.0302 19.2297C14.4951 19.2297 13.9507 19.2666 13.4156 19.2481C13.3049 19.2481 13.1941 19.2574 13.0834 19.2574C12.5852 19.2574 12.0962 19.2574 11.5979 19.2574C11.0259 19.2574 10.463 19.2574 9.89099 19.2574C9.88176 19.2574 9.87254 19.2574 9.86331 19.2481C9.85408 19.2481 9.84486 19.2389 9.83563 19.2389C9.69723 19.2574 9.55883 19.2574 9.42043 19.2481C9.33739 19.2389 9.25435 19.2389 9.17131 19.2389C8.5439 19.2204 7.91648 19.2112 7.2983 19.0636C6.77238 18.9344 6.28336 18.7222 5.87739 18.3439C5.86816 18.3347 5.84971 18.3162 5.84048 18.2978C5.52678 18.0117 5.28688 17.6703 5.13003 17.2736C4.9455 16.8399 4.86246 16.3878 4.82555 15.9172C4.77942 15.4835 4.77942 15.0499 4.76096 14.607C4.76096 14.2379 4.75174 13.8688 4.75174 13.4998C4.75174 13.0938 4.75174 12.6878 4.75174 12.2818C4.75174 11.8389 4.75174 11.396 4.75174 10.9531C4.74251 10.3626 4.74251 9.77207 4.77019 9.18155C4.78864 8.50798 4.79787 7.83442 4.97318 7.17008C4.9824 7.1424 4.99163 7.12394 5.00086 7.09626C5.16694 6.45961 5.50832 5.92444 6.03424 5.51846C6.31104 5.26933 6.6432 5.13093 6.99382 5.01098C7.26139 4.92793 7.53819 4.8818 7.82422 4.84489C8.74688 4.72494 9.66955 4.75262 10.5922 4.73417C10.6014 4.73417 10.6107 4.73417 10.6199 4.73417C10.6291 4.73417 10.6384 4.73417 10.6476 4.73417C10.6937 4.73417 10.7398 4.72494 10.7768 4.73417C12.0593 4.73417 13.351 4.7434 14.6335 4.7434C14.6704 4.7434 14.7165 4.7434 14.7534 4.75262C14.7904 4.75262 14.8365 4.76185 14.8734 4.76185C14.9564 4.76185 15.0395 4.76185 15.1225 4.77108C15.7038 4.78953 16.2851 4.80798 16.8479 4.96484C18.0658 5.29701 18.7947 6.09975 19.0808 7.31771C19.09 7.34539 19.09 7.37307 19.09 7.39152C19.173 7.71447 19.2007 8.04664 19.2099 8.37881C19.2192 8.62793 19.2468 8.86783 19.2376 9.11696C19.2745 9.71671 19.2653 10.3165 19.2561 10.907C19.2561 11.682 19.2561 12.4571 19.2561 13.2322C19.2561 13.8135 19.2468 14.3671 19.2284 14.9299Z" fill="#FEFDFD"/>
  <path d="M15.8606 20.7983C15.8606 20.8259 15.8699 20.8536 15.8699 20.8813C15.8791 20.909 15.8883 20.9367 15.8976 20.9551C16.1744 21.5825 16.3958 22.2284 16.5619 22.8928C16.6541 23.2434 16.7187 23.6032 16.7833 23.9723C17.0786 23.9723 17.3738 23.9723 17.6691 23.9815C17.7337 23.9815 17.7982 23.9723 17.8628 23.9723C17.8259 23.6771 17.7706 23.391 17.7152 23.0958C17.5768 22.4222 17.383 21.7671 17.1432 21.1212C17.0878 20.9643 17.0048 20.8167 16.9678 20.6506C16.7833 20.6875 16.5988 20.7152 16.4142 20.7429C16.2297 20.7613 16.0452 20.7798 15.8606 20.7983Z" fill="#FD553F"/>
  <path d="M7.16912 7.05936C7.5751 7.06858 7.97184 7.11472 8.36859 7.17008C9.0975 7.26235 9.81718 7.40075 10.5369 7.58529C10.5645 7.59452 10.5922 7.60374 10.6014 7.6222C10.6014 7.63142 10.6107 7.64065 10.6107 7.64988C10.7675 7.61297 10.9244 7.56684 11.072 7.53916C11.2289 7.50225 11.3857 7.48379 11.5426 7.46534C12.3268 7.39152 13.0834 7.50225 13.8031 7.82519C15.0118 8.36958 15.833 9.26459 16.2851 10.5102C16.2943 10.5287 16.3035 10.5471 16.3128 10.5748C16.4235 10.584 16.4881 10.6671 16.5619 10.7317C16.9494 11.0362 17.3185 11.3499 17.6875 11.6913C18.0012 11.9773 18.2965 12.2818 18.5917 12.5863C18.7855 12.7801 18.9608 12.9923 19.1453 13.1953C19.173 13.2229 19.1915 13.2599 19.2468 13.2599C19.2468 12.4848 19.2468 11.7097 19.2468 10.9347C19.1915 10.9254 19.1546 10.8978 19.1177 10.8609C18.8685 10.6302 18.6286 10.3811 18.3703 10.1596C18.075 9.90125 17.7706 9.65212 17.4661 9.41222C17.0509 9.08928 16.6265 8.78479 16.1836 8.49876C15.6853 8.17581 15.1686 7.87133 14.6427 7.59452C13.6739 7.07781 12.659 6.67182 11.6072 6.33965C10.869 6.10898 10.1124 5.92444 9.34662 5.80449C8.88528 5.73068 8.42395 5.67532 7.96262 5.62918C7.38134 5.57382 6.80006 5.56459 6.20955 5.56459C6.14496 5.56459 6.08038 5.55537 6.02502 5.53691C5.4991 5.92444 5.16694 6.45961 4.99163 7.09626C5.35147 7.07781 5.72054 7.06858 6.08038 7.0409C6.44944 7.01322 6.80928 7.05013 7.16912 7.05936Z" fill="#DA4186"/>
  <path d="M7.96262 5.61073C8.42395 5.65686 8.88528 5.71222 9.34662 5.78604C10.1124 5.91522 10.869 6.09053 11.6072 6.3212C12.659 6.65337 13.6647 7.05936 14.6427 7.57606C15.1686 7.85287 15.6853 8.15736 16.1836 8.4803C16.6265 8.76634 17.0509 9.07083 17.4661 9.39377C17.7706 9.63367 18.075 9.8828 18.3703 10.1412C18.6286 10.3626 18.8685 10.6117 19.1177 10.8424C19.1546 10.8793 19.1915 10.9162 19.2468 10.9162C19.2468 10.3165 19.2561 9.71671 19.2284 9.12619C19.0992 9.08005 19.0254 8.97856 18.9239 8.89551C18.5364 8.55412 18.1212 8.2404 17.706 7.93591C17.6968 7.92669 17.6875 7.92669 17.6783 7.91746C17.6506 7.89901 17.6322 7.87133 17.6322 7.83442C17.586 7.89901 17.5307 7.95437 17.4845 8.00973C17.3923 8.102 17.2908 8.17581 17.1708 8.23118C16.7741 8.40649 16.322 8.31422 15.9898 8.03741C15.6392 7.73292 15.5838 7.1424 15.7684 6.78255C15.6023 6.72719 15.4639 6.62569 15.307 6.54265C14.4951 6.10898 13.6647 5.7399 12.8066 5.42619C12.1423 5.18629 11.4595 4.9833 10.7768 4.80798C10.7306 4.79876 10.6568 4.81721 10.6384 4.7434C10.6291 4.7434 10.6199 4.7434 10.6107 4.7434C10.6014 4.7434 10.5922 4.7434 10.583 4.7434C9.66032 4.76185 8.73766 4.73417 7.81499 4.85412C7.52896 4.89103 7.25216 4.93716 6.98459 5.0202C6.63398 5.13093 6.30182 5.27856 6.02502 5.52769C6.0896 5.54614 6.14496 5.55537 6.20955 5.55537C6.80006 5.54614 7.38134 5.54614 7.96262 5.61073Z" fill="#D53E90"/>
  <path d="M12.2069 17.9656C11.764 17.5873 11.2934 17.2459 10.786 16.9599C10.1862 16.6185 9.5496 16.3416 8.88528 16.1387C8.37782 15.991 7.87035 15.8895 7.35366 15.8157C6.89232 15.7604 6.42176 15.7511 5.9512 15.7696C5.57291 15.788 5.19462 15.8434 4.81632 15.8988C4.85323 16.3601 4.92704 16.8214 5.1208 17.2551C5.54523 17.1813 5.96966 17.1444 6.40331 17.1444C7.14144 17.1536 7.87958 17.2551 8.59003 17.4766C9.53115 17.7626 10.38 18.2239 11.155 18.8145C11.2842 18.916 11.4134 19.0267 11.5426 19.1374C11.5702 19.1651 11.5979 19.1928 11.5979 19.2389C12.0962 19.2389 12.5852 19.2389 13.0834 19.2389C13.1941 19.2389 13.3049 19.2297 13.4156 19.2297C13.4064 19.1097 13.3049 19.0451 13.231 18.9621C12.9081 18.6207 12.5667 18.2793 12.2069 17.9656Z" fill="#FE7343"/>
  <path d="M14.9749 19.0913C14.735 18.7499 14.4859 18.4177 14.2183 18.0948C14.0338 17.8733 13.84 17.6611 13.637 17.4581C13.3325 17.1536 13.0096 16.8584 12.659 16.5908C12.6221 16.5631 12.6036 16.5446 12.6129 16.4985C12.0685 16.5631 11.5241 16.5446 10.989 16.4247C9.9279 16.1756 9.06059 15.6127 8.38704 14.7546C8.35014 14.7085 8.32246 14.6623 8.27632 14.6347C8.10102 14.6439 7.92571 14.5885 7.75963 14.5609C7.55664 14.5424 7.36288 14.5055 7.1599 14.4963C6.87387 14.4778 6.58784 14.4501 6.30182 14.4594C5.82203 14.4778 5.33302 14.4963 4.86246 14.5885C4.83478 14.5978 4.79787 14.5885 4.76096 14.5885C4.77942 15.0222 4.77942 15.4651 4.82555 15.8988C5.20384 15.8434 5.58214 15.788 5.96043 15.7696C6.43099 15.7419 6.89232 15.7604 7.36288 15.8157C7.87958 15.8803 8.39627 15.9818 8.89451 16.1387C9.55883 16.3416 10.1955 16.6092 10.7952 16.9599C11.3027 17.2459 11.7732 17.5873 12.2161 17.9656C12.576 18.2793 12.9173 18.6207 13.231 18.9713C13.3049 19.0544 13.3971 19.119 13.4156 19.2389C13.9507 19.2574 14.4951 19.2297 15.0302 19.2205C15.0302 19.1743 15.0026 19.1374 14.9749 19.0913Z" fill="#FE6641"/>
  <path d="M5.59136 9.10773C5.93275 9.11696 6.27414 9.0616 6.61552 9.08928C7.08608 9.11696 7.55664 9.12619 8.01798 9.19078C8.10102 9.2 8.19328 9.20923 8.27632 9.22768C8.304 9.23691 8.33168 9.23691 8.35936 9.24614C8.42395 9.17232 8.48854 9.08928 8.55312 9.01546C8.74688 8.79402 8.9591 8.5818 9.19899 8.39726C9.59574 8.09277 10.0294 7.85287 10.5092 7.68679C10.5461 7.67756 10.5738 7.65911 10.6107 7.64988C10.6107 7.64065 10.6107 7.63142 10.6014 7.6222C10.5922 7.59452 10.5645 7.59452 10.5369 7.58529C9.8264 7.40075 9.0975 7.26235 8.36859 7.17008C7.97184 7.12394 7.56587 7.06858 7.16912 7.05936C6.80928 7.05013 6.44944 7.02245 6.08038 7.0409C5.72054 7.06858 5.35147 7.07781 4.99163 7.09626C4.9824 7.12394 4.97318 7.1424 4.96395 7.17008C4.78864 7.82519 4.77942 8.50798 4.76096 9.18155C5.01931 9.1631 5.28688 9.13542 5.54523 9.11696C5.56368 9.10773 5.58214 9.10773 5.59136 9.10773Z" fill="#E34674"/>
  <path d="M18.8778 15.3175C18.5641 14.9115 18.2504 14.5055 17.9182 14.118C17.5491 13.6935 17.1432 13.306 16.7464 12.9185C16.6726 12.8446 16.608 12.7431 16.4881 12.7247C16.4327 13.1307 16.3128 13.5274 16.1374 13.8965C16.0175 14.1549 15.8791 14.3855 15.7222 14.6254C15.7684 14.6439 15.8145 14.6716 15.8514 14.6993C15.8883 14.7362 15.9252 14.7731 15.9529 14.8007C16.1098 14.9853 16.2943 15.1514 16.4512 15.3267C16.811 15.7327 17.1524 16.1479 17.4661 16.5815C17.7798 17.0152 18.0566 17.4673 18.3334 17.9195C18.3611 17.9564 18.3795 18.0025 18.3888 18.0486C18.4718 17.984 18.5272 17.8918 18.5825 17.8087C18.8409 17.4397 18.9885 17.0244 19.0808 16.5815C19.1453 16.2863 19.1822 16.0003 19.1915 15.6958C19.0531 15.6035 18.9793 15.4466 18.8778 15.3175Z" fill="#EB4A64"/>
  <path d="M10.7675 4.81721C11.4595 4.99252 12.1331 5.19552 12.7974 5.43542C13.6555 5.74913 14.4951 6.11821 15.2978 6.55187C15.4454 6.63492 15.5931 6.72719 15.7592 6.79177C15.916 6.50574 16.1467 6.31197 16.4696 6.23816C16.9033 6.14589 17.2816 6.26584 17.5584 6.62569C17.8352 6.98554 17.8536 7.37307 17.6598 7.77906C17.6506 7.79751 17.6414 7.82519 17.6229 7.84364C17.6229 7.88055 17.6506 7.89901 17.6691 7.92669C17.6783 7.93591 17.6875 7.93591 17.6968 7.94514C18.112 8.24963 18.5179 8.56334 18.9147 8.90474C19.0069 8.98778 19.09 9.08928 19.2192 9.13542C19.2284 8.88629 19.2007 8.64639 19.1915 8.39726C19.173 8.06509 19.1546 7.73292 19.0715 7.40998C18.9331 7.37307 18.8501 7.26235 18.7394 7.17931C17.9828 6.59801 17.1801 6.07207 16.3497 5.6015C15.8976 5.34315 15.4362 5.10325 14.9564 4.8818C14.9103 4.86335 14.8549 4.84489 14.8549 4.7803C14.818 4.7803 14.7719 4.77108 14.735 4.77108C14.6981 4.77108 14.652 4.76185 14.615 4.76185C13.3325 4.75262 12.0408 4.75262 10.7583 4.75262C10.7122 4.75262 10.666 4.75262 10.6291 4.75262C10.6568 4.81721 10.7214 4.79876 10.7675 4.81721Z" fill="#CE3A9E"/>
  <path d="M11.5333 19.1466C11.4042 19.0359 11.275 18.9252 11.1458 18.8237C10.3708 18.2239 9.52192 17.7718 8.5808 17.4858C7.87035 17.2643 7.14144 17.1628 6.39408 17.1536C5.96966 17.1536 5.536 17.1813 5.11158 17.2643C5.2592 17.6611 5.4991 18.0025 5.82203 18.2885C5.86816 18.2424 5.92352 18.2332 5.97888 18.2332C6.24646 18.2332 6.51403 18.2147 6.77238 18.2332C7.26139 18.2701 7.74118 18.3531 8.21174 18.4915C8.75611 18.6484 9.26358 18.8791 9.75259 19.1559C9.7895 19.1743 9.81718 19.1928 9.81718 19.2389C9.8264 19.2389 9.83563 19.2481 9.84486 19.2481C9.85408 19.2481 9.86331 19.2574 9.87254 19.2574C10.4446 19.2574 11.0074 19.2574 11.5795 19.2574C11.5979 19.202 11.5702 19.1743 11.5333 19.1466Z" fill="#FE8C47"/>
  <path d="M19.1546 13.186C18.97 12.983 18.7947 12.7708 18.601 12.5771C18.3057 12.2726 18.0105 11.9773 17.6968 11.682C17.3369 11.3499 16.9586 11.0362 16.5711 10.7224C16.4973 10.6671 16.4327 10.5748 16.322 10.5656C16.4696 11.0546 16.5526 11.5529 16.5434 12.0604C16.5342 12.2818 16.5342 12.494 16.4788 12.7155C16.5988 12.7339 16.6634 12.8354 16.7372 12.9092C17.1339 13.306 17.5399 13.6935 17.909 14.1087C18.2504 14.4963 18.5641 14.9022 18.8685 15.3082C18.97 15.4374 19.0438 15.6035 19.1822 15.705C19.2099 15.4466 19.2099 15.1883 19.2192 14.9207C19.2376 14.3579 19.2468 13.8042 19.2376 13.2414C19.2007 13.2506 19.1822 13.2137 19.1546 13.186Z" fill="#E34674"/>
  <path d="M16.2758 16.8676C15.9068 16.397 15.51 15.9449 15.0764 15.5297C15.0579 15.5112 15.0395 15.502 15.0302 15.4835C15.0118 15.4651 15.0026 15.4466 15.0026 15.419C14.7996 15.585 14.5874 15.7419 14.3659 15.8803C14.1445 16.0187 13.9138 16.1294 13.6739 16.2402C13.6739 16.2771 13.6924 16.3047 13.7293 16.3324C14.1353 16.7015 14.5228 17.0983 14.8826 17.5135C15.2794 17.984 15.6392 18.4823 15.9714 19.0082C15.999 19.0544 16.036 19.1005 16.0267 19.1651C16.1928 19.1651 16.3589 19.1282 16.5157 19.1005C16.8756 19.0267 17.217 18.9252 17.5307 18.7499C17.383 18.51 17.2446 18.2701 17.097 18.0394C16.8479 17.6242 16.5711 17.2367 16.2758 16.8676Z" fill="#F95149"/>
  <path d="M6.48635 10.8424C6.80928 10.8516 7.14144 10.8701 7.46438 10.8885C7.4736 10.8885 7.48283 10.8885 7.49206 10.8885C7.51974 10.8978 7.54742 10.907 7.56587 10.9347C7.612 10.7963 7.64891 10.6486 7.69504 10.5102C7.74118 10.3718 7.79654 10.2334 7.86112 10.095C7.99952 9.79053 8.17483 9.51372 8.36859 9.24614C8.34091 9.23691 8.31323 9.23691 8.28555 9.22768C8.20251 9.20923 8.11024 9.20923 8.0272 9.19078C7.56587 9.11696 7.09531 9.11696 6.62475 9.08928C6.28336 9.0616 5.94198 9.11696 5.60059 9.10773C5.59136 9.10773 5.58214 9.10773 5.56368 9.10773C5.30534 9.12619 5.03776 9.15387 4.77942 9.17232C4.75174 9.76285 4.75174 10.3534 4.76096 10.9439C4.9455 10.9254 5.1208 10.8885 5.30534 10.8793C5.69286 10.8701 6.0896 10.8332 6.48635 10.8424Z" fill="#EB4A64"/>
  <path d="M17.4661 16.5908C17.1524 16.1571 16.811 15.7327 16.4512 15.3359C16.2943 15.1514 16.1098 14.9945 15.9529 14.81C15.9252 14.7731 15.8883 14.7362 15.8514 14.7085C15.8145 14.6716 15.7684 14.6439 15.7222 14.6347C15.6115 14.7823 15.5008 14.9207 15.3809 15.0499C15.2609 15.1791 15.1317 15.3082 15.0026 15.4374C15.0026 15.4651 15.0118 15.4835 15.0302 15.502C15.0487 15.5205 15.0672 15.5297 15.0764 15.5481C15.51 15.9633 15.9068 16.4062 16.2758 16.886C16.5711 17.2643 16.8387 17.6426 17.0878 18.0486C17.2354 18.2885 17.3738 18.5284 17.5214 18.7591C17.8721 18.6115 18.1396 18.3623 18.3795 18.0763C18.3703 18.0302 18.3518 17.984 18.3242 17.9471C18.0566 17.4673 17.7798 17.0152 17.4661 16.5908Z" fill="#F24E55"/>
  <path d="M6.80928 12.1618C7.0215 12.1618 7.23371 12.1895 7.44592 12.208C7.44592 11.7743 7.45515 11.3499 7.56587 10.9347C7.54742 10.907 7.51974 10.8885 7.49206 10.8885C7.48283 10.8885 7.4736 10.8885 7.46438 10.8885C7.14144 10.8701 6.80928 10.8516 6.48635 10.8424C6.0896 10.8332 5.69286 10.8701 5.29611 10.8885C5.11158 10.8978 4.93627 10.9347 4.75174 10.9531C4.75174 11.396 4.75174 11.8389 4.75174 12.2818C4.91782 12.2633 5.07467 12.2357 5.24075 12.2172C5.75744 12.1526 6.28336 12.1618 6.80928 12.1618Z" fill="#F24E55"/>
  <path d="M4.85323 14.5978C5.33302 14.5147 5.8128 14.487 6.29259 14.4686C6.57862 14.4594 6.86464 14.487 7.15067 14.5055C7.35366 14.5147 7.54742 14.5516 7.7504 14.5701C7.92571 14.5885 8.09179 14.6439 8.2671 14.6439C8.22096 14.5332 8.1287 14.4409 8.07334 14.3302C7.92571 14.0441 7.76886 13.7673 7.67659 13.4536C7.67659 13.4444 7.66736 13.4352 7.65814 13.4259C7.24294 13.4075 6.82774 13.3613 6.41254 13.3613C5.9143 13.3613 5.41606 13.389 4.92704 13.4628C4.86246 13.4721 4.8071 13.4628 4.74251 13.4905C4.74251 13.8596 4.75174 14.2287 4.75174 14.5978C4.78864 14.5978 4.82555 14.607 4.85323 14.5978Z" fill="#FD553F"/>
  <path d="M6.42176 13.3613C6.83696 13.3613 7.25216 13.3983 7.66736 13.4259C7.54742 13.0292 7.4736 12.6232 7.44592 12.208C7.23371 12.1895 7.0215 12.1618 6.80928 12.1618C6.28336 12.1618 5.75744 12.1526 5.23152 12.208C5.06544 12.2264 4.90859 12.2541 4.74251 12.2726C4.74251 12.6786 4.74251 13.0845 4.74251 13.4905C4.79787 13.4721 4.86246 13.4721 4.92704 13.4628C5.42528 13.389 5.92352 13.3613 6.42176 13.3613Z" fill="#F95149"/>
  <path d="M14.8734 17.5135C14.5136 17.089 14.126 16.7015 13.7201 16.3324C13.6924 16.3047 13.6739 16.2771 13.6647 16.2402C13.3879 16.3324 13.1111 16.4247 12.8158 16.4708C12.742 16.4801 12.6682 16.4985 12.6036 16.5077C12.6036 16.5446 12.6221 16.5723 12.6498 16.6C13.0004 16.8676 13.3233 17.1628 13.6278 17.4673C13.8308 17.6703 14.0245 17.8825 14.2091 18.104C14.4766 18.4269 14.735 18.7499 14.9657 19.1005C14.9933 19.1374 15.021 19.1835 15.0118 19.2297C15.344 19.2112 15.6761 19.2112 16.0083 19.1651C16.0083 19.1097 15.9806 19.0544 15.9529 19.0082C15.63 18.4823 15.2701 17.984 14.8734 17.5135Z" fill="#FD553F"/>
  <path d="M14.9657 4.87257C15.4454 5.09402 15.9068 5.33392 16.3589 5.59227C17.1893 6.06285 17.9828 6.58878 18.7486 7.17008C18.8593 7.25312 18.9424 7.35462 19.0808 7.40075C19.0808 7.37307 19.0808 7.34539 19.0715 7.32694C18.7855 6.10898 18.0566 5.30624 16.8387 4.97407C16.2758 4.81721 15.6946 4.78953 15.1133 4.7803C15.0302 4.7803 14.9472 4.7803 14.8642 4.77108C14.8642 4.83567 14.9288 4.85412 14.9657 4.87257Z" fill="#C737AA"/>
  <path d="M9.75259 19.1559C9.26358 18.8791 8.75611 18.6484 8.21174 18.4915C7.74118 18.3531 7.26139 18.2701 6.77238 18.2332C6.5048 18.2147 6.23723 18.2239 5.97888 18.2332C5.92352 18.2332 5.85894 18.2332 5.82203 18.2885C5.83126 18.307 5.84048 18.3162 5.85894 18.3347C6.26491 18.713 6.75392 18.9252 7.27984 19.0544C7.89803 19.202 8.52544 19.2112 9.15286 19.2297C9.2359 19.2297 9.31894 19.2389 9.40198 19.2389C9.54038 19.2481 9.67878 19.2481 9.81718 19.2297C9.81718 19.1928 9.7895 19.1743 9.75259 19.1559Z" fill="#FE9B4A"/>
  <path d="M13.8216 7.82519C13.1019 7.50225 12.3453 7.39152 11.561 7.46534C11.4042 7.48379 11.2473 7.50225 11.0905 7.53916C10.9336 7.57606 10.7768 7.61297 10.6291 7.64988C10.5922 7.65911 10.5645 7.67756 10.5276 7.68679C10.0478 7.85287 9.61419 8.09277 9.21744 8.39726C8.97755 8.5818 8.76534 8.78479 8.57158 9.01546C8.50699 9.08928 8.4424 9.16309 8.37782 9.24614C8.19328 9.51372 8.00875 9.79053 7.87035 10.095C7.80576 10.2334 7.75963 10.3718 7.70427 10.5102C7.65814 10.6486 7.612 10.7963 7.5751 10.9347C7.4736 11.3499 7.45515 11.7835 7.45515 12.208C7.48283 12.6232 7.55664 13.0292 7.67659 13.4259C7.68582 13.4352 7.69504 13.4444 7.69504 13.4536C7.77808 13.7673 7.94416 14.0441 8.09179 14.3302C8.14715 14.4409 8.23942 14.5239 8.28555 14.6439C8.33168 14.6716 8.35936 14.7177 8.39627 14.7638C9.06982 15.6219 9.93712 16.1848 10.9982 16.4339C11.5333 16.5631 12.0777 16.5723 12.6221 16.5077C12.6959 16.4985 12.7697 16.4801 12.8343 16.4708C13.1296 16.4247 13.4064 16.3324 13.6832 16.2402C13.923 16.1387 14.1537 16.0187 14.3752 15.8803C14.5966 15.7419 14.8088 15.5943 15.0118 15.419C15.141 15.299 15.2701 15.1698 15.3901 15.0314C15.51 14.893 15.63 14.7546 15.7315 14.6162C15.8791 14.3855 16.0267 14.1456 16.1467 13.8873C16.322 13.509 16.4419 13.1214 16.4973 12.7155C16.5434 12.5032 16.5526 12.2818 16.5619 12.0604C16.5803 11.5529 16.4881 11.0546 16.3404 10.5656C16.3312 10.5471 16.322 10.5287 16.3128 10.501C15.8514 9.27382 15.0302 8.36958 13.8216 7.82519ZM14.9195 12.3648C14.8918 12.5678 14.8642 12.7616 14.7811 12.9554C14.6427 13.3983 14.3936 13.7858 14.0614 14.1087C13.6462 14.5055 13.1665 14.7915 12.5944 14.893C11.5518 15.0868 10.6384 14.81 9.88176 14.0534C9.38352 13.5551 9.12518 12.9461 9.06059 12.2449C9.05136 12.1711 9.05136 12.1065 9.04214 12.0327C9.04214 11.9589 9.04214 11.885 9.06059 11.8205C9.06982 11.6359 9.08827 11.4606 9.1344 11.2853C9.18054 11.11 9.2359 10.9439 9.30971 10.787C9.35584 10.6763 9.42043 10.5748 9.48502 10.4733C9.58651 10.3072 9.69723 10.1504 9.8264 10.012C10.0386 9.7813 10.2877 9.58753 10.5738 9.43068C10.8967 9.23691 11.2565 9.11696 11.6348 9.08005C12.6036 8.96933 13.434 9.26459 14.126 9.96584C14.4951 10.3349 14.735 10.787 14.8642 11.2945C14.8826 11.3591 14.8826 11.4329 14.8918 11.4975C14.9564 11.7743 14.9564 12.0696 14.9195 12.3648Z" fill="#FEFDFD"/>
  <path d="M17.6691 7.76983C17.8628 7.36384 17.8444 6.97631 17.5676 6.61646C17.2908 6.25661 16.9125 6.13666 16.4788 6.22893C16.1559 6.29352 15.9252 6.49651 15.7684 6.78255C15.5838 7.1424 15.63 7.73292 15.9898 8.03741C16.322 8.32344 16.7741 8.41571 17.1708 8.23118C17.2908 8.17581 17.3923 8.102 17.4845 8.00973C17.5399 7.95437 17.586 7.89901 17.6322 7.83442C17.6414 7.81596 17.6506 7.79751 17.6691 7.76983Z" fill="#FEFDFD"/>
  <path d="M12.1515 12.9092C11.4872 12.5678 10.7952 12.2818 10.0848 12.0604C9.7895 11.9681 9.48502 11.8943 9.18054 11.8205C9.14363 11.8112 9.0975 11.8112 9.06059 11.8112C9.04214 11.885 9.04214 11.9496 9.04214 12.0234C9.04214 12.0973 9.05136 12.1618 9.06059 12.2357C9.11595 12.9369 9.38352 13.5459 9.88176 14.0441C10.6291 14.7915 11.5426 15.0776 12.5944 14.8838C13.1665 14.7823 13.6462 14.4963 14.0614 14.0995C13.8123 13.9334 13.5632 13.7581 13.3141 13.592C12.9358 13.3429 12.5483 13.1214 12.1515 12.9092Z" fill="#F95149"/>
  <path d="M11.7271 11.1838C11.0351 10.8885 10.3154 10.6579 9.58651 10.4825C9.55883 10.4733 9.52192 10.4733 9.48502 10.4641C9.42043 10.5656 9.36507 10.6763 9.30971 10.7778C9.2359 10.9439 9.17131 11.11 9.1344 11.2761C9.08827 11.4514 9.06982 11.6267 9.06059 11.8112C9.0975 11.8112 9.14363 11.8112 9.18054 11.8205C9.48502 11.9035 9.7895 11.9681 10.0848 12.0604C10.7952 12.2818 11.4872 12.5678 12.1515 12.9092C12.5483 13.1122 12.9358 13.3429 13.3141 13.592C13.5632 13.7581 13.8123 13.9334 14.0614 14.0995C14.4028 13.7766 14.6427 13.3983 14.7811 12.9461C14.4859 12.697 14.1537 12.4848 13.8308 12.2726C13.1572 11.8574 12.456 11.4883 11.7271 11.1838Z" fill="#F24E55"/>
  <path d="M14.5597 11.2853C14.1353 11.0085 13.6924 10.7594 13.2403 10.5195C12.5298 10.1412 11.7825 9.84589 11.0259 9.57831C10.8782 9.52295 10.7122 9.50449 10.5738 9.41222C10.2877 9.56908 10.0386 9.76285 9.8264 9.99352C9.69723 10.1319 9.58651 10.2888 9.48502 10.4549C9.52192 10.4641 9.5496 10.4641 9.58651 10.4733C10.3246 10.6486 11.0351 10.8793 11.7271 11.1746C12.456 11.4883 13.1572 11.8481 13.8308 12.2726C14.1629 12.4848 14.4859 12.6878 14.7811 12.9461C14.8642 12.7616 14.9011 12.5586 14.9195 12.3556C14.9564 12.0604 14.9564 11.7651 14.8826 11.4698C14.7627 11.4421 14.6612 11.3499 14.5597 11.2853Z" fill="#EB4A64"/>
  <path d="M13.2403 10.5195C13.6924 10.7594 14.126 11.0085 14.5597 11.2853C14.6704 11.3499 14.7627 11.4421 14.8918 11.4791C14.8826 11.4145 14.8826 11.3407 14.8642 11.2761C14.735 10.7686 14.4951 10.3257 14.126 9.94738C13.4433 9.25537 12.6036 8.9601 11.6348 9.0616C11.2565 9.09851 10.9059 9.21846 10.5738 9.41222C10.7122 9.49527 10.8782 9.52295 11.0259 9.57831C11.7825 9.84589 12.5298 10.1504 13.2403 10.5195Z" fill="#E34674"/>
</svg>