<svg xmlns="http://www.w3.org/2000/svg" width="24" height="24" viewBox="0 0 24 24" fill="none">
  <path d="M24 6.23629C24 5.62887 23.9588 5.01116 23.9177 4.40375C23.8765 3.69339 23.681 3.0242 23.3208 2.41679C22.5489 1.07842 21.3756 0.306281 19.8525 0.110673C19.1835 0.0180165 18.5043 0.00772136 17.825 0.00772136C14.0274 -0.00257379 10.2196 -0.00257379 6.42196 0.00772136C5.753 0.00772136 5.08405 0.0386068 4.41509 0.0797874C3.64323 0.120968 2.92281 0.347461 2.27444 0.759267C1.00858 1.5417 0.288165 2.68446 0.102916 4.14637C0.0205832 4.81556 0 5.49504 0 6.16422C0 9.69546 0 13.237 0 16.7682C0 17.5507 0.0102916 18.3331 0.0308748 19.1155C0.0411664 19.4861 0.0823328 19.8465 0.154374 20.2068C0.349914 21.2054 0.833619 22.0599 1.5952 22.7497C2.4494 23.5218 3.47856 23.8925 4.61064 23.9439C5.20755 23.9748 5.81475 23.9954 6.41166 23.9954C8.27444 24.0057 10.1475 23.9954 12.0103 23.9954C13.8422 23.9954 15.6844 24.0057 17.5163 23.9954C18.2058 23.9954 18.8954 23.9645 19.5746 23.9234C20.4288 23.8719 21.211 23.6042 21.9211 23.11C23.0223 22.3379 23.681 21.2775 23.8662 19.9494C23.9588 19.3111 23.9794 18.6625 23.9794 18.0139C24 14.0915 24 10.1587 24 6.23629ZM7.86278 19.2597C6.94683 19.2597 6.02058 19.2597 5.10463 19.2597C5.01201 19.2597 4.98113 19.2391 4.98113 19.1361C4.98113 15.9961 4.98113 12.8561 4.98113 9.71605C4.98113 9.62339 5.01201 9.59251 5.10463 9.59251C6.02058 9.59251 6.93654 9.59251 7.85249 9.59251C7.9554 9.59251 7.97599 9.62339 7.97599 9.72634C7.97599 11.2912 7.97599 12.8664 7.97599 14.4312C7.97599 16.0064 7.97599 17.5712 7.97599 19.1464C7.98628 19.2288 7.9554 19.2597 7.86278 19.2597ZM6.45283 8.19237C5.52659 8.19237 4.75472 7.39964 4.76501 6.46278C4.76501 5.50533 5.54717 4.74349 6.494 4.74349C7.44082 4.74349 8.21269 5.52592 8.21269 6.47308C8.2024 7.43053 7.43053 8.19237 6.45283 8.19237ZM19.235 19.0846C19.235 19.2597 19.235 19.2597 19.06 19.2597C18.1955 19.2597 17.331 19.2597 16.4666 19.2597C16.2916 19.2597 16.2916 19.2597 16.2916 19.0846C16.2916 17.3551 16.3019 15.6255 16.2916 13.8856C16.2916 13.3708 16.1372 12.9178 15.7359 12.5575C15.4683 12.3207 15.1492 12.1972 14.789 12.156C14.3568 12.1045 13.9245 12.156 13.5334 12.3619C12.9674 12.6502 12.7101 13.1443 12.5969 13.7415C12.566 13.9062 12.5557 14.0709 12.5557 14.2356C12.5557 15.8623 12.5557 17.4786 12.5557 19.1052C12.5557 19.2494 12.5557 19.2494 12.4117 19.2494C11.5369 19.2494 10.6518 19.2494 9.77702 19.2494C9.63293 19.2494 9.63293 19.2494 9.63293 19.0949C9.63293 15.9755 9.63293 12.8561 9.63293 9.73664C9.63293 9.58221 9.63293 9.58221 9.78731 9.58221C10.6106 9.58221 11.4443 9.58221 12.2676 9.58221C12.3705 9.58221 12.4014 9.6131 12.4014 9.71605C12.3911 10.0764 12.4014 10.447 12.4014 10.8073C12.4014 10.8382 12.4014 10.8794 12.4014 10.9103C12.6381 10.6323 12.8851 10.3955 13.163 10.1896C13.9451 9.62339 14.8199 9.36601 15.7976 9.40719C16.7547 9.44837 17.5678 9.8293 18.247 10.4779C18.5763 10.797 18.7616 11.2088 18.9365 11.6207C19.1527 12.1148 19.2556 12.6193 19.2453 13.1649C19.2247 15.1416 19.235 17.108 19.235 19.0846Z" fill="#0068CF"/>
  <path d="M18.9154 11.6414C18.7405 11.2296 18.5552 10.8178 18.2259 10.4987C17.5467 9.83979 16.7336 9.46916 15.7765 9.42798C14.8091 9.3868 13.9343 9.64418 13.1419 10.2104C12.8537 10.4163 12.6067 10.6531 12.3803 10.9311C12.3803 10.9002 12.3803 10.859 12.3803 10.8281C12.3803 10.4678 12.3803 10.0972 12.3803 9.73684C12.3803 9.63389 12.3494 9.603 12.2465 9.603C11.4232 9.603 10.5895 9.603 9.76622 9.603C9.61184 9.603 9.61184 9.603 9.61184 9.75743C9.61184 12.8769 9.61184 15.9963 9.61184 19.1157C9.61184 19.2701 9.61184 19.2701 9.75593 19.2701C10.6307 19.2701 11.5158 19.2701 12.3906 19.2701C12.5347 19.2701 12.5347 19.2701 12.5347 19.126C12.5347 17.4994 12.5347 15.883 12.5347 14.2564C12.5347 14.0917 12.5449 13.9167 12.5758 13.7622C12.689 13.1754 12.9463 12.671 13.5124 12.3827C13.9034 12.1768 14.3357 12.1253 14.7679 12.1768C15.1178 12.218 15.4472 12.3415 15.7148 12.5783C16.1058 12.9283 16.2705 13.3916 16.2705 13.9064C16.2808 15.636 16.2705 17.3655 16.2705 19.1054C16.2705 19.2804 16.2705 19.2804 16.4455 19.2804C17.31 19.2804 18.1744 19.2804 19.0389 19.2804C19.2139 19.2804 19.2139 19.2804 19.2139 19.1054C19.2139 17.1391 19.2139 15.1727 19.2139 13.2063C19.2345 12.6401 19.1316 12.1253 18.9154 11.6414Z" fill="white"/>
  <path d="M7.98581 14.421C7.98581 12.8562 7.98581 11.281 7.98581 9.71613C7.98581 9.61318 7.95493 9.58229 7.86231 9.58229C6.94636 9.58229 6.03041 9.58229 5.11445 9.58229C5.02183 9.58229 4.99095 9.61318 4.99095 9.70583C4.99095 12.8459 4.99095 15.9859 4.99095 19.1259C4.99095 19.2288 5.02183 19.2494 5.11445 19.2494C6.03041 19.2494 6.95665 19.2494 7.8726 19.2494C7.96523 19.2494 7.98581 19.2288 7.98581 19.1362C7.98581 17.5713 7.98581 15.9962 7.98581 14.421Z" fill="white"/>
  <path d="M6.494 4.74349C5.54717 4.74349 4.76501 5.50533 4.76501 6.46278C4.76501 7.39964 5.52659 8.18207 6.45283 8.19237C7.43053 8.19237 8.20137 7.4309 8.21167 6.48374C8.21167 5.52629 7.44082 4.74349 6.494 4.74349Z" fill="white"/>
</svg>