<svg width="43" height="27" viewBox="0 0 43 27" fill="none" xmlns="http://www.w3.org/2000/svg">
<path d="M27.1142 3.32079H15.8151V23.6792H27.1142V3.32079Z" fill="#FF5F00"/>
<path d="M16.5326 13.5C16.5308 11.5393 16.974 9.60396 17.8285 7.84039C18.683 6.07682 19.9264 4.53128 21.4647 3.32078C19.5598 1.81947 17.2719 0.885835 14.8628 0.626574C12.4536 0.367312 10.0203 0.792881 7.84099 1.85466C5.66166 2.91643 3.82423 4.57158 2.53873 6.63088C1.25323 8.69019 0.571533 11.0706 0.571533 13.5C0.571533 15.9294 1.25323 18.3098 2.53873 20.3691C3.82423 22.4284 5.66166 24.0836 7.84099 25.1453C10.0203 26.2071 12.4536 26.6327 14.8628 26.3734C17.2719 26.1142 19.5598 25.1805 21.4647 23.6792C19.9264 22.4687 18.683 20.9232 17.8285 19.1596C16.974 17.396 16.5309 15.4607 16.5326 13.5Z" fill="#EB001B"/>
<path d="M42.3572 13.5C42.3573 15.9294 41.6757 18.3098 40.3903 20.3691C39.1049 22.4284 37.2675 24.0835 35.0882 25.1453C32.9089 26.2071 30.4756 26.6327 28.0665 26.3734C25.6574 26.1142 23.3696 25.1805 21.4647 23.6792C23.0017 22.4675 24.2441 20.9217 25.0985 19.1584C25.9528 17.3951 26.3968 15.4603 26.3968 13.5C26.3968 11.5396 25.9528 9.60487 25.0985 7.84158C24.2441 6.07829 23.0017 4.53251 21.4647 3.32078C23.3696 1.81947 25.6574 0.885828 28.0665 0.62657C30.4756 0.367312 32.9089 0.7929 35.0882 1.85469C37.2675 2.91647 39.1049 4.57161 40.3903 6.63093C41.6757 8.69024 42.3573 11.0706 42.3572 13.5Z" fill="#F79E1B"/>
<path d="M41.1253 21.5229V21.1061H41.2929V21.0212H40.866V21.1061H41.0337V21.5229H41.1253ZM41.954 21.5229V21.0204H41.8232L41.6727 21.3661L41.5221 21.0204H41.3912V21.5229H41.4836V21.1439L41.6248 21.4707H41.7206L41.8617 21.143V21.5229H41.954Z" fill="#F79E1B"/>
</svg>