<svg xmlns="http://www.w3.org/2000/svg" width="20" height="19" viewBox="0 0 20 19" fill="none">
  <path d="M19.7802 4.28571V4.17582C19.7802 1.0989 18.7912 0 15.6044 0H4.83516C4.83516 0 4.61538 0 4.28571 0C3.40659 0 1.53846 0.32967 0.769231 1.42857C0.21978 2.30769 0 3.40659 0 4.94505V10.2198C0.769231 9.34066 1.75824 8.68132 2.96703 8.46154C3.40659 8.35165 3.95604 8.24176 4.50549 8.24176C7.8022 8.24176 10.5494 10.8791 10.5494 14.2857C10.5494 15.3846 10.2198 16.4835 9.67033 17.3626H15.7143C15.8242 17.3626 16.044 17.3626 16.1538 17.3626C19.011 17.1429 20 15.9341 20 12.6374V4.94505C19.8901 4.72527 19.8901 4.50549 19.7802 4.28571ZM14.9451 9.89011C14.8352 10.1099 14.6154 10.2198 14.3956 10.2198C14.2857 10.2198 14.0659 10.2198 13.956 10.1099C13.2967 9.56044 12.4176 9.56044 11.7582 10.1099C11.4286 10.2198 10.989 10.2198 10.7692 9.89011C10.4396 9.56044 10.5494 9.12088 10.8791 8.9011C12.0879 8.02198 13.6264 8.02198 14.8352 8.9011C15.1648 9.12088 15.1648 9.56044 14.9451 9.89011ZM16.4835 7.69231C16.3736 7.91209 16.1538 8.02198 15.9341 8.02198C15.8242 8.02198 15.6044 8.02198 15.4945 7.91209C13.8462 6.59341 11.7582 6.59341 10.2198 7.91209C9.89011 8.13187 9.45055 8.02198 9.23077 7.69231C8.9011 7.47253 9.01099 7.03297 9.34066 6.7033C11.4286 5.05494 14.1758 5.05494 16.3736 6.7033C16.7033 6.92308 16.7033 7.47253 16.4835 7.69231ZM17.5824 5.27472C17.4725 5.49451 17.2527 5.6044 17.033 5.6044C16.9231 5.6044 16.7033 5.6044 16.5934 5.4945C14.2857 3.73626 11.3187 3.73626 9.12088 5.4945C8.79121 5.6044 8.35165 5.6044 8.13187 5.27472C7.8022 4.94506 7.91209 4.50549 8.24176 4.28571C11.0989 2.08791 14.7253 2.08791 17.4725 4.28571C17.8022 4.50549 17.8022 4.94506 17.5824 5.27472Z" fill="#4F4F4F"/>
  <path d="M4.50549 9.67033C1.97802 9.67033 0 11.6484 0 14.0659C0 14.2857 0 14.5055 0 14.7253C0.10989 15.2747 0.32967 15.9341 0.549451 16.3736C1.31868 17.6923 2.85714 18.5714 4.3956 18.5714C5.93407 18.5714 7.36264 17.6923 8.24176 16.3736C8.57143 15.8242 8.79121 15.2747 8.9011 14.7253C8.9011 14.5055 8.9011 14.2857 8.9011 14.0659C8.9011 11.6484 6.92308 9.67033 4.50549 9.67033ZM6.92308 15.6044C6.37363 16.4835 5.4945 16.9231 4.50549 16.9231C3.51648 16.9231 2.63736 16.3736 2.08791 15.4945C1.86813 15.0549 1.64835 14.6154 1.64835 14.0659C1.64835 12.5275 2.96703 11.2088 4.50549 11.2088C6.04396 11.2088 7.36264 12.5275 7.36264 14.0659C7.25275 14.6154 7.14286 15.1648 6.92308 15.6044Z" fill="#4F4F4F"/>
</svg>