<svg xmlns="http://www.w3.org/2000/svg" width="46" height="44" viewBox="0 0 46 44" fill="none">
  <path d="M1.9783 39.3376L1.97826 39.3376L1.98036 39.3409C3.55399 41.8137 6.25378 43.3907 9.183 43.3907C12.1117 43.3907 14.8111 41.8143 16.3848 39.3422C17.2911 37.982 17.5143 36.4022 17.5147 35.0625C17.7379 30.3334 13.9097 26.5061 9.40416 26.5061C4.67763 26.5061 0.851302 30.3324 0.851302 35.059C0.851302 36.6325 1.3002 38.2074 1.9783 39.3376ZM14.5931 38.066L14.587 38.0741L14.5821 38.083C13.5049 40.0219 11.567 41.1028 9.183 41.1028C7.02512 41.1028 5.07937 40.0253 3.77767 38.0728L3.77786 38.0726L3.7729 38.066C3.13723 37.2185 2.91799 36.1505 2.91799 34.8378C2.91799 31.3813 5.72653 28.5728 9.183 28.5728C12.6395 28.5728 15.448 31.3813 15.448 34.8378C15.448 36.1505 15.2288 37.2185 14.5931 38.066ZM11.9102 6.73465L11.9094 6.74241V6.75022V7.265H10.0676C6.52645 7.265 4.20309 7.76007 2.77473 9.18843C1.34637 10.6168 0.851302 12.9401 0.851302 16.4813V24.6643C0.851302 24.9339 0.984567 25.1909 1.17131 25.3777C1.35805 25.5644 1.61513 25.6977 1.88465 25.6977C2.15417 25.6977 2.41125 25.5644 2.59799 25.3777C2.78473 25.1909 2.91799 24.9339 2.91799 24.6643V16.4813C2.91799 14.991 2.9872 13.8147 3.18094 12.8868C3.37434 11.9605 3.68962 11.2928 4.17377 10.8086C4.65792 10.3245 5.32559 10.0092 6.25189 9.81581C7.17983 9.62206 8.35612 9.55286 9.84649 9.55286H30.1934H30.196H30.1986H30.2012H30.2038H30.2064H30.209H30.2117H30.2143H30.2169H30.2196H30.2222H30.2249H30.2275H30.2302H30.2328H30.2355H30.2382H30.2409H30.2435H30.2462H30.2489H30.2516H30.2543H30.257H30.2597H30.2624H30.2652H30.2679H30.2706H30.2733H30.2761H30.2788H30.2816H30.2843H30.2871H30.2898H30.2926H30.2954H30.2981H30.3009H30.3037H30.3065H30.3093H30.3121H30.3149H30.3177H30.3205H30.3233H30.3261H30.3289H30.3317H30.3346H30.3374H30.3402H30.3431H30.3459H30.3487H30.3516H30.3544H30.3573H30.3602H30.363H30.3659H30.3688H30.3717H30.3745H30.3774H30.3803H30.3832H30.3861H30.389H30.3919H30.3948H30.3977H30.4006H30.4035H30.4065H30.4094H30.4123H30.4153H30.4182H30.4211H30.4241H30.427H30.43H30.4329H30.4359H30.4388H30.4418H30.4448H30.4477H30.4507H30.4537H30.4567H30.4596H30.4626H30.4656H30.4686H30.4716H30.4746H30.4776H30.4806H30.4836H30.4866H30.4896H30.4926H30.4957H30.4987H30.5017H30.5047H30.5078H30.5108H30.5138H30.5169H30.5199H30.523H30.526H30.5291H30.5321H30.5352H30.5382H30.5413H30.5443H30.5474H30.5505H30.5536H30.5566H30.5597H30.5628H30.5659H30.5689H30.572H30.5751H30.5782H30.5813H30.5844H30.5875H30.5906H30.5937H30.5968H30.5999H30.603H30.6061H30.6093H30.6124H30.6155H30.6186H30.6217H30.6249H30.628H30.6311H30.6342H30.6374H30.6405H30.6437H30.6468H30.6499H30.6531H30.6562H30.6594H30.6625H30.6657H30.6688H30.672H30.6751H30.6783H30.6815H30.6846H30.6878H30.691H30.6941H30.6973H30.7005H30.7036H30.7068H30.71H30.7132H30.7163H30.7195H30.7227H30.7259H30.7291H30.7323H30.7354H30.7386H30.7418H30.745H30.7482H30.7514H30.7546H30.7578H30.761H30.7642H30.7674H30.7706H30.7738H30.777H30.7802H30.7834H30.7866H30.7898H30.793H30.7963H30.7995H30.8027H30.8059H30.8091H30.8123H30.8155H30.8188H30.822H30.8252H30.8284H30.8316H30.8349H30.8381H30.8413H30.8445H30.8478H30.851H30.8542H30.8574H30.8607H30.8639H30.8671H30.8704H30.8736H30.8768H30.8801H30.8833H30.8865H30.8898H30.893H30.8962H30.8995H30.9027H30.9059H30.9092H30.9124H30.9156H30.9189H30.9221H30.9254H30.9286H30.9318H30.9351H30.9383H30.9416H30.9448H30.948H30.9513H30.9545H30.9577H30.961H30.9642H30.9675H30.9707H30.9739H30.9772H30.9804H30.9837H30.9869H30.9901H30.9934H30.9966H30.9999H31.0031H31.0063H31.0096H31.0128H31.0161H31.0193H31.0225H31.0258H31.029H31.0322H31.0355H31.0387H31.0419H31.0452H31.0484H31.0516H31.0549H31.0581H31.0613H31.0646H31.0678H31.071H31.0743H31.0775H31.0807H31.0839H31.0872H31.0904H31.0936H31.0968H31.1001H31.1033H31.1065H31.1097H31.113H31.1162H31.1194H31.1226H31.1258H31.129H31.1323H31.1355H31.1387H31.1419H31.1451H31.1483H31.1515H31.1547H31.1579H31.1611H31.1643H31.1675H31.1707H31.1739H31.1771H31.1803H31.1835H31.1867H31.1899H31.1931H31.1963H31.1995H31.2027H31.2059H31.2091H31.2122H31.2154H31.2186H31.2218H31.225H31.2281H31.2313H31.2345H31.2376H31.2408H31.244H31.2472H31.2503H31.2535H31.2566H31.2598H31.263H31.2661H31.2693H31.2724H31.2756H31.2787H31.2819H31.285H31.2881H31.2913H31.2944H31.2976H31.3007H31.3038H31.3069H31.3101H31.3132H31.3163H31.3194H31.3226H31.3257H31.3288H31.3319H31.335H31.3381H31.3412H31.3443H31.3474H31.3505H31.3536H31.3567H31.3598H31.3629H31.366H31.3691H31.3722H31.3752H31.3783H31.3814H31.3845H31.3875H31.3906H31.3937H31.3967H31.3998H31.4028H31.4059H31.4089H31.412H31.415H31.4181H31.4211H31.4241H31.4272H31.4302H31.4332H31.4363H31.4393H31.4423H31.4453H31.4483H31.4513H31.4543H31.4573H31.4603H31.4633H31.4663H31.4693H31.4723H31.4753H31.4783H31.4813H31.4842H31.4872H31.4902H31.4931H31.4961H31.4991H31.502H31.505H31.5079H31.5109H31.5138H31.5168H31.5197H31.5226H31.5255H31.5285H31.5314H31.5343H31.5372H31.5401H31.543H31.5459H31.5488H31.5517H31.5546H31.5575H31.5604H31.5633H31.5662H31.569H31.5719H31.5748H31.5776H31.5805H31.5833H31.5862H31.589H31.5919H31.5947H31.5976H31.6004H31.6032H31.606H31.6089H31.6117H31.6145H31.6173H31.6201H31.6229H31.6257H31.6285H31.6312H31.634H31.6368H31.6396H31.6423H31.6451H31.6479H31.6506H31.6534H31.6561H31.6589H31.6616H31.6643H31.6671H31.6698H31.6725H31.6752H31.6779H31.6806H31.6833H31.686H31.6887H31.6914H31.6941H31.6968H31.6994H31.7021H31.7048H31.7074H31.7101H31.7127H31.7154H31.718H31.7206H31.7233H31.7259H31.7285H31.7311H31.7337H31.7363H31.7374C33.7263 9.66363 35.0574 9.94051 35.9265 10.7306C36.792 11.5174 37.2326 12.8456 37.3431 15.1579V31.5204C37.3431 33.0107 37.2739 34.187 37.0801 35.115C36.8867 36.0413 36.5714 36.7089 36.0873 37.1931C35.6031 37.6772 34.9355 37.9925 34.0092 38.1859C33.0812 38.3797 31.9049 38.4489 30.4146 38.4489H21.1258C20.8562 38.4489 20.5992 38.5821 20.4124 38.7689C20.2257 38.9556 20.0924 39.2127 20.0924 39.4822C20.0924 39.7517 20.2257 40.0088 20.4124 40.1955C20.5992 40.3823 20.8562 40.5156 21.1258 40.5156H30.4146C33.9558 40.5156 36.2791 40.0205 37.7075 38.5921C39.1358 37.1638 39.6309 34.8404 39.6309 31.2992V28.5728H39.9245H39.9362L39.9477 28.571C42.0811 28.2341 43.3441 27.3854 44.0631 26.0912C44.7744 24.8108 44.9388 23.1175 44.9388 21.1258V8.52235C45.0492 5.64346 44.666 3.70656 43.4577 2.49828C42.2508 1.29142 40.2599 0.851302 37.2706 0.851302H19.7988C17.137 0.851302 15.2711 1.23803 14.0146 2.18037C12.7509 3.1282 12.1334 4.6145 11.9102 6.73465ZM43.0208 21.2745H43.0929C43.0858 22.7495 42.9695 23.8892 42.6081 24.7153C42.4229 25.1388 42.1742 25.4771 41.844 25.7361C41.5133 25.9954 41.0938 26.1809 40.5589 26.2878L40.5588 26.2877L40.552 26.2894L39.8521 26.4644V16.4813V16.4788V16.4762V16.4736V16.471V16.4684V16.4658V16.4632V16.4606V16.458V16.4554V16.4528V16.4503V16.4477V16.4451V16.4425V16.4399V16.4373V16.4347V16.4321V16.4295V16.4269V16.4243V16.4218V16.4192V16.4166V16.414V16.4114V16.4088V16.4062V16.4036V16.4011V16.3985V16.3959V16.3933V16.3907V16.3881V16.3855V16.383V16.3804V16.3778V16.3752V16.3726V16.37V16.3675V16.3649V16.3623V16.3597V16.3571V16.3545V16.352V16.3494V16.3468V16.3442V16.3417V16.3391V16.3365V16.3339V16.3313V16.3288V16.3262V16.3236V16.3211V16.3185V16.3159V16.3133V16.3108V16.3082V16.3056V16.3031V16.3005V16.2979V16.2954V16.2928V16.2902V16.2877V16.2851V16.2825V16.28V16.2774V16.2749V16.2723V16.2697V16.2672V16.2646V16.2621V16.2595V16.257V16.2544V16.2518V16.2493V16.2467V16.2442V16.2416V16.2391V16.2365V16.234V16.2315V16.2289V16.2264V16.2238V16.2213V16.2187V16.2162V16.2137V16.2111V16.2086V16.2061V16.2035V16.201V16.1985V16.1959V16.1934V16.1909V16.1883V16.1858V16.1833V16.1808V16.1782V16.1757V16.1732V16.1707V16.1681V16.1656V16.1631V16.1606V16.1581V16.1556V16.1531V16.1506V16.148V16.1455V16.143V16.1405V16.138V16.1355V16.133V16.1305V16.128V16.1255V16.123V16.1205V16.118V16.1155V16.1131V16.1106V16.1081V16.1056V16.1031V16.1006V16.0981V16.0957V16.0932V16.0907V16.0882V16.0858V16.0833V16.0808V16.0784V16.0759V16.0734V16.071V16.0685V16.066V16.0636V16.0611V16.0587V16.0562V16.0537V16.0513V16.0488V16.0464V16.044V16.0415V16.0391V16.0366V16.0342V16.0317V16.0293V16.0269V16.0244V16.022V16.0196V16.0172V16.0147V16.0123V16.0099V16.0075V16.005V16.0026V16.0002V15.9978V15.9954V15.993V15.9906V15.9882V15.9858V15.9834V15.981V15.9786V15.9762V15.9738V15.9714V15.969V15.9666V15.9642V15.9619V15.9595V15.9571V15.9547V15.9523V15.95V15.9476V15.9452V15.9429V15.9405V15.9381V15.9358V15.9334V15.9311V15.9287V15.9264V15.924V15.9217V15.9193V15.917V15.9146V15.9123V15.91V15.9076V15.9053V15.903V15.9006V15.8983V15.896V15.8937V15.8914V15.889V15.8867V15.8844V15.8821V15.8798V15.8775V15.8752V15.8729V15.8706V15.8683V15.866V15.8637V15.8614V15.8592V15.8569V15.8546V15.8523V15.85V15.8478V15.8455V15.8432V15.841V15.8387V15.8365V15.8342V15.8319V15.8297V15.8274V15.8252V15.823V15.8207V15.8185V15.8162V15.814V15.8118V15.8096V15.8073V15.8051V15.8029V15.8007V15.7985V15.7962V15.794V15.7918V15.7896V15.7874V15.7852V15.783V15.7808V15.7787V15.7765V15.7743V15.7721V15.7699V15.7678V15.7656V15.7634V15.7613V15.7591V15.7569V15.7548V15.7526V15.7505V15.7483V15.7462V15.744V15.7419V15.7398V15.7376V15.7355V15.7334V15.7312V15.7291V15.727V15.7249V15.7228V15.7207V15.7186V15.7165V15.7144V15.7123V15.7102V15.7081V15.706V15.7039V15.7018V15.6997V15.6977V15.6956V15.6935V15.6915V15.6894V15.6873V15.6853V15.6832V15.6812V15.6791V15.6771V15.6751V15.673V15.671V15.669V15.6669V15.6649V15.6629V15.6609V15.6589V15.6569V15.6549V15.6529V15.6509V15.6489V15.6469V15.6449V15.6429V15.6409V15.6389V15.637V15.635V15.633V15.6311V15.6291V15.6272V15.6252V15.6233V15.6213V15.6194V15.6174V15.6155V15.6136V15.6116V15.6097V15.6078V15.6059V15.604V15.602V15.6001V15.5982V15.5963V15.5944V15.5926V15.5907V15.5888V15.5869V15.585V15.5832V15.5813V15.5794V15.5776V15.5757V15.5739V15.572V15.5702V15.5683V15.5665V15.5646V15.5628V15.561V15.5592V15.5573V15.5555V15.5537V15.5519V15.5501V15.5483V15.5465V15.5447V15.5429V15.5412V15.5394V15.5376V15.5358V15.5341V15.5323V15.5305V15.5288V15.527V15.5253V15.5235V15.5218V15.5201V15.5183V15.5166V15.5149V15.5132V15.5115V15.5098V15.5081V15.5064V15.5047V15.503V15.5013V15.4996V15.4979V15.4962V15.4946V15.4929V15.4912V15.4896V15.4879V15.4863V15.4846V15.483V15.4813V15.4797V15.4781V15.4765V15.4748V15.4732V15.4716V15.47V15.4684V15.4668V15.4652V15.4636V15.462V15.4605V15.4589V15.4573V15.4558V15.4542V15.4526V15.4511V15.4495V15.448V15.4465V15.4449V15.4434V15.4419V15.4403V15.4388V15.4373V15.4358V15.4343V15.4328V15.4313V15.4298V15.4283V15.4269V15.4254V15.4239V15.4225V15.421V15.4195V15.4181V15.4166V15.4152V15.4138V15.4123V15.4109V15.4095V15.4081V15.4067V15.4053V15.4039V15.4025V15.4011V15.3997V15.3983V15.3969V15.3955V15.3942V15.3928V15.3914V15.3901V15.3887V15.3874V15.3861V15.3847V15.3834V15.3821V15.3808V15.3794V15.3781V15.3768V15.3755V14.9332C39.8521 12.0528 39.4114 10.1162 38.1473 8.90957C36.8856 7.70516 34.8412 7.265 31.7415 7.265H14.1973V6.75519C14.3067 5.12597 14.7916 4.24656 15.6692 3.7561C16.5704 3.25254 17.9135 3.13916 19.7988 3.13916H37.0494C38.3189 3.13916 39.316 3.19454 40.0994 3.35054C40.8815 3.50629 41.4385 3.76003 41.8392 4.14783C42.2395 4.53516 42.499 5.07092 42.6576 5.82034C42.8167 6.57172 42.8721 7.52655 42.8721 8.74067V21.1258V21.2745H43.0208ZM15.6632 19.7106L15.678 19.7032L15.6909 19.6927C18.0956 17.7252 20.937 16.8512 23.5585 16.8512C26.3998 16.8512 29.0204 17.7243 31.4262 19.6927L31.439 19.7032L31.4539 19.7106C31.6922 19.8298 31.9433 19.8958 32.2023 19.8634C32.4629 19.8308 32.7131 19.7009 32.9525 19.4616L32.9696 19.4445L32.9803 19.423C33.0995 19.1846 33.1655 18.9335 33.1331 18.6745C33.1005 18.4139 32.9707 18.1637 32.7313 17.9243L32.7242 17.9172L32.7162 17.9111C27.1339 13.6686 19.762 13.6686 14.1798 17.9111L14.121 17.9557V18.0295C14.121 18.0981 14.0858 18.1755 14.0261 18.2947C14.0241 18.2989 14.022 18.303 14.0198 18.3073C13.9692 18.4083 13.8999 18.5466 13.8999 18.693V18.6996C13.8998 18.917 13.8998 19.1851 14.148 19.4447C14.2917 19.7106 14.5611 19.8333 14.8339 19.8636C15.1133 19.8947 15.4184 19.833 15.6632 19.7106ZM29.2195 24.341L29.2303 24.349L29.2423 24.355C29.4806 24.4742 29.7317 24.5402 29.9907 24.5078C30.2513 24.4752 30.5015 24.3453 30.7409 24.106L30.7579 24.0889L30.7687 24.0674C30.8879 23.829 30.9539 23.5779 30.9215 23.3189C30.8889 23.0583 30.7591 22.8081 30.5197 22.5687L30.5135 22.5626L30.5067 22.5572C26.2506 19.1971 20.8665 19.1971 16.6104 22.5572L16.6035 22.5626L16.5974 22.5687C16.3498 22.8163 16.2263 23.1252 16.1953 23.4039C16.1665 23.6632 16.2157 23.9287 16.359 24.0878C16.5025 24.3546 16.7723 24.4777 17.0455 24.508C17.3249 24.5391 17.63 24.4774 17.8748 24.355L17.8868 24.349L17.8975 24.341C19.6425 23.0322 21.602 22.3803 23.5585 22.3803C25.5151 22.3803 27.4745 23.0322 29.2195 24.341ZM26.1157 28.9793L26.1296 28.9912L26.146 28.9994C26.3843 29.1186 26.6354 29.1846 26.8944 29.1522C27.155 29.1196 27.4053 28.9898 27.6446 28.7504L27.6617 28.7333L27.6725 28.7118C27.7916 28.4735 27.8576 28.2223 27.8252 27.9633C27.7927 27.7027 27.6628 27.4525 27.4234 27.2131L27.4176 27.2073L27.4112 27.2022C26.2786 26.2961 24.9187 25.8426 23.5585 25.8426C22.1841 25.8426 20.8249 26.5281 19.7059 27.4233L19.6995 27.4285L19.6936 27.4343C19.5659 27.562 19.5016 27.6907 19.4467 27.8005L19.4446 27.8047C19.3894 27.9152 19.3431 28.006 19.2513 28.0978L19.2078 28.1413V28.2029V28.2095C19.2077 28.4318 19.2077 28.7068 19.4725 28.9716C19.6002 29.0993 19.7289 29.1636 19.8386 29.2185L19.8429 29.2206C19.9534 29.2759 20.0441 29.3221 20.136 29.4139L20.2411 29.519L20.3462 29.4139C20.4381 29.3221 20.5288 29.2759 20.6393 29.2206L20.6436 29.2185C20.7521 29.1642 20.8792 29.1007 21.0055 28.9758C22.4978 27.7001 24.6246 27.7013 26.1157 28.9793Z" fill="#005097" stroke="#005097" stroke-width="0.297395"/>
</svg>