<svg xmlns="http://www.w3.org/2000/svg" width="24" height="24" viewBox="0 0 24 24" fill="none">
  <path d="M17.028 0H6.972C2.604 0 0 2.604 0 6.972V17.028C0 20.4 1.548 22.716 4.272 23.592C5.064 23.868 5.976 24 6.972 24H17.028C18.024 24 18.936 23.868 19.728 23.592C22.452 22.716 24 20.4 24 17.028V6.972C24 2.604 21.396 0 17.028 0ZM22.2 17.028C22.2 19.596 21.192 21.216 19.164 21.888C18 19.596 15.24 17.964 12 17.964C8.76 17.964 6.012 19.584 4.836 21.888H4.824C2.82 21.24 1.8 19.608 1.8 17.04V6.972C1.8 3.588 3.588 1.8 6.972 1.8H17.028C20.412 1.8 22.2 3.588 22.2 6.972V17.028Z" fill="white"/>
  <path d="M11.9999 7.2C9.62391 7.2 7.70391 9.12 7.70391 11.496C7.70391 13.872 9.62391 15.804 11.9999 15.804C14.3759 15.804 16.2959 13.872 16.2959 11.496C16.2959 9.12 14.3759 7.2 11.9999 7.2Z" fill="white"/>
</svg>