<svg xmlns="http://www.w3.org/2000/svg" width="25" height="25" viewBox="0 0 25 25" fill="none">
  <g clip-path="url(#clip0_194_989)">
    <path d="M24.2188 5.4693H13.2812C12.85 5.4693 12.5 5.8193 12.5 6.25055C12.5 6.6818 12.85 7.0318 13.2812 7.0318H21.9422L17.1422 10.7646L13.7 8.57555L12.8625 9.8943L16.7688 12.3787C16.8953 12.4599 17.0422 12.5005 17.1875 12.5005C17.3562 12.5005 17.5266 12.4459 17.6672 12.3365L23.4375 7.84742V17.9693H13.2812C12.85 17.9693 12.5 18.3193 12.5 18.7505C12.5 19.1818 12.85 19.5318 13.2812 19.5318H24.2188C24.65 19.5318 25 19.1818 25 18.7505V6.25055C25 5.8193 24.65 5.4693 24.2188 5.4693Z" fill="#1976D2"/>
    <path d="M13.7797 0.961471C13.6016 0.813034 13.3625 0.748971 13.1375 0.795846L0.6375 3.1396C0.267187 3.20835 0 3.53022 0 3.90678V21.0943C0 21.4693 0.267187 21.7927 0.6375 21.8615L13.1375 24.2052C13.1844 24.2146 13.2328 24.2193 13.2812 24.2193C13.4625 24.2193 13.6391 24.1568 13.7797 24.0396C13.9594 23.8912 14.0625 23.6693 14.0625 23.438V1.56303C14.0625 1.33022 13.9594 1.10991 13.7797 0.961471Z" fill="#2196F3"/>
    <path d="M7.03125 17.9693C4.87812 17.9693 3.125 15.8662 3.125 13.2818C3.125 10.6974 4.87812 8.5943 7.03125 8.5943C9.18437 8.5943 10.9375 10.6974 10.9375 13.2818C10.9375 15.8662 9.18437 17.9693 7.03125 17.9693ZM7.03125 10.1568C5.73906 10.1568 4.6875 11.5584 4.6875 13.2818C4.6875 15.0052 5.73906 16.4068 7.03125 16.4068C8.32344 16.4068 9.375 15.0052 9.375 13.2818C9.375 11.5584 8.32344 10.1568 7.03125 10.1568Z" fill="#FAFAFA"/>
  </g>
  <defs>
    <clipPath id="clip0_194_989">
      <rect width="25" height="25" fill="white"/>
    </clipPath>
  </defs>
</svg>