<svg xmlns="http://www.w3.org/2000/svg" width="30" height="30" viewBox="0 0 30 30" fill="none">
  <g clip-path="url(#clip0_73_1812)">
    <path d="M0.5 12V27.5C0.501653 28.88 1.61997 29.9984 3 30H21C21.6634 30.0019 22.3001 29.7383 22.768 29.268C22.9575 29.0718 22.9548 28.76 22.7619 28.5671C22.569 28.3742 22.2572 28.3715 22.061 28.561C21.7801 28.8431 21.3981 29.0011 21 29H3C2.17157 29 1.5 28.3284 1.5 27.5V12.227L7.55 6.9325C8.10349 6.44829 8.41571 5.74494 8.40358 5.00964C8.39144 4.27434 8.05617 3.58168 7.487 3.116L4.9 1H21C21.8284 1 22.5 1.67157 22.5 2.5V9.5C22.5 9.77614 22.7239 10 23 10C23.2761 10 23.5 9.77614 23.5 9.5V2.5C23.4983 1.11997 22.38 0.00165306 21 0H3.5C3.26491 1.227e-05 3.06157 0.163801 3.0115 0.3935L0.5115 11.8935C0.503942 11.9285 0.500088 11.9642 0.5 12ZM3.815 1.404L6.854 3.8905C7.19521 4.16988 7.3962 4.58526 7.40352 5.02619C7.41084 5.46713 7.22375 5.88895 6.892 6.1795L1.8105 10.626L3.815 1.404Z" fill="#005097"/>
    <path d="M3.5 13C3.5 12.7239 3.27614 12.5 3 12.5C2.72386 12.5 2.5 12.7239 2.5 13V14C2.5 14.2761 2.72386 14.5 3 14.5C3.27614 14.5 3.5 14.2761 3.5 14V13Z" fill="#005097"/>
    <path d="M3 15.5C2.72386 15.5 2.5 15.7239 2.5 16V25C2.5 25.2761 2.72386 25.5 3 25.5C3.27614 25.5 3.5 25.2761 3.5 25V16C3.5 15.7239 3.27614 15.5 3 15.5Z" fill="#005097"/>
    <path d="M11 4.5C11.2761 4.5 11.5 4.27614 11.5 4C11.5 3.72386 11.2761 3.5 11 3.5H10C9.72386 3.5 9.5 3.72386 9.5 4C9.5 4.27614 9.72386 4.5 10 4.5H11Z" fill="#005097"/>
    <path d="M20 3.5H13C12.7239 3.5 12.5 3.72386 12.5 4C12.5 4.27614 12.7239 4.5 13 4.5H20C20.2761 4.5 20.5 4.27614 20.5 4C20.5 3.72386 20.2761 3.5 20 3.5Z" fill="#005097"/>
    <path d="M9 7C9 7.27614 9.22386 7.5 9.5 7.5H11.5C11.7761 7.5 12 7.27614 12 7C12 6.72386 11.7761 6.5 11.5 6.5H9.5C9.22386 6.5 9 6.72386 9 7Z" fill="#005097"/>
    <path d="M20 6.5H13.5C13.2239 6.5 13 6.72386 13 7C13 7.27614 13.2239 7.5 13.5 7.5H20C20.2761 7.5 20.5 7.27614 20.5 7C20.5 6.72386 20.2761 6.5 20 6.5Z" fill="#005097"/>
    <path d="M20.7825 12.8C19.9114 11.9257 18.7903 11.3436 17.574 11.134C17.3964 11.0996 17.2141 11.1638 17.0972 11.3019C16.9803 11.44 16.9472 11.6304 17.0105 11.7999C17.0738 11.9693 17.2237 12.0914 17.4025 12.119C19.8382 12.549 21.5913 14.6985 21.5227 17.1709C21.4541 19.6433 19.5845 21.6923 17.1287 21.9866C14.6729 22.2808 12.3722 20.7315 11.7214 18.3453C11.0707 15.959 12.2663 13.4562 14.5315 12.463C14.7757 12.3473 14.8838 12.0586 14.7756 11.811C14.6675 11.5635 14.3823 11.4465 14.1315 11.547C11.721 12.603 10.2799 15.1065 10.5775 17.7213C10.8751 20.3361 12.8419 22.4518 15.4281 22.939C18.0142 23.4263 20.6161 22.1715 21.8448 19.8443C23.0736 17.5171 22.6425 14.6608 20.7815 12.8H20.7825Z" fill="#005097"/>
    <path d="M24.7701 22.4415L23.4251 21.096C25.4738 17.6222 24.6196 13.1669 21.4314 10.6972C18.2432 8.22747 13.7158 8.51399 10.8643 11.3659C8.0129 14.2179 7.72718 18.7453 10.1975 21.9331C12.6678 25.1209 17.1232 25.9743 20.5966 23.925L21.9416 25.2695C21.8486 25.6131 21.946 25.9802 22.1971 26.2325L25.3786 29.414C25.7537 29.7891 26.2624 29.9998 26.7929 29.9998C27.3233 29.9998 27.832 29.7891 28.2071 29.414L28.9141 28.707C29.6949 27.926 29.6949 26.66 28.9141 25.879L25.7321 22.697C25.48 22.4463 25.1134 22.3489 24.7701 22.4415ZM11.5901 21.9915C8.85665 19.2578 8.8568 14.8257 11.5905 12.0922C14.3241 9.35861 18.7561 9.35861 21.4898 12.0922C24.2234 14.8257 24.2236 19.2578 21.4901 21.9915C18.7539 24.7203 14.3252 24.7194 11.5901 21.9895V21.9915ZM22.1971 22.699C22.4321 22.4609 22.6519 22.2082 22.8551 21.9425L23.9646 23.0525L23.2576 23.7595L22.5501 24.4645L21.4401 23.355C21.7059 23.1516 21.9587 22.9318 22.1971 22.697V22.699ZM28.5001 27.293C28.5008 27.5583 28.3953 27.8129 28.2071 28L27.5001 28.707C27.1044 29.085 26.4814 29.085 26.0856 28.707L22.9041 25.525L25.0251 23.404L28.2071 26.586C28.3953 26.773 28.5008 27.0276 28.5001 27.293Z" fill="#005097"/>
  </g>
  <defs>
    <clipPath id="clip0_73_1812">
      <rect width="30" height="30" fill="white"/>
    </clipPath>
  </defs>
</svg>