<svg xmlns="http://www.w3.org/2000/svg" width="149" height="149" viewBox="0 0 149 149" fill="none">
  <path d="M148.82 133.453C147.109 133.453 145.445 133.453 143.797 133.453C143.797 128.272 143.797 123.202 143.797 118.068C145.493 118.068 147.125 118.068 148.804 118.068C148.804 114.63 148.804 111.256 148.804 107.786C147.093 107.786 145.445 107.786 143.734 107.786C143.734 106.439 143.734 105.172 143.734 103.92C143.75 101.813 143.782 99.7214 143.797 97.6142C142.102 97.6142 140.407 97.6142 138.617 97.6142C138.617 96.521 138.632 95.5862 138.617 94.6356C138.601 93.9068 138.807 92.9562 138.426 92.5126C138.11 92.1482 137.096 92.37 136.398 92.3541C135.432 92.3383 134.481 92.3541 133.436 92.3541C133.436 90.5796 133.436 88.9319 133.436 87.2841C131.709 87.2841 130.045 87.2841 128.271 87.2841C128.271 88.9794 128.271 90.6588 128.271 92.37C126.528 92.37 124.896 92.37 123.232 92.37C123.232 94.1128 123.232 95.7764 123.232 97.5192C124.928 97.5192 126.575 97.5192 128.255 97.5192C128.255 99.2461 128.255 100.878 128.255 102.557C124.848 102.557 121.505 102.557 118.051 102.557C118.051 100.846 118.051 99.1986 118.051 97.4875C112.886 97.4875 107.816 97.4875 102.635 97.4875C102.635 95.7447 102.635 94.0652 102.635 92.3224C100.877 92.3224 99.2291 92.3224 97.5814 92.3224C97.5814 88.9002 97.5814 85.573 97.5814 82.1983C99.2608 82.1983 100.909 82.1983 102.651 82.1983C102.651 83.8936 102.651 85.5413 102.651 87.2683C104.442 87.2683 106.137 87.2683 107.832 87.2683C107.832 88.9636 107.832 90.6588 107.832 92.3541C111.286 92.3541 114.677 92.3541 118.146 92.3541C118.146 90.6272 118.146 88.9477 118.146 87.2049C119.889 87.2049 121.537 87.2049 123.153 87.2049C123.153 85.4938 123.153 83.8777 123.153 82.2458C123.454 82.2141 123.771 82.1508 124.072 82.1508C126.924 82.1508 129.76 82.1508 132.612 82.1508C132.897 82.1508 133.166 82.1508 133.499 82.1508C133.499 80.3763 133.499 78.7285 133.499 76.9699C135.226 76.9699 136.89 76.9699 138.585 76.9699C138.585 75.2112 138.585 73.5635 138.585 71.8207C136.858 71.8207 135.194 71.8207 133.515 71.8207C133.515 66.6715 133.515 61.6173 133.515 56.4523C135.226 56.4523 136.89 56.4523 138.632 56.4523C138.632 54.6936 138.632 53.0459 138.632 51.3506C140.359 51.3506 142.007 51.3506 143.75 51.3506C143.75 53.0617 143.75 54.7253 143.75 56.4206C145.493 56.4206 147.14 56.4206 148.82 56.4206C148.82 52.9825 148.82 49.6078 148.82 46.2173C145.382 46.2173 141.991 46.2173 138.537 46.2173C138.537 47.9442 138.537 49.592 138.537 51.2714C136.81 51.2714 135.163 51.2714 133.515 51.2714C133.515 52.9667 133.515 54.662 133.515 56.3414C129.982 56.3414 126.623 56.3414 123.169 56.3414C123.169 51.208 123.169 46.138 123.169 41.0522C119.715 41.0522 116.34 41.0522 112.966 41.0522C112.966 44.4745 112.966 47.865 112.966 51.3189C114.677 51.3189 116.324 51.3189 117.988 51.3189C117.988 53.0301 117.988 54.6778 117.988 56.3255C114.566 56.3255 111.207 56.3255 107.785 56.3255C107.785 47.7699 107.785 39.2936 107.785 30.7697C106.042 30.7697 104.378 30.7697 102.588 30.7697C102.588 32.4808 102.588 34.1602 102.588 35.9347C100.829 35.9347 99.1816 35.9347 97.5338 35.9347C97.5338 37.5825 97.5338 39.246 97.5338 40.9888C99.2132 40.9888 100.845 40.9888 102.556 40.9888C102.556 46.1539 102.556 51.2239 102.556 56.3889C100.893 56.3889 99.2449 56.3889 97.5655 56.3889C97.5655 58.1317 97.5655 59.7953 97.5655 61.5223C99.2132 61.5223 100.861 61.5223 102.556 61.5223C102.556 63.2492 102.556 64.897 102.556 66.624C99.1974 66.624 95.8385 66.624 92.3688 66.624C92.3688 68.3826 92.3688 70.0462 92.3688 71.8682C90.5943 71.8682 88.9148 71.8682 87.2354 71.8682C87.2354 73.5476 87.2354 75.2112 87.2354 76.9857C88.9782 76.9857 90.626 76.9857 92.2737 76.9857C92.2737 78.7285 92.2737 80.3604 92.2737 82.024C87.1562 82.024 82.1021 82.024 76.937 82.024C76.937 80.3129 76.937 78.6335 76.937 76.8907C75.1784 76.8907 73.5306 76.8907 71.9304 76.8907C71.9304 75.1795 71.9304 73.5476 71.9304 71.9316C70.8689 71.8999 69.7915 71.8524 68.73 71.8365C68.0645 71.8207 67.3833 71.8365 66.6386 71.8365C66.6386 77.0491 66.6386 82.1191 66.6386 87.1732C64.9116 87.1732 63.2639 87.1732 61.5528 87.1732C61.5528 83.751 61.5528 80.3921 61.5528 77.0016C59.8258 77.0016 58.1464 77.0016 56.3719 77.0016C56.3719 80.4397 56.3719 83.8144 56.3719 87.2208C54.6132 87.2208 52.9655 87.2208 51.3177 87.2208C51.3177 88.916 51.3177 90.6113 51.3177 92.2749C47.8163 92.2749 44.4733 92.2749 41.0193 92.2749C41.0193 90.5796 41.0193 88.9319 41.0193 87.1574C39.2924 87.1574 37.6446 87.1574 35.9969 87.1574C35.9652 87.4901 35.9018 87.807 35.886 88.1397C35.8701 89.5022 35.886 90.8648 35.886 92.2749C32.4321 92.2749 29.0732 92.2749 25.6351 92.2749C25.6351 90.5955 25.6351 88.9477 25.6351 87.2524C23.8765 87.2524 22.2129 87.2524 20.4542 87.2524C20.4542 88.9477 20.4542 90.5955 20.4542 92.2591C18.7114 92.2591 17.0795 92.2591 15.3525 92.2591C15.3525 90.5638 15.3525 88.916 15.3525 87.1891C13.6256 87.1891 11.9778 87.1891 10.2509 87.1891C10.2509 85.4621 10.2509 83.8144 10.2509 82.1191C6.7811 82.1191 3.4064 82.1191 0 82.1191C0 85.5413 0 88.916 0 92.3066C1.71112 92.3066 3.37471 92.3066 5.11752 92.3066C5.11752 90.5796 5.11752 88.9319 5.11752 87.2524C6.84448 87.2524 8.47638 87.2524 10.1558 87.2524C10.1558 90.6588 10.1558 94.0335 10.1558 97.4875C6.74942 97.4875 3.39055 97.4875 0.0316874 97.4875C0.0316874 99.2461 0.0316874 100.91 0.0316874 102.653C3.43808 102.653 6.7811 102.653 10.235 102.653C10.235 104.395 10.235 106.059 10.235 107.707C12.0095 107.707 13.6573 107.707 15.4001 107.707C15.4001 104.269 15.4001 100.894 15.4001 97.535C18.854 97.535 22.2129 97.535 25.5876 97.535C25.5876 99.2303 25.5876 100.878 25.5876 102.605C23.8765 102.605 22.2287 102.605 20.5176 102.605C20.5176 104.348 20.5176 106.011 20.5176 107.802C27.3779 107.802 34.1907 107.802 41.051 107.802C41.051 109.545 41.051 111.161 41.051 112.888C41.3837 112.888 41.6689 112.888 41.9383 112.888C44.093 112.888 46.2636 112.888 48.4342 112.888C49.369 112.888 50.3037 112.84 51.2544 112.824C51.2544 114.519 51.2544 116.231 51.2544 118.037C49.5749 118.037 47.9114 118.037 46.1369 118.037C46.1369 123.218 46.1369 128.303 46.1369 133.453C44.3941 133.453 42.7463 133.453 41.0986 133.453C41.0986 136.922 41.0986 140.297 41.0986 143.751C42.8097 143.751 44.4574 143.751 46.2002 143.751C46.2002 145.478 46.2002 147.126 46.2002 148.774C53.0764 148.774 59.8733 148.774 66.7495 148.774C66.7495 145.367 66.7495 142.04 66.7495 138.634C68.4765 138.634 70.1242 138.634 71.8512 138.634C71.8512 140.329 71.8512 141.977 71.8512 143.704C72.279 143.704 72.6117 143.704 72.9444 143.704C74.2594 143.719 75.5744 143.751 76.8736 143.783C76.9053 142.769 76.9529 141.755 76.9845 140.741C77.0004 140.044 76.9845 139.347 76.9845 138.538C78.7907 138.538 80.4543 138.538 82.1021 138.538C82.1021 136.78 82.1021 135.132 82.1021 133.389C80.3909 133.389 78.7115 133.389 76.9529 133.389C76.9529 129.92 76.9529 126.545 76.9529 123.154C78.664 123.154 80.3909 123.154 82.1971 123.154C82.1971 119.653 82.1971 116.294 82.1971 112.84C85.651 112.84 89.0099 112.84 92.3688 112.84C92.3688 111.097 92.3688 109.449 92.3688 107.738C90.6577 107.738 88.9941 107.738 87.2988 107.738C87.2988 100.878 87.2988 94.0811 87.2988 87.2524C88.9782 87.2524 90.626 87.2524 92.3529 87.2524C92.3529 88.7418 92.3846 90.1835 92.3371 91.6412C92.3212 92.2432 92.5114 92.4175 93.0976 92.4016C94.5394 92.37 95.9811 92.3858 97.4704 92.3858C97.4704 94.1128 97.4704 95.7605 97.4704 97.5033C95.7593 97.5033 94.0957 97.5033 92.3846 97.5033C92.3846 99.2461 92.3846 100.894 92.3846 102.653C94.0957 102.653 95.7752 102.653 97.518 102.653C97.518 104.411 97.518 106.059 97.518 107.786C99.2449 107.786 100.893 107.786 102.556 107.786C102.556 111.224 102.556 114.583 102.556 118.037C100.861 118.037 99.2132 118.037 97.518 118.037C97.518 118.417 97.518 118.718 97.518 119.003C97.518 123.329 97.518 127.654 97.518 131.979C97.518 132.47 97.5497 132.962 97.5655 133.453C99.2291 133.453 100.909 133.453 102.651 133.453C102.651 138.618 102.651 143.704 102.651 148.774C106.105 148.774 109.464 148.774 112.871 148.774C112.871 147.078 112.871 145.431 112.871 143.688C111.175 143.688 109.527 143.688 107.848 143.688C107.848 141.961 107.848 140.313 107.848 138.57C109.543 138.57 111.191 138.57 112.934 138.57C112.934 135.116 112.934 131.757 112.934 128.367C114.677 128.367 116.324 128.367 118.067 128.367C118.067 131.773 118.067 135.148 118.067 138.602C121.537 138.602 124.88 138.602 128.239 138.602C128.239 140.345 128.239 141.961 128.239 143.688C124.833 143.688 121.474 143.688 118.099 143.688C118.099 145.431 118.099 147.078 118.099 148.758C123.232 148.758 128.302 148.758 133.467 148.758C133.467 145.351 133.467 141.992 133.467 138.538C138.632 138.538 143.718 138.538 148.82 138.538C148.82 136.859 148.82 135.195 148.82 133.453ZM112.855 87.2366C111.175 87.2366 109.512 87.2366 107.848 87.2366C107.848 85.573 107.848 83.9094 107.848 82.1983C109.527 82.1983 111.175 82.1983 112.855 82.1983C112.855 83.8619 112.855 85.5096 112.855 87.2366ZM118.131 66.7665C119.794 66.7665 121.426 66.7665 123.153 66.7665C123.153 65.0237 123.153 63.376 123.153 61.6649C124.896 61.6649 126.559 61.6649 128.255 61.6649C128.255 66.7349 128.255 71.789 128.255 76.9382C126.559 76.9382 124.88 76.9382 123.185 76.9382C123.185 75.2588 123.185 73.5793 123.185 71.8841C121.41 71.8841 119.763 71.8841 118.131 71.8841C118.131 70.1888 118.131 68.5252 118.131 66.7665ZM118.131 76.954C119.81 76.954 121.489 76.954 123.169 76.954C123.153 78.7127 123.137 80.4713 123.137 82.23C122.408 82.1825 121.695 82.1191 120.967 82.1032C120.048 82.0874 119.129 82.1032 118.131 82.1032C118.131 80.3446 118.131 78.6493 118.131 76.954ZM102.731 66.7665C106.121 66.7665 109.464 66.7665 112.871 66.7665C112.871 68.446 112.871 70.0937 112.871 71.8999C114.661 71.8999 116.372 71.8999 118.099 71.8999C118.099 73.5793 118.099 75.2429 118.099 76.9224C114.708 76.9224 111.318 76.9224 107.848 76.9224C107.848 75.2746 107.848 73.6269 107.848 71.8682C106.105 71.8682 104.442 71.8682 102.731 71.8682C102.731 70.1096 102.731 68.4618 102.731 66.7665ZM66.797 97.5825C68.4289 97.5825 70.0767 97.5825 71.8036 97.5825C71.8036 99.2461 71.8036 100.862 71.8036 102.557C70.1401 102.557 68.4923 102.557 66.797 102.557C66.797 100.926 66.797 99.2778 66.797 97.5825ZM51.3653 92.4809C52.9972 92.4809 54.6449 92.4809 56.3402 92.4809C56.3402 94.1128 56.3402 95.7605 56.3402 97.4875C54.6608 97.4875 53.0447 97.4875 51.3653 97.4875C51.3653 95.8239 51.3653 94.192 51.3653 92.4809ZM30.8477 102.557C30.8477 100.91 30.8477 99.2778 30.8477 97.5508C32.5588 97.5508 34.2541 97.5508 35.9335 97.5508C35.9335 99.1986 35.9335 100.846 35.9335 102.557C34.1907 102.557 32.543 102.557 30.8477 102.557ZM40.9718 97.535C39.3082 97.535 37.6288 97.5192 35.9652 97.5192C35.9652 95.8556 35.9652 94.192 35.9652 92.465C37.6288 92.465 39.2765 92.465 40.9718 92.465C40.9718 94.1603 40.9718 95.8556 40.9718 97.535ZM46.0893 102.557C44.4574 102.557 42.8097 102.557 41.0035 102.557C41.0035 100.894 41.0035 99.2303 41.0035 97.5667C42.6829 97.5667 44.3465 97.5667 46.0893 97.5667C46.0893 99.2144 46.0893 100.862 46.0893 102.557ZM46.2636 107.833C46.2636 106.075 46.2636 104.427 46.2636 102.732C47.9272 102.732 49.5591 102.732 51.2544 102.732C51.2544 104.443 51.2544 106.138 51.2544 107.833C49.6225 107.833 47.9747 107.833 46.2636 107.833ZM66.6228 133.437C64.9909 133.437 63.3431 133.437 61.6161 133.437C61.6161 136.875 61.6161 140.25 61.6161 143.672C58.1781 143.672 54.8192 143.672 51.3494 143.672C51.3494 142.024 51.3494 140.361 51.3494 138.602C49.6066 138.602 47.9589 138.602 46.2636 138.602C46.2636 136.875 46.2636 135.227 46.2636 133.5C47.9114 133.5 49.5591 133.5 51.3177 133.5C51.3177 131.742 51.3177 130.11 51.3177 128.399C54.74 128.399 58.0988 128.399 61.5211 128.399C61.5211 126.64 61.5211 124.976 61.5211 123.218C59.8892 123.218 58.2414 123.218 56.5303 123.218C56.5303 121.491 56.5303 119.843 56.5303 118.148C59.8733 118.148 63.2164 118.148 66.6069 118.148C66.6228 123.202 66.6228 128.272 66.6228 133.437ZM71.2333 112.888C64.769 112.888 58.3207 112.888 51.8564 112.888C51.6505 112.888 51.4603 112.856 51.2544 112.824C51.2544 111.176 51.2702 109.513 51.2702 107.865C52.9655 107.865 54.6608 107.865 56.4353 107.865C56.4353 106.091 56.4353 104.443 56.4353 102.732C58.1622 102.732 59.81 102.732 61.5211 102.732C61.5211 104.379 61.5211 106.027 61.5211 107.802C61.8696 107.802 62.1548 107.802 62.4242 107.802C65.2602 107.802 68.1121 107.802 70.9481 107.802C71.2491 107.802 71.566 107.833 71.867 107.865C71.867 109.513 71.867 111.161 71.867 112.824C71.5977 112.856 71.4234 112.888 71.2333 112.888ZM76.9212 123.17C75.2734 123.17 73.6257 123.17 71.9304 123.17C71.9304 121.491 71.9304 119.843 71.9304 118.148C73.5465 118.148 75.1942 118.148 76.9212 118.148C76.9212 119.795 76.9212 121.491 76.9212 123.17ZM82.0228 107.786C80.692 107.786 79.4086 107.786 78.1253 107.786C76.0498 107.802 73.9901 107.818 71.9146 107.833C71.9146 106.138 71.9146 104.443 71.9146 102.716C75.2734 102.716 78.6164 102.716 82.0228 102.716C82.0228 104.395 82.0228 106.059 82.0228 107.786ZM82.0545 97.4558C80.3909 97.4558 78.7432 97.4558 77.0162 97.4558C77.0162 95.7922 77.0162 94.1286 77.0162 92.3383C75.2259 92.3383 73.6098 92.3383 71.9304 92.3383C71.9304 90.6271 71.9304 88.9794 71.9304 87.2841C75.3051 87.2841 78.6481 87.2841 82.0545 87.2841C82.0545 90.6747 82.0545 94.0494 82.0545 97.4558ZM107.721 133.405C106.089 133.405 104.442 133.405 102.699 133.405C102.699 131.742 102.699 130.11 102.699 128.43C104.362 128.43 106.01 128.43 107.721 128.43C107.721 130.062 107.721 131.694 107.721 133.405ZM123.137 123.138C118.036 123.138 112.966 123.138 107.848 123.138C107.848 118.037 107.848 112.967 107.848 107.849C112.95 107.849 118.02 107.849 123.137 107.849C123.137 112.983 123.137 118.037 123.137 123.138ZM138.506 128.272C136.842 128.272 135.21 128.272 133.515 128.272C133.515 131.694 133.515 135.053 133.515 138.491C131.788 138.491 130.14 138.491 128.429 138.491C128.429 133.453 128.429 128.367 128.429 123.218C130.061 123.218 131.709 123.218 133.436 123.218C133.436 121.491 133.436 119.843 133.436 118.148C135.163 118.148 136.81 118.148 138.506 118.148C138.506 121.475 138.506 124.818 138.506 128.272ZM138.506 112.856C136.795 112.856 135.178 112.856 133.499 112.856C133.499 107.754 133.499 102.684 133.499 97.5667C135.163 97.5667 136.81 97.5667 138.506 97.5667C138.506 102.668 138.506 107.738 138.506 112.856ZM143.687 117.989C142.007 117.989 140.375 117.989 138.68 117.989C138.68 116.31 138.68 114.662 138.68 112.967C140.359 112.967 142.007 112.967 143.687 112.967C143.687 114.662 143.687 116.294 143.687 117.989Z" fill="black"/>
  <path d="M143.811 97.5804V97.5995H143.83L143.811 97.5804Z" fill="black"/>
  <path d="M97.5391 35.9522V35.9331H97.52V35.9522H97.5391Z" fill="black"/>
  <path d="M97.567 133.483L97.5821 133.498V133.483C97.567 133.483 97.552 133.483 97.567 133.483Z" fill="black"/>
  <path d="M61.5671 25.6857H61.5862V25.6666L61.5671 25.6857Z" fill="black"/>
  <path d="M87.2574 51.2873H87.2383V51.3063H87.2574C87.2574 51.3063 87.2574 51.3063 87.2574 51.2873Z" fill="black"/>
  <path d="M92.4166 35.9347C94.1753 35.9347 95.8388 35.9347 97.5183 35.9347C97.5183 30.8013 97.5183 25.6838 97.5183 20.4712C95.7913 20.4712 94.1436 20.4712 92.48 20.4712C92.48 17.0331 92.48 13.6743 92.48 10.3313C94.1911 10.3313 95.8388 10.3313 97.5658 10.3313C97.5658 12.0424 97.5658 13.6901 97.5658 15.322C101.02 15.322 104.379 15.322 107.769 15.322C107.769 10.2045 107.769 5.13452 107.769 0.0328445C104.347 0.0328445 100.972 0.0328445 97.55 0.0328445C97.55 1.74396 97.55 3.39171 97.55 5.03945C95.8547 5.03945 94.1594 5.03945 92.3374 5.03945C92.3374 6.84564 92.3374 8.50922 92.3374 10.157C88.8835 10.157 85.5404 10.157 82.2291 10.157C82.2291 8.44585 82.2291 6.7981 82.2291 5.10283C83.9244 5.10283 85.5563 5.10283 87.204 5.10283C87.204 3.37587 87.204 1.69643 87.204 0.0328445C83.7818 0.0328445 80.4229 0.0328445 77.0482 0.0328445C77.0482 3.47093 77.0482 6.84564 77.0482 10.3154C78.7593 10.3154 80.4071 10.3154 82.1182 10.3154C82.1182 10.8382 82.1024 11.2819 82.1182 11.7413C82.1499 12.9455 82.1816 14.1337 82.2133 15.3379C78.8227 15.3537 75.4322 15.3537 72.0416 15.3537C71.9941 15.3537 71.9624 15.2903 71.8515 15.1953C71.8515 11.8839 71.8515 8.52507 71.8515 5.13452C70.1087 5.13452 68.4451 5.13452 66.7023 5.13452C66.7023 5.49892 66.7023 5.79995 66.7023 6.11683C66.7023 12.3117 66.7023 18.5066 66.7023 24.7015C66.7023 25.0342 66.6389 25.3669 66.6072 25.6996C64.9436 25.6996 63.28 25.6838 61.6165 25.6838C61.6165 30.7855 61.6165 35.8871 61.6165 41.068C63.3593 41.068 65.007 41.068 66.6389 41.068C66.6389 42.8108 66.6389 44.4586 66.6389 46.1855C64.9436 46.1855 63.2959 46.1855 61.6481 46.1855C61.6481 47.9284 61.6481 49.5761 61.6481 51.2397C63.3593 51.2397 65.0229 51.2397 66.7973 51.2397C66.7973 49.5286 66.7973 47.8967 66.7973 46.2489C68.5243 46.2489 70.1404 46.2489 71.8673 46.2489C71.8673 47.9284 71.8673 49.5761 71.8673 51.2397C73.626 51.2397 75.2896 51.2397 77.0482 51.2397C77.0482 47.8174 77.0482 44.4586 77.0482 41.068C78.7593 41.068 80.3912 41.068 82.1182 41.068C82.1182 42.7633 82.1182 44.4427 82.1182 46.2172C83.8927 46.2172 85.5563 46.2172 87.2674 46.2172C87.2674 47.9759 87.2674 49.6236 87.2674 51.2872C88.9627 51.2872 90.658 51.2872 92.4325 51.2872C92.4166 46.1539 92.4166 41.0839 92.4166 35.9347ZM97.5658 5.0553C99.2136 5.0553 100.861 5.0553 102.557 5.0553C102.557 6.81395 102.557 8.44585 102.557 10.157C100.909 10.157 99.2611 10.157 97.55 10.157C97.5658 8.44585 97.5658 6.75057 97.5658 5.0553ZM71.804 35.8555C70.1245 35.8555 68.4768 35.8555 66.734 35.8555C66.734 35.5386 66.734 35.2534 66.734 34.9841C66.734 32.1639 66.734 29.3437 66.734 26.5394C66.734 26.27 66.6548 26.0007 66.6072 25.7313C68.3342 25.7313 70.0453 25.7313 71.804 25.7313C71.804 29.0902 71.804 32.4491 71.804 35.8555ZM82.039 35.8555C80.3596 35.8555 78.7118 35.8555 77.0324 35.8555C77.0324 30.7538 77.0324 25.7155 77.0324 20.5663C78.7277 20.5663 80.3596 20.5663 82.039 20.5663C82.039 25.668 82.039 30.7379 82.039 35.8555ZM82.2133 15.3379C83.861 15.3379 85.4929 15.3379 87.1882 15.3379C87.1882 17.0648 87.1882 18.7126 87.1882 20.4078C85.5404 20.4078 83.8927 20.4078 82.2133 20.4078C82.2133 18.7126 82.2133 17.0331 82.2133 15.3379ZM87.2357 40.973C85.5404 40.973 83.9085 40.973 82.1974 40.973C82.1974 39.3411 82.1974 37.7092 82.1974 35.9822C83.861 35.9822 85.5404 35.9822 87.2357 35.9822C87.2357 37.6141 87.2357 39.2618 87.2357 40.973ZM87.2991 20.5663C88.9785 20.5663 90.6104 20.5663 92.2899 20.5663C92.2899 22.2457 92.2899 23.8776 92.2899 25.5887C90.6421 25.5887 88.9944 25.5887 87.2991 25.5887C87.2991 23.941 87.2991 22.2932 87.2991 20.5663ZM92.3057 35.9505C90.5946 35.9505 88.931 35.9505 87.2674 35.9505C87.2674 34.2869 87.2674 32.6075 87.2674 30.8647C88.9468 30.8647 90.5946 30.8647 92.3057 30.8647C92.3057 32.5283 92.3057 34.1602 92.3057 35.9505Z" fill="black"/>
  <path d="M35.998 87.1747L36.0171 87.1557H35.998C35.998 87.1747 35.998 87.1747 35.998 87.1747Z" fill="black"/>
  <path d="M51.2905 35.9522H51.3096V35.9331H51.2905C51.2905 35.9522 51.2905 35.9522 51.2905 35.9522Z" fill="black"/>
  <path d="M30.8314 82.0858C30.8314 80.3588 30.8314 78.7111 30.8314 76.9524C32.5425 76.9524 34.2219 76.9524 35.9647 76.9524C35.9647 75.1938 35.9647 73.546 35.9647 71.8983C37.6283 71.8983 39.3078 71.8983 41.0506 71.8983C41.0506 70.1079 41.0506 68.4602 41.0506 66.7966C42.7775 66.7966 44.4253 66.7966 46.1522 66.7966C46.1522 68.5077 46.1522 70.1555 46.1522 71.8191C49.622 71.8191 53.0126 71.8191 56.419 71.8191C56.419 61.5365 56.419 51.3173 56.419 41.0189C54.692 41.0189 53.0284 41.0189 51.2856 41.0189C51.2856 39.2761 51.2856 37.6284 51.2856 35.9806C49.622 35.9806 47.9426 35.9806 46.2473 35.9806C46.2473 34.1903 46.2473 32.5425 46.2473 30.7364C47.9584 30.7364 49.622 30.7364 51.2856 30.7364C51.2856 29.0569 51.2856 27.3933 51.2856 25.7139C47.8317 25.7139 44.457 25.7139 41.0664 25.7139C41.0664 30.8314 41.0664 35.9014 41.0664 41.0664C42.7617 41.0664 44.4094 41.0664 46.0889 41.0664C46.0889 42.7934 46.0889 44.4412 46.0889 46.184C44.3777 46.184 42.73 46.184 41.003 46.184C41.003 49.6379 41.003 52.9968 41.003 56.3873C39.2761 56.3873 37.6283 56.3873 35.9014 56.3873C35.9014 54.692 35.9014 53.0443 35.9014 51.4124C34.0952 51.4124 32.3682 51.4124 30.6413 51.4124C30.6413 53.076 30.6413 54.7396 30.6413 56.4982C32.4791 56.4982 34.1427 56.4982 35.9489 56.4982C35.9489 58.2569 35.9489 59.9205 35.9489 61.584C35.7746 61.5999 35.6003 61.5999 35.4261 61.5999C25.5396 61.5999 15.6373 61.5999 5.7508 61.5999C5.54483 61.5999 5.35471 61.5523 5.08537 61.5365C5.08537 59.8412 5.08537 58.1776 5.08537 56.4824C3.37425 56.4824 1.7265 56.4824 0.0153809 56.4824C0.0153809 61.6157 0.0153809 66.7174 0.0153809 71.8349C3.45346 71.8349 6.82817 71.8349 10.2979 71.8349C10.2979 70.1238 10.2979 68.476 10.2979 66.8283C12.0249 66.8283 13.6727 66.8283 15.3838 66.8283C15.3838 68.5394 15.3838 70.1872 15.3838 71.93C20.533 71.93 25.603 71.93 30.6729 71.93C30.6729 73.6569 30.6729 75.3047 30.6729 77.0317C25.5396 77.0317 20.4696 77.0317 15.4155 77.0317C15.4155 78.7903 15.4155 80.4697 15.4155 82.1967C20.533 82.1967 25.5871 82.1967 30.7363 82.1967C30.7363 83.9078 30.7363 85.5556 30.7363 87.1875C32.5425 87.1875 34.2695 87.1875 35.9964 87.1875C35.9964 85.5239 35.9964 83.8603 35.9964 82.1016C34.1586 82.0858 32.5108 82.0858 30.8314 82.0858ZM46.279 56.5457C47.8951 56.5457 49.5428 56.5457 51.2698 56.5457C51.2698 58.2093 51.2698 59.8254 51.2698 61.5207C49.622 61.5207 47.9901 61.5207 46.279 61.5207C46.279 59.8888 46.279 58.2569 46.279 56.5457ZM35.9806 61.584C37.6283 61.584 39.2761 61.584 40.9714 61.584C40.9714 63.2793 40.9714 64.9112 40.9714 66.6223C39.3395 66.6223 37.7076 66.6223 35.9806 66.6223C35.9806 64.9587 35.9806 63.2635 35.9806 61.584ZM30.8472 66.7966C32.4791 66.7966 34.1269 66.7966 35.9489 66.7966C35.9489 68.4919 35.9489 70.1872 35.9489 71.8824C34.2695 71.8824 32.59 71.8824 30.8472 71.8824C30.8472 70.1555 30.8472 68.5077 30.8472 66.7966Z" fill="black"/>
  <path d="M30.6248 51.3653C30.6248 51.3797 30.6392 51.3653 30.6248 51.3653C30.6248 51.3797 30.6392 51.3797 30.6248 51.3653Z" fill="black"/>
  <path d="M35.886 0.0152588C23.9081 0.0152588 11.962 0.0152588 0 0.0152588C0 11.9931 0 23.9076 0 35.8854C12.0095 35.8854 23.924 35.8854 35.886 35.8854C35.886 23.9076 35.886 11.9773 35.886 0.0152588ZM30.6734 30.6887C22.1812 30.6887 13.689 30.6887 5.1492 30.6887C5.1492 22.1647 5.1492 13.6884 5.1492 5.14862C13.6573 5.14862 22.1336 5.14862 30.6734 5.14862C30.6734 13.6408 30.6734 22.1331 30.6734 30.6887Z" fill="black"/>
  <path d="M148.805 -0.0001297C136.827 -0.0001297 124.912 -0.0001297 112.935 -0.0001297C112.935 12.0094 112.935 23.9239 112.935 35.8858C124.912 35.8858 136.843 35.8858 148.805 35.8858C148.805 23.8922 148.805 11.9619 148.805 -0.0001297ZM143.687 30.6891C135.179 30.6891 126.703 30.6891 118.163 30.6891C118.163 22.2127 118.163 13.7205 118.163 5.16492C126.639 5.16492 135.116 5.16492 143.687 5.16492C143.687 13.673 143.687 22.1494 143.687 30.6891Z" fill="black"/>
  <path d="M0.0153809 148.821C11.9932 148.821 23.9077 148.821 35.8855 148.821C35.8855 136.811 35.8855 124.897 35.8855 112.935C23.9077 112.935 11.9774 112.935 0.0153809 112.935C0.0153809 124.928 0.0153809 136.859 0.0153809 148.821ZM5.14874 118.115C13.6885 118.115 22.1649 118.115 30.7046 118.115C30.7046 126.639 30.7046 135.116 30.7046 143.655C22.1966 143.655 13.7043 143.655 5.14874 143.655C5.14874 135.163 5.14874 126.687 5.14874 118.115Z" fill="black"/>
  <path d="M92.4183 132.406C92.4183 128.35 92.4183 124.278 92.4183 120.222C92.4183 119.541 92.6243 118.574 92.2757 118.257C91.8638 117.893 90.9448 118.067 90.2477 118.051C89.2654 118.035 88.2672 118.051 87.3008 118.051C87.3008 124.991 87.3008 131.772 87.3008 138.664C89.0119 138.664 90.6438 138.664 92.3866 138.664C92.3866 140.407 92.3866 142.054 92.3866 143.686C94.1453 143.686 95.8247 143.686 97.5517 143.686C97.5517 140.248 97.5517 136.889 97.5517 133.515C95.8564 133.515 94.1611 133.515 92.4183 133.515C92.4183 133.039 92.4183 132.723 92.4183 132.406Z" fill="black"/>
  <path d="M97.553 133.483V133.497C97.5675 133.497 97.5675 133.497 97.5819 133.497C97.5819 133.497 97.5675 133.497 97.553 133.483C97.5675 133.497 97.5675 133.483 97.553 133.483Z" fill="black"/>
  <path d="M51.3353 15.3044C53.0939 15.3044 54.7575 15.3044 56.4845 15.3044C56.4845 11.898 56.4845 8.55501 56.4845 5.0694C58.2431 5.0694 59.8909 5.0694 61.5386 5.0694C61.5386 3.32659 61.5386 1.67885 61.5386 0.0152588C59.8275 0.0152588 58.1481 0.0152588 56.3894 0.0152588C56.3894 1.72638 56.3894 3.37412 56.3894 5.02187C54.6466 5.02187 53.0147 5.02187 51.2877 5.02187C51.2877 3.32659 51.2877 1.67885 51.2877 0.0152588C49.5449 0.0152588 47.8813 0.0152588 46.2019 0.0152588C46.2019 3.4375 46.2019 6.81221 46.2019 10.2661C47.913 10.2661 49.5925 10.2661 51.3353 10.2661C51.3353 12.0248 51.3353 13.6725 51.3353 15.3044Z" fill="black"/>
  <path d="M30.7856 46.1829C32.5443 46.1829 34.2078 46.1829 35.8714 46.1829C35.8714 44.4084 35.8714 42.729 35.8714 41.0812C34.1445 41.0812 32.465 41.0812 30.7222 41.0812C30.7222 42.7923 30.7222 44.4401 30.7222 46.167C27.2841 46.167 23.9253 46.167 20.4555 46.167C20.4555 47.9257 20.4555 49.5893 20.4555 51.2846C18.6969 51.2846 17.0491 51.2846 15.4014 51.2846C15.4014 52.9798 15.4014 54.6751 15.4014 56.4654C16.8431 56.4654 18.2215 56.4179 19.6158 56.4813C20.3921 56.513 20.5981 56.2436 20.5664 55.499C20.503 54.1206 20.5506 52.7263 20.5506 51.2846C21.1368 51.2846 21.5963 51.2846 22.0716 51.2846C24.9393 51.3004 27.7911 51.3162 30.643 51.3479C30.6905 51.0469 30.7856 50.7459 30.7856 50.4448C30.8014 49.0664 30.7856 47.688 30.7856 46.1829Z" fill="black"/>
  <path d="M15.3684 51.3063H15.3875V51.2873L15.3684 51.3063Z" fill="black"/>
  <path d="M5.15137 41.068C5.15137 44.4903 5.15137 47.8808 5.15137 51.2714C8.60529 51.2714 11.98 51.2714 15.3706 51.2714C15.3706 47.865 15.3706 44.4586 15.3706 41.068C11.8849 41.068 8.52608 41.068 5.15137 41.068Z" fill="black"/>
  <path d="M15.3684 51.3063L15.3875 51.2873C15.3684 51.2873 15.3684 51.2873 15.3684 51.2873C15.3684 51.2873 15.3684 51.2872 15.3684 51.3063Z" fill="black"/>
  <path d="M143.798 97.5804L143.817 97.5995C143.817 97.5804 143.817 97.5804 143.798 97.5804C143.817 97.5804 143.817 97.5804 143.798 97.5804Z" fill="black"/>
  <path d="M148.805 82.1483C145.382 82.1483 142.008 82.1483 138.601 82.1483C138.601 83.8594 138.601 85.4913 138.601 87.2499C140.312 87.2499 141.976 87.2499 143.735 87.2499C143.735 87.6302 143.735 87.9154 143.735 88.2006C143.735 91.0524 143.735 93.9043 143.735 96.7403C143.735 97.0255 143.798 97.2948 143.83 97.58C145.493 97.58 147.157 97.58 148.805 97.58C148.805 92.3199 148.805 87.2341 148.805 82.1483Z" fill="black"/>
  <path d="M51.3049 87.2018V87.2209H51.324V87.2018C51.324 87.2018 51.324 87.2018 51.3049 87.2018Z" fill="black"/>
  <path d="M41.0813 77.0138C41.0813 78.7408 41.0813 80.4202 41.0813 82.163C42.7924 82.163 44.4402 82.163 46.183 82.163C46.183 83.89 46.183 85.5377 46.183 87.2013C47.9575 87.2013 49.6369 87.2013 51.3163 87.2013C51.3163 83.7949 51.3163 80.3885 51.3163 76.998C47.799 77.0138 44.4402 77.0138 41.0813 77.0138Z" fill="black"/>
  <path d="M148.804 76.9357C148.804 73.5134 148.804 70.1387 148.804 66.669C147.093 66.669 145.461 66.669 143.734 66.669C143.734 64.942 143.734 63.2943 143.734 61.6307C141.976 61.6307 140.312 61.6307 138.617 61.6307C138.617 63.3259 138.617 64.9737 138.617 66.7323C140.328 66.7323 142.007 66.7323 143.766 66.7323C143.766 70.2021 143.766 73.561 143.766 76.9357C145.477 76.9357 147.125 76.9357 148.804 76.9357Z" fill="black"/>
  <path d="M133.485 51.2543C133.485 51.2687 133.485 51.2688 133.485 51.2832C133.5 51.2832 133.5 51.2832 133.514 51.2832V51.2688C133.5 51.2543 133.5 51.2543 133.485 51.2543Z" fill="black"/>
  <path d="M128.351 41.068C128.351 44.4903 128.351 47.865 128.351 51.2555C130.094 51.2555 131.789 51.2555 133.501 51.2555C133.501 47.8491 133.501 44.4586 133.501 41.068C131.678 41.068 130.031 41.068 128.351 41.068Z" fill="black"/>
  <path d="M87.2202 56.482C87.2202 54.6916 87.2202 53.0122 87.2202 51.3169C85.5249 51.3169 83.8296 51.3169 82.0551 51.3169C82.0551 53.0756 82.0551 54.7233 82.0551 56.4503C80.3123 56.4503 78.6646 56.4503 77.0168 56.4503C77.0168 58.2089 77.0168 59.8725 77.0168 61.5995C78.7755 61.5995 80.4708 61.5995 82.166 61.5995C82.166 59.9359 82.166 58.2565 82.166 56.4978C83.8772 56.482 85.5091 56.482 87.2202 56.482Z" fill="black"/>
  <path d="M82.1839 61.5856H82.1648V61.6047H82.1839C82.1839 61.5856 82.1839 61.5856 82.1839 61.5856Z" fill="black"/>
  <path d="M87.2361 71.8953C87.2441 71.8953 87.2506 71.8889 87.2506 71.8809C87.2506 71.8729 87.2441 71.8664 87.2361 71.8664C87.2282 71.8664 87.2217 71.8729 87.2217 71.8809C87.2217 71.8889 87.2282 71.8953 87.2361 71.8953Z" fill="black"/>
  <path d="M82.1837 61.601C82.152 61.7753 82.1045 61.9496 82.1045 62.1238C82.1045 65.1817 82.1045 68.2237 82.1045 71.2815C82.1045 71.4558 82.152 71.6301 82.1837 71.8836C83.8948 71.8836 85.5584 71.8836 87.2378 71.8836C87.2378 68.4772 87.2378 65.0866 87.2378 61.601C85.5109 61.601 83.8473 61.601 82.1837 61.601Z" fill="black"/>
  <path d="M87.1888 148.821C87.1888 147.11 87.1888 145.43 87.1888 143.735C83.8141 143.735 80.4869 143.735 77.1756 143.735C77.0805 143.735 76.9854 143.798 76.8904 143.83C76.8904 145.494 76.8904 147.157 76.8904 148.821C80.4552 148.821 83.8141 148.821 87.1888 148.821Z" fill="black"/>
  <path d="M76.8912 143.814C76.8768 143.814 76.8768 143.829 76.8912 143.814C76.8768 143.829 76.8768 143.829 76.8912 143.814Z" fill="black"/>
  <path d="M56.7733 20.4849C56.6466 20.4849 56.4406 20.6909 56.4248 20.8018C56.4089 22.402 56.4089 24.0022 56.4089 25.65C58.1993 25.65 59.8787 25.65 61.5581 25.65C61.5581 23.9547 61.5581 22.2436 61.5581 20.4691C59.9262 20.4691 58.3577 20.4691 56.7733 20.4849Z" fill="black"/>
  <path d="M61.5671 25.6857L61.5862 25.6666H61.5671C61.5671 25.6666 61.5671 25.6666 61.5671 25.6857Z" fill="black"/>
  <path d="M51.305 30.7338C51.313 30.7338 51.3195 30.7273 51.3195 30.7193C51.3195 30.7113 51.313 30.7048 51.305 30.7048C51.297 30.7048 51.2905 30.7113 51.2905 30.7193C51.2905 30.7273 51.297 30.7338 51.305 30.7338Z" fill="black"/>
  <path d="M56.4061 35.9339C56.4061 34.1435 56.4061 32.4641 56.4061 30.7213C54.6633 30.7213 52.9839 30.7213 51.3203 30.7213C51.3203 32.4641 51.3203 34.1911 51.3203 35.9339C52.9997 35.9339 54.695 35.9339 56.4061 35.9339Z" fill="black"/>
  <path d="M46.1522 15.4166C44.4252 15.4166 42.7458 15.4166 41.0505 15.4166C41.0505 17.1119 41.0505 18.7597 41.0505 20.4708C42.8092 20.4708 44.4728 20.4708 46.1522 20.4708C46.1522 18.7438 46.1522 17.0802 46.1522 15.4166Z" fill="black"/>
  <path d="M76.9064 66.7326C75.1952 66.7326 73.5475 66.7326 71.9631 66.7326C71.9631 68.5071 71.9631 70.2182 71.9631 71.9452C73.6109 71.9452 75.2428 71.9452 76.9064 71.9452C76.9064 70.1073 76.9064 68.412 76.9064 66.7326Z" fill="black"/>
  <path d="M143.781 143.781C143.781 145.492 143.781 147.14 143.781 148.788C145.492 148.788 147.156 148.788 148.835 148.788C148.835 147.093 148.835 145.461 148.835 143.781C147.077 143.781 145.429 143.781 143.781 143.781Z" fill="black"/>
  <path d="M118.036 112.935C116.341 112.935 114.693 112.935 112.935 112.935C112.935 114.646 112.935 116.325 112.935 118.036C114.646 118.036 116.325 118.036 118.036 118.036C118.036 116.325 118.036 114.646 118.036 112.935Z" fill="black"/>
  <path d="M10.2047 24.8591C10.2047 25.1126 10.2363 25.3661 10.2522 25.6355C15.4014 25.6355 20.4555 25.6355 25.6047 25.6355C25.6047 20.4863 25.6047 15.4004 25.6047 10.2988C25.4305 10.2671 25.2879 10.2196 25.1294 10.2196C20.3605 10.2196 15.5757 10.2196 10.8067 10.2037C10.1254 10.2037 10.1888 10.584 10.1888 11.0117C10.2047 15.6223 10.2047 20.2486 10.2047 24.8591Z" fill="black"/>
  <path d="M138.619 25.0968C138.619 20.3437 138.619 15.6064 138.635 10.8533C138.635 10.2196 138.334 10.2037 137.858 10.2037C133.216 10.2196 128.574 10.2037 123.932 10.2196C123.694 10.2196 123.472 10.2512 123.25 10.2671C123.25 15.4163 123.25 20.518 123.25 25.6196C128.384 25.6196 133.47 25.6196 138.571 25.6196C138.587 25.3978 138.619 25.2552 138.619 25.0968Z" fill="black"/>
  <path d="M10.2031 123.802C10.2031 128.492 10.2189 133.197 10.1873 137.887C10.1873 138.505 10.4091 138.632 10.9636 138.632C15.6058 138.616 20.248 138.616 24.8902 138.616C25.1279 138.616 25.3497 138.584 25.5715 138.568C25.5715 133.403 25.5715 128.317 25.5715 123.2C20.454 123.2 15.384 123.2 10.2506 123.2C10.2348 123.453 10.2031 123.628 10.2031 123.802Z" fill="black"/>
</svg>