
<svg width="92" height="92" viewBox="0 0 92 92" fill="none" xmlns="http://www.w3.org/2000/svg">
<circle cx="45.9233" cy="45.9993" r="35.4622" fill="#787878"/>
<circle cx="46" cy="46" r="45" stroke="white" stroke-width="2"/>
<path d="M30.0782 42.5498C29.3365 42.5498 28.75 41.9633 28.75 41.2216V37.2369C28.75 32.5622 32.5622 28.75 37.2369 28.75H41.2216C41.9633 28.75 42.5498 29.3365 42.5498 30.0782C42.5498 30.82 41.9633 31.4065 41.2216 31.4065H37.2369C34.0112 31.4065 31.4065 34.0284 31.4065 37.2369V41.2216C31.4065 41.9633 30.8027 42.5498 30.0782 42.5498Z" fill="white"/>
<path d="M61.9212 42.5498C61.1968 42.5498 60.593 41.9633 60.593 41.2216V37.2369C60.593 34.0112 57.9711 31.4065 54.7626 31.4065H50.7779C50.0362 31.4065 49.4497 30.8027 49.4497 30.0782C49.4497 29.3537 50.0362 28.75 50.7779 28.75H54.7626C59.4373 28.75 63.2495 32.5622 63.2495 37.2369V41.2216C63.2495 41.9633 62.663 42.5498 61.9212 42.5498Z" fill="white"/>
<path d="M54.7625 63.2498H52.3647C51.6403 63.2498 51.0365 62.6633 51.0365 61.9215C51.0365 61.1971 51.623 60.5933 52.3647 60.5933H54.7625C57.9882 60.5933 60.5929 57.9714 60.5929 54.7629V52.3824C60.5929 51.658 61.1794 51.0542 61.9211 51.0542C62.6456 51.0542 63.2493 51.6407 63.2493 52.3824V54.7629C63.2493 59.4376 59.4371 63.2498 54.7625 63.2498Z" fill="white"/>
<path d="M41.2216 63.2495H37.2369C32.5622 63.2495 28.75 59.4373 28.75 54.7626V50.7779C28.75 50.0362 29.3365 49.4497 30.0782 49.4497C30.82 49.4497 31.4065 50.0362 31.4065 50.7779V54.7626C31.4065 57.9883 34.0284 60.593 37.2369 60.593H41.2216C41.946 60.593 42.5498 61.1795 42.5498 61.9212C42.5498 62.663 41.9633 63.2495 41.2216 63.2495Z" fill="white"/>
<path d="M57.1423 44.6715H34.8556C34.1139 44.6715 33.5274 45.2752 33.5274 45.9997C33.5274 46.7242 34.1139 47.3279 34.8556 47.3279H57.1423C57.884 47.3279 58.4705 46.7242 58.4705 45.9997C58.4705 45.2752 57.884 44.6715 57.1423 44.6715Z" fill="white"/>
<path d="M37.203 49.3462V49.9154C37.203 52.7788 39.5145 55.0903 42.378 55.0903H49.6229C52.4863 55.0903 54.7978 52.7788 54.7978 49.9154V49.3462C54.7978 49.1392 54.6425 48.9839 54.4355 48.9839H37.5653C37.3583 48.9839 37.203 49.1392 37.203 49.3462Z" fill="white"/>
<path d="M37.203 42.6533V42.084C37.203 39.2206 39.5145 36.9091 42.378 36.9091H49.6229C52.4863 36.9091 54.7978 39.2206 54.7978 42.084V42.6533C54.7978 42.8602 54.6425 43.0155 54.4355 43.0155H37.5653C37.3583 43.0155 37.203 42.8602 37.203 42.6533Z" fill="white"/>
</svg>
