<svg xmlns="http://www.w3.org/2000/svg" width="30" height="30" viewBox="0 0 30 30" fill="none">
  <g clip-path="url(#clip0_73_1778)">
    <path d="M2.92193 9.94798L2.91771 9.94376C2.68885 9.71501 2.31795 9.71501 2.08909 9.94376C1.86028 10.1726 1.86028 10.5436 2.08909 10.7724L2.09336 10.7766C2.2078 10.891 2.35774 10.9482 2.50768 10.9482C2.65762 10.9482 2.80756 10.891 2.92199 10.7766C3.15074 10.5479 3.15074 10.1768 2.92193 9.94798Z" fill="black"/>
    <path d="M20.6218 1.75013C20.3929 1.52138 20.0221 1.52138 19.7932 1.75013C19.5644 1.97894 19.5644 2.34995 19.7932 2.57876L19.7967 2.58221C19.9107 2.69618 20.0595 2.75296 20.2084 2.75296C20.3586 2.75296 20.5087 2.6953 20.6236 2.58046C20.8523 2.35165 20.8506 1.97888 20.6218 1.75013Z" fill="black"/>
    <path d="M29.5735 21.8085C29.4537 21.5079 29.113 21.3613 28.8123 21.4813C28.5117 21.6012 28.3652 21.942 28.4851 22.2425C29.0411 23.6364 28.9086 25.1802 28.1778 26.4374C27.8784 25.6 27.1829 24.9356 26.2863 24.699L26.1292 24.6575C26.351 24.2885 26.4788 23.857 26.4788 23.396V22.9079C26.4788 21.5532 25.3767 20.4511 24.0221 20.4511C22.6674 20.4511 21.5653 21.5532 21.5653 22.9079V23.396C21.5653 23.857 21.6931 24.2885 21.9149 24.6575L21.7578 24.699C20.8616 24.9355 20.1663 25.5994 19.8667 26.4364C18.8007 24.5984 19.053 22.1997 20.6248 20.628C21.9763 19.2764 23.9996 18.854 25.7796 19.5524C26.0809 19.6706 26.4208 19.5221 26.539 19.2208C26.6572 18.9196 26.5087 18.5796 26.2075 18.4614C23.9941 17.5932 21.4772 18.1182 19.7961 19.7993C19.5162 20.0792 19.2676 20.382 19.0519 20.7033L13.7059 17.8448C14.4871 16.0362 14.4871 13.9682 13.7059 12.1596L19.0539 9.29997C19.2688 9.62124 19.516 9.92499 19.7961 10.205C20.9249 11.3338 22.4257 11.9554 24.022 11.9554C25.6183 11.9554 27.1191 11.3338 28.2479 10.205C30.578 7.87486 30.578 4.0834 28.2479 1.75326C26.5564 0.0617846 24.0274 -0.458584 21.8054 0.427818C21.5048 0.5477 21.3583 0.888479 21.4782 1.189C21.5981 1.48959 21.9389 1.63642 22.2395 1.51619C24.0263 0.803577 26.0595 1.22199 27.4195 2.58189C28.9913 4.15371 29.2436 6.55229 28.1776 8.39031C27.8779 7.55336 27.1826 6.88938 26.2864 6.6529L26.1293 6.61141C26.3511 6.24239 26.4789 5.81085 26.4789 5.34984V4.86176C26.4789 3.50708 25.3769 2.40499 24.0222 2.40499C22.6675 2.40499 21.5654 3.50708 21.5654 4.86176V5.34984C21.5654 5.81085 21.6933 6.24233 21.915 6.61136L21.7579 6.65284C20.8616 6.88938 20.1662 7.55336 19.8667 8.39054C19.1415 7.14133 19.0056 5.60759 19.5493 4.22145C19.6675 3.92022 19.519 3.5802 19.2178 3.46208C18.9165 3.34378 18.5766 3.49237 18.4584 3.7936C17.8823 5.26218 17.9201 6.86384 18.5014 8.26668L13.1537 11.1261C12.8842 10.7086 12.5672 10.3129 12.2019 9.94761C11.0927 8.83843 9.6873 8.13818 8.13756 7.9225C6.63886 7.71373 5.08356 7.9924 3.75823 8.70654C3.47335 8.86005 3.36683 9.21548 3.52029 9.50025C3.67386 9.78513 4.02935 9.89165 4.31399 9.73819C6.61788 8.49677 9.52084 8.92363 11.3732 10.7762C13.2948 12.6977 13.6314 15.6129 12.3838 17.8829C12.0108 16.853 11.1531 16.0368 10.0486 15.7453L9.60691 15.6288C9.95941 15.1346 10.1676 14.531 10.1676 13.8792V13.2441C10.1676 11.5787 8.81279 10.2238 7.14739 10.2238C5.48199 10.2238 4.12708 11.5787 4.12708 13.2441V13.8792C4.12708 14.531 4.33532 15.1346 4.68782 15.6288L4.24608 15.7454C3.14335 16.0364 2.28654 16.8505 1.91266 17.8781C0.96198 16.1335 0.913758 13.9683 1.88348 12.1686C2.03699 11.8838 1.93053 11.5283 1.64565 11.3749C1.36059 11.2214 1.0054 11.3279 0.851942 11.6128C0.137688 12.9382 -0.140748 14.4935 0.0676691 15.9922C0.283351 17.5419 0.983601 18.9474 2.09277 20.0565C3.4863 21.4501 5.31682 22.1469 7.14734 22.1469C8.97785 22.1469 10.8083 21.4501 12.2019 20.0565C12.5672 19.6912 12.8842 19.2956 13.1537 18.8781L18.4982 21.7358C18.2014 22.452 18.0458 23.2266 18.0458 24.0251C18.0458 25.6215 18.6674 27.1222 19.7962 28.251C20.9615 29.4162 22.4919 29.9987 24.0222 29.9987C25.5526 29.9987 27.0831 29.4161 28.2482 28.2511C29.9396 26.5597 30.4599 24.0308 29.5735 21.8085ZM22.7373 4.86193C22.7373 4.15336 23.3137 3.57698 24.0222 3.57698C24.7307 3.57698 25.3072 4.15342 25.3072 4.86193V5.35002C25.3072 6.05853 24.7307 6.63491 24.0222 6.63491C23.3137 6.63491 22.7373 6.05847 22.7373 5.35002V4.86193ZM20.8775 9.4389V9.31696C20.8775 8.59879 21.3625 7.96932 22.0569 7.78604L22.9376 7.5536C23.2649 7.71537 23.633 7.80672 24.0221 7.80672C24.4113 7.80672 24.7794 7.71537 25.1066 7.55366L25.9873 7.78609C26.6817 7.96932 27.1666 8.59884 27.1666 9.31702V9.60659C27.1666 9.60776 27.1668 9.60888 27.1668 9.60999C26.2937 10.3686 25.1901 10.7837 24.0221 10.7837C22.8449 10.7837 21.7329 10.362 20.8565 9.592C20.8699 9.54314 20.8775 9.49198 20.8775 9.4389ZM5.29895 13.2444C5.29895 12.2251 6.1281 11.3959 7.14745 11.3959C8.16668 11.3959 8.9959 12.2251 8.9959 13.2444V13.8795C8.9959 14.8987 8.16674 15.728 7.14745 15.728C6.12816 15.728 5.29895 14.8988 5.29895 13.8795V13.2444ZM11.4156 19.1846C11.4015 19.199 11.3876 19.2137 11.3732 19.228C9.04313 21.5582 5.2516 21.5582 2.92146 19.2281C2.90693 19.2136 2.89334 19.1985 2.87898 19.1839V19.0414C2.87898 18.0269 3.56411 17.1375 4.54508 16.8786L5.75627 16.5589C6.17293 16.7761 6.64583 16.8997 7.14734 16.8997C7.64884 16.8997 8.12169 16.7761 8.53834 16.5589L9.74953 16.8786C10.7304 17.1374 11.4156 18.0268 11.4156 19.0414V19.1846ZM22.7373 22.908C22.7373 22.1994 23.3137 21.623 24.0222 21.623C24.7307 21.623 25.3072 22.1995 25.3072 22.908V23.3961C25.3072 24.1046 24.7307 24.681 24.0222 24.681C23.3137 24.681 22.7373 24.1046 22.7373 23.3961V22.908ZM20.8567 27.638C20.8699 27.5891 20.8775 27.538 20.8775 27.485V27.3631C20.8775 26.645 21.3625 26.0154 22.0569 25.8321L22.9375 25.5997C23.2649 25.7614 23.633 25.8528 24.0221 25.8528C24.4112 25.8528 24.7794 25.7614 25.1067 25.5997L25.9873 25.8321C26.6817 26.0153 27.1666 26.6448 27.1666 27.3631V27.6526C27.1666 27.6537 27.1668 27.6547 27.1668 27.6558C25.3609 29.2224 22.6559 29.2165 20.8567 27.638Z" fill="#005097"/>
    <path d="M28.2511 19.7963C28.0223 19.5676 27.6514 19.5676 27.4225 19.7963L27.419 19.7998C27.1902 20.0286 27.192 20.3979 27.4208 20.6266C27.5347 20.7406 27.6844 20.7974 27.8343 20.7974C27.9852 20.7974 28.1363 20.7398 28.2512 20.6249C28.4799 20.3962 28.4799 20.0252 28.2511 19.7963Z" fill="black"/>
  </g>
  <defs>
    <clipPath id="clip0_73_1778">
      <rect width="30" height="30" fill="white"/>
    </clipPath>
  </defs>
</svg>