<svg xmlns="http://www.w3.org/2000/svg" width="24" height="20" viewBox="0 0 24 20" fill="none">
  <path d="M23.3213 0.433675C23.103 1.20726 22.6569 1.83846 22.0969 2.39373C21.9023 2.58831 21.684 2.75916 21.4609 2.92052C21.423 2.949 21.3186 2.94425 21.3613 3.03443C21.3945 3.10561 21.4515 3.05341 21.5037 3.04392C22.3105 2.93002 23.0888 2.70221 23.8434 2.39373C23.8766 2.37949 23.9146 2.37 24 2.34152C23.7342 2.76391 23.4495 3.10561 23.1552 3.43783C22.7234 3.92191 22.2488 4.36328 21.7267 4.74295C21.6176 4.82363 21.5701 4.90906 21.5701 5.05618C21.6365 8.94781 20.3504 12.3411 17.7307 15.2076C15.5998 17.5426 12.9373 18.9047 9.80977 19.3651C6.36899 19.8729 3.14653 19.2512 0.16136 17.4382C0.123393 17.4145 0.0854261 17.386 0 17.3291C1.32885 17.462 2.59126 17.3718 3.82519 17.0253C5.06387 16.6741 6.19814 16.1094 7.25648 15.2883C6.17916 15.2314 5.23472 14.9229 4.40894 14.2964C3.5879 13.6795 3.0089 12.8822 2.66719 11.8713C3.40281 11.9615 4.1052 11.9804 4.8598 11.7669C3.95333 11.5533 3.19873 11.1784 2.55329 10.5899C1.51869 9.64071 0.987146 8.45899 0.920704 7.05895C0.915958 6.90708 0.949179 6.8786 1.09156 6.94979C1.60411 7.22031 2.15464 7.37692 2.73364 7.44811C2.84754 7.46235 2.96619 7.46709 3.15128 7.48133C2.05972 6.69826 1.37631 5.71111 1.09156 4.46294C0.811548 3.21952 1.00138 2.04253 1.62784 0.91301C1.86514 1.17403 2.0787 1.42557 2.30651 1.66286C4.59403 4.05954 7.38462 5.47856 10.6593 5.94841C10.9725 5.99112 11.2857 6.0101 11.599 6.04332C11.7508 6.06231 11.8078 6.03858 11.7698 5.85823C11.2762 3.21952 12.999 0.62351 15.633 0.106208C17.3273 -0.226005 18.8175 0.224855 20.0799 1.40658C20.1985 1.51574 20.2935 1.54896 20.4501 1.51574C21.3708 1.30217 22.244 0.979453 23.0698 0.528593C23.1457 0.485879 23.2122 0.424183 23.3024 0.424183L23.3213 0.433675Z" fill="#019EF6"/>
</svg>