
<svg width="22" height="19" viewBox="0 0 22 19" fill="none" xmlns="http://www.w3.org/2000/svg">
<path d="M19.8 0H2.2C0.979 0 0.011 0.961752 0.011 2.16124L0 15.1287C0 16.3282 0.979 17.2899 2.2 17.2899H6.6C7.205 17.2899 7.7 16.8036 7.7 16.2093C7.7 15.615 7.205 15.1287 6.6 15.1287H2.2V8.64496H22V2.16124C22 0.972558 21.01 0 19.8 0ZM19.8 4.32248H2.2V2.16124H19.8V4.32248ZM14.223 16.393L11.891 14.1021C11.462 13.6806 10.769 13.6806 10.34 14.1021C9.911 14.5235 9.911 15.2043 10.34 15.6258L13.453 18.6839C13.882 19.1054 14.575 19.1054 15.004 18.6839L21.23 12.5676C21.659 12.1462 21.659 11.4654 21.23 11.0439C20.801 10.6225 20.108 10.6225 19.679 11.0439L14.223 16.393Z" fill="white"/>
</svg>
