<svg xmlns="http://www.w3.org/2000/svg" width="50" height="15" viewBox="0 0 50 15" fill="none">
<path d="M24.4905 0.727917L21.2296 14.6248H17.2865L20.5479 0.727917H24.4905ZM41.0806 9.7012L43.1566 4.48243L44.3511 9.7012H41.0806ZM45.4801 14.6248H49.1274L45.9447 0.727917H42.5781C41.8216 0.727917 41.1833 1.12906 40.8992 1.74748L34.9834 14.6248H39.1242L39.9463 12.5496H45.0053L45.4801 14.6248ZM35.1889 10.0874C35.2058 6.41951 29.6252 6.21762 29.6638 4.5792C29.6754 4.07998 30.1969 3.5504 31.336 3.41449C31.9019 3.34719 33.4578 3.29573 35.2246 4.03687L35.9164 1.08991C34.9674 0.77586 33.7463 0.473686 32.2276 0.473686C28.3303 0.473686 25.5871 2.36282 25.564 5.06787C25.5394 7.06828 27.5222 8.18461 29.0164 8.84966C30.5525 9.53098 31.0687 9.9673 31.062 10.5765C31.0519 11.5094 29.8366 11.9202 28.7028 11.9365C26.7199 11.9651 25.5693 11.4487 24.6521 11.059L23.9376 14.104C24.8586 14.4898 26.5593 14.825 28.3236 14.8421C32.4654 14.8421 35.1754 12.9763 35.1889 10.0874ZM18.856 0.727917L12.4673 14.6248H8.29846L5.15481 3.53413C4.96375 2.85105 4.79779 2.60122 4.2174 2.31312C3.27035 1.84468 1.70479 1.4044 0.327393 1.13169L0.421471 0.727917H7.13093C7.98583 0.727917 8.75534 1.24693 8.94929 2.14466L10.6099 10.1868L14.7131 0.727917H18.856Z" fill="#1434CB"/>
</svg>