<svg xmlns="http://www.w3.org/2000/svg" width="24" height="24" viewBox="0 0 24 24" fill="none">
  <path d="M23.991 6.61677C23.9907 6.29005 23.9638 5.95993 23.9129 5.63728C23.4021 2.40738 20.6093 0.0140002 17.3261 0.00483013C13.7776 -0.00501918 10.2288 0.0034716 6.68033 0.00211308C6.07103 0.00211308 5.4743 0.0856624 4.88877 0.249704C2.06168 1.04138 0.0581949 3.60798 0.0137032 6.54341C-0.0138069 8.35976 0.00860875 10.1768 0.00860875 11.9938H0.00657097C0.00657097 13.7484 0.000117972 15.5029 0.0113258 17.2574C0.0140429 17.6684 0.0469871 18.0837 0.116951 18.4886C0.658323 21.6091 3.40696 23.9648 6.57266 23.9848C10.1779 24.0073 13.783 23.995 17.3882 23.9848C17.809 23.9835 18.2359 23.9312 18.6496 23.8497C21.689 23.2526 23.9676 20.5328 23.9876 17.433C24.0107 13.8278 23.9954 10.2226 23.9903 6.61711L23.991 6.61677ZM13.3843 18.8292C11.7551 19.1393 10.2026 18.9206 8.72559 18.1639C8.65562 18.1279 8.56188 18.1085 8.48513 18.1204C7.54741 18.2668 6.6107 18.4203 5.674 18.5718C5.60811 18.5823 5.54154 18.5881 5.44679 18.5996C5.61558 17.6616 5.77759 16.7504 5.94435 15.8398C5.97254 15.6863 5.9654 15.5555 5.88219 15.4088C3.58289 11.3577 5.88831 6.20106 10.4414 5.20187C14.089 4.40136 17.6766 6.48771 18.7359 10.0257C19.9073 13.9375 17.3971 18.0657 13.3846 18.8292H13.3843Z" fill="#00AF4D"/>
  <path d="M10.4407 5.20151C5.88765 6.2007 3.58223 11.3573 5.88153 15.4084C5.96474 15.5552 5.97188 15.6856 5.94369 15.8394C5.77727 16.75 5.61492 17.6609 5.44613 18.5993C5.54088 18.5877 5.60745 18.582 5.67334 18.5714C6.61038 18.4203 7.54675 18.2664 8.48447 18.1201C8.56122 18.1082 8.65496 18.1279 8.72493 18.1635C10.202 18.9202 11.7544 19.139 13.3836 18.8289C17.3964 18.0654 19.9063 13.9368 18.7349 10.0253C17.6756 6.48735 14.088 4.401 10.4404 5.20151H10.4407ZM13.3001 17.7023C11.7324 18.0392 10.2573 17.7947 8.88116 16.9629C8.8044 16.9168 8.68961 16.8984 8.60028 16.9137C8.04906 17.0085 7.50056 17.1168 6.95069 17.22C6.92998 17.2238 6.9079 17.2204 6.85933 17.2204C6.96326 16.7147 7.05292 16.2259 7.16772 15.743C7.21866 15.529 7.18606 15.3677 7.06175 15.1812C4.85313 11.8651 6.65046 7.29534 10.5375 6.32773C13.7168 5.53639 16.91 7.4227 17.7153 10.568C18.5291 13.747 16.5113 17.0125 13.2994 17.7027L13.3001 17.7023Z" fill="white"/>
  <path d="M10.5382 6.32774C6.65112 7.29535 4.85379 11.8651 7.06241 15.1812C7.18672 15.3677 7.21932 15.529 7.16838 15.743C7.05358 16.226 6.96392 16.7147 6.85999 17.2204C6.90822 17.2204 6.93063 17.2238 6.95135 17.2201C7.50087 17.1168 8.04972 17.0085 8.60094 16.9137C8.68992 16.8984 8.80506 16.9168 8.88181 16.963C10.258 17.7951 11.7327 18.0392 13.3008 17.7023C16.5123 17.0122 18.5304 13.7466 17.7166 10.5677C16.9114 7.42237 13.7182 5.53606 10.5389 6.3274L10.5382 6.32774ZM14.8736 15.0542C14.338 15.3806 13.7888 15.4652 13.1748 15.2736C11.4871 14.7469 10.2478 13.6821 9.34745 12.185C9.08729 11.7523 8.83155 11.3207 8.72694 10.82C8.69468 10.6658 8.68109 10.5079 8.65902 10.3517C8.6777 9.7356 8.92189 9.23362 9.38685 8.83694C9.54613 8.70108 9.72987 8.64538 9.93841 8.68138C9.97169 8.68716 10.0063 8.70108 10.0386 8.69701C10.3718 8.65353 10.4923 8.85731 10.579 9.13173C10.7046 9.52978 10.8612 9.91832 10.9831 10.3177C11.015 10.4223 11.0055 10.5755 10.9488 10.6635C10.8279 10.8509 10.6727 11.0201 10.5134 11.1784C10.3874 11.3037 10.3721 11.4181 10.4526 11.5703C10.959 12.5274 11.6936 13.243 12.6796 13.6974C12.813 13.7589 12.9275 13.7517 13.0311 13.6369C13.2169 13.4315 13.4111 13.2335 13.5925 13.0239C13.6934 12.9074 13.8065 12.8704 13.9372 12.9404C14.4151 13.1964 14.8909 13.4559 15.3616 13.7246C15.416 13.7555 15.4642 13.854 15.4612 13.9188C15.4387 14.3841 15.3025 14.793 14.8736 15.0546V15.0542Z" fill="#00AF4D"/>
  <path d="M15.3616 13.7246C14.8909 13.4559 14.4151 13.1964 13.9372 12.9404C13.8065 12.8704 13.6934 12.9078 13.5925 13.0239C13.4111 13.2335 13.2169 13.4311 13.0311 13.6369C12.9275 13.7517 12.813 13.7589 12.6796 13.6974C11.694 13.243 10.959 12.5274 10.4526 11.5703C10.3721 11.4181 10.3874 11.3037 10.5134 11.1784C10.6727 11.0201 10.8276 10.8509 10.9488 10.6635C11.0055 10.5755 11.015 10.422 10.9831 10.3177C10.8612 9.91866 10.7046 9.53012 10.579 9.13173C10.4923 8.85731 10.3718 8.65387 10.0386 8.69701C10.0063 8.70108 9.97169 8.68716 9.93841 8.68138C9.72953 8.64504 9.54613 8.70108 9.38685 8.83694C8.92189 9.23362 8.6777 9.7356 8.65902 10.3517C8.68109 10.5079 8.69502 10.6658 8.72694 10.82C8.83121 11.321 9.08695 11.7523 9.34745 12.185C10.2478 13.6825 11.4871 14.7469 13.1748 15.2736C13.7888 15.4652 14.338 15.3803 14.8736 15.0542C15.3025 14.793 15.4388 14.3838 15.4612 13.9185C15.4642 13.854 15.4157 13.7551 15.3617 13.7242L15.3616 13.7246Z" fill="white"/>
</svg>